<?xml version="1.0" standalone="no"?>
<!DOCTYPE svg PUBLIC "-//W3C//DTD SVG 1.1//EN" "http://www.w3.org/Graphics/SVG/1.1/DTD/svg11.dtd" >
<svg xmlns="http://www.w3.org/2000/svg" xmlns:xlink="http://www.w3.org/1999/xlink" version="1.1">
<metadata>
Created by FontForge 20170924 at Sun May  3 12:34:31 2020
 By www-data
Typeface (c) (your company). 2018. All Rights Reserved
</metadata>
<defs>
<font id="TengriRegular" horiz-adv-x="1101" >
  <font-face 
    font-family="Tengri"
    font-weight="500"
    font-stretch="normal"
    units-per-em="2048"
    panose-1="0 0 0 0 0 0 0 0 0 0"
    ascent="1638"
    descent="-410"
    x-height="1082"
    cap-height="1409"
    bbox="-874 -783 2250 1885"
    underline-thickness="50"
    underline-position="-100"
    unicode-range="U+0020-FEFF"
  />
<missing-glyph horiz-adv-x="457" 
d="M20 675h417v-675h-417v675zM68 48h320v579h-320v-579z" />
    <glyph glyph-name="uniFB56" unicode="&#x67e;" horiz-adv-x="1299" arabic-form="isolated" 
d="M474 -340l-130 129l128 127l130 -129zM763 -340l-129 129l127 127l130 -129zM624 -578l-130 128l128 127l129 -129zM1204 539v0c13 -52 19 -97 19 -134v0v-17c-2 -40 -7 -77 -15 -110v0c-53 -155 -140 -234 -259 -235v0h-605c-104 2 -186 30 -245 83s-89 123 -89 209v0
c5 120 49 231 134 334v0h2c17 0 25 -9 25 -27v0c-8 -29 -20 -76 -36 -141v0c-4 -27 -6 -52 -6 -73v0c0 -62 16 -103 48 -124v0c43 -28 106 -42 188 -43v0h560c53 0 88 8 107 23v0c20 16 32 42 37 78v0v6c0 37 -40 106 -119 207v0l173 127c38 -50 65 -104 81 -163z" />
    <glyph glyph-name="uniFB57" unicode="&#x67e;" horiz-adv-x="1400" arabic-form="final" 
d="M1419 261v-219h-108c-39 0 -78 12 -115 35s-71 77 -102 162v0c-38 -77 -80 -128 -126 -153c-46 -26 -93 -40 -141 -42v0h-477c-115 1 -201 30 -258 86c-57 55 -87 118 -90 188v0c-1 7 -1 13 -1 18v0c0 63 12 125 37 185v0c29 62 49 95 62 98v0h26
c-19 -69 -28 -124 -28 -165v0c0 -41 13 -83 39 -126c25 -44 89 -66 190 -66v0h497c67 0 125 29 176 86v0c51 58 83 126 98 204v0c4 10 8 15 12 15v0c5 0 9 -5 14 -14v0c17 -84 45 -154 85 -209s81 -83 122 -83v0h88zM454 -359l-129 128l128 127l130 -129zM768 -360l-128 128
l126 128l131 -130zM617 -569l-129 129l127 128l131 -130z" />
    <glyph glyph-name="uniFB58" unicode="&#x67e;" horiz-adv-x="699" arabic-form="initial" 
d="M600 375v0v-20c0 -39 -4 -81 -13 -124v0c-12 -52 -38 -98 -79 -139v0c-37 -33 -101 -50 -192 -50v0h-320v219h367c42 8 64 25 65 52v0v3c0 35 -20 90 -61 163v0l-51 69l154 154c81 -107 124 -216 130 -327zM181 -364l-128 129l127 128l130 -130zM467 -364l-128 129
l126 128l131 -130zM328 -598l-130 129l127 127l129 -129z" />
    <glyph glyph-name="uniFB59" unicode="&#x67e;" horiz-adv-x="599" arabic-form="medial" 
d="M616 261v-219h-90c-30 0 -65 11 -106 33c-41 21 -82 76 -123 164v0c-29 -72 -61 -124 -98 -156v0c-31 -27 -68 -41 -112 -41v0h-101v219h98c27 0 49 4 68 13v0c21 10 41 33 60 69s41 96 64 180v0c3 13 8 20 16 20v0c7 0 12 -7 17 -21v0c21 -81 41 -138 62 -169
c21 -32 44 -56 71 -71v0c24 -14 59 -21 104 -21v0h70zM297 -345l130 -129l-127 -127l-129 129zM485 -102l130 -129l-127 -127l-129 129zM108 -106l130 -129l-127 -127l-129 129z" />
    <glyph glyph-name="uniFB6A" unicode="&#x6a4;" horiz-adv-x="1299" arabic-form="isolated" 
d="M1203 136l-7 -95c-9 -123 -55 -230 -138 -320v0c-122 -134 -287 -203 -496 -207v0l-120 3c-91 8 -169 34 -234 78s-112 92 -141 145c-29 52 -45 111 -48 176v0c-1 29 -2 57 -2 82v0c0 29 1 54 2 77v0c3 41 16 90 38 149s52 114 90 166v0l36 -27l-17 -41
c-25 -61 -38 -134 -38 -219v0c0 -13 0 -27 1 -41v0c5 -103 51 -187 138 -251v0c59 -35 148 -56 268 -63v0c13 -1 25 -2 38 -2v0c29 0 60 3 92 10v0c75 8 142 24 200 48v0c132 57 198 128 198 214v0v24h-230c-94 8 -141 85 -141 231v0v12c4 119 24 211 61 278v0
c33 61 83 92 150 93v0h6c54 0 101 -18 142 -55v0c72 -67 119 -165 142 -293v0c7 -45 11 -89 11 -131v0c0 -12 0 -26 -1 -41v0zM876 262h154c-4 39 -16 77 -37 112v0c-27 45 -57 69 -90 71v0c-7 1 -13 1 -20 1v0c-49 0 -77 -31 -83 -92v0c3 -55 29 -85 76 -92v0zM1053 729
l-129 129l126 127l132 -129zM748 729l-129 129l126 127l132 -129zM904 977l-129 129l126 127l132 -129z" />
    <glyph glyph-name="uniFB6B" unicode="&#x6a4;" horiz-adv-x="1299" arabic-form="final" 
d="M755 799l-128 129l127 127l130 -129zM1056 799l-129 129l127 127l131 -129zM1323 261v-219h-130c-3 -54 -19 -115 -46 -183v0c-28 -70 -60 -122 -97 -156v0c-92 -84 -176 -136 -252 -156v0c-71 -19 -138 -29 -199 -29v0h-54c-62 0 -113 1 -153 4v0
c-73 8 -155 44 -246 108v0c-38 37 -69 78 -94 125v0c-12 34 -23 70 -34 108v0c-9 31 -13 74 -13 127v0c0 9 0 19 1 30v0c1 67 8 120 20 160v0c27 91 52 141 76 149v0c9 -5 14 -15 14 -30v0c0 -10 -2 -23 -6 -38v0c-12 -45 -18 -91 -18 -137v0c0 -129 41 -222 122 -280v0
c79 -55 170 -85 273 -92v0c17 -2 37 -3 58 -3v0c34 0 73 2 117 7v0c76 8 142 24 199 48v0c132 57 198 128 198 215v0v23h-228c-95 9 -142 86 -142 232v0v12c4 119 24 211 61 278v0c33 61 82 92 149 93v0h6c55 0 103 -18 142 -55v0c70 -65 117 -169 141 -310v0
c2 -8 4 -18 5 -31v0h130zM874 261h152c-4 41 -16 79 -37 114v0c-27 45 -57 69 -90 71v0c-7 1 -13 1 -20 1v0c-49 0 -77 -31 -82 -92v0c3 -55 28 -86 77 -94v0zM893 1050l-130 129l127 127l129 -129z" />
    <glyph glyph-name="uniFB6C" unicode="&#x6a4;" horiz-adv-x="700" arabic-form="initial" 
d="M606 459c-2 -111 -7 -184 -14 -218v0c-11 -41 -31 -79 -60 -114v0c-49 -57 -134 -85 -255 -85v0h-281v219h328c81 0 121 25 121 75v0c0 29 0 49 -1 58v0h-172c-72 0 -122 12 -151 36v0c-34 29 -51 73 -51 134v0c3 110 33 206 90 288v0c40 58 90 87 149 87v0
c8 0 16 -1 25 -2v0c79 0 152 -67 220 -201v0c28 -46 45 -121 52 -224v0v-53zM292 549h140c-3 21 -14 54 -35 97v0c-34 57 -69 85 -105 85v0c-52 0 -79 -32 -81 -95v0c-1 -4 -1 -8 -1 -12v0c0 -50 27 -75 82 -75v0zM145 1080l-130 130l128 128l131 -130zM455 1080l-128 130
l127 128l131 -130zM309 1328l-130 129l127 127l129 -129z" />
    <glyph glyph-name="uniFB6D" unicode="&#x6a4;" horiz-adv-x="700" arabic-form="medial" 
d="M722 261v-219h-175c-73 0 -138 34 -195 101v0c-70 -67 -151 -101 -242 -101v0h-114v219h236c-19 19 -39 47 -61 82v0c-17 25 -32 54 -43 89c-12 35 -18 74 -18 119v0c1 37 8 70 21 100v0c13 25 24 43 31 55v0c49 69 115 105 200 108v0h3c60 0 111 -18 152 -54v0
c31 -23 49 -46 55 -70v0c21 -39 32 -86 33 -141v0v-19c0 -73 -18 -137 -53 -191v0c-17 -21 -37 -43 -60 -66v0c3 -8 17 -12 41 -12v0h189zM480 454v0c-8 80 -55 120 -140 120v0c-47 0 -74 -10 -81 -30v0c-1 -7 -1 -13 -1 -20v0c0 -37 13 -75 38 -114v0c24 -35 54 -64 91 -88
v0c62 36 93 80 93 132zM203 949l-129 130l127 127l131 -129zM503 949l-128 130l127 127l131 -129zM353 1209l-130 129l127 127l129 -129z" />
    <glyph glyph-name="uniFB7A" unicode="&#x686;" horiz-adv-x="1099" arabic-form="isolated" 
d="M1100 -329v0l28 -25c-5 -20 -34 -51 -85 -92v0c-64 -56 -141 -100 -231 -132c-91 -33 -167 -49 -230 -49v0c-17 -2 -38 -3 -61 -3v0c-60 0 -124 11 -191 32v0c-103 30 -183 80 -240 151s-86 164 -88 280v0l-1 21c0 141 50 263 150 364v0c72 65 138 112 199 143
c61 30 146 62 256 95v0l43 13c-54 23 -106 46 -155 69v0c-59 24 -118 38 -177 41v0h-8c-57 0 -113 -35 -167 -105v0l-29 13c7 46 32 103 74 170s106 103 193 109v0h26c59 0 120 -15 183 -44v0c1 0 65 -32 191 -97v0c88 -47 177 -79 267 -94v0l-105 -172
c-289 -35 -475 -82 -560 -139v0c-64 -40 -114 -83 -150 -128c-36 -46 -58 -90 -65 -132v0c-4 -24 -6 -46 -6 -65v0c0 -20 2 -40 6 -59c3 -19 14 -45 33 -78s42 -62 71 -85s72 -44 129 -62s138 -27 242 -27v0c190 0 343 29 458 87zM686 -85l130 -129l-127 -127l-129 129z
M874 158l130 -129l-127 -127l-129 129zM497 154l130 -129l-127 -127l-129 129z" />
    <glyph glyph-name="uniFB7B" unicode="&#x686;" horiz-adv-x="1099" arabic-form="final" 
d="M890 352v0c1 -23 8 -42 20 -57v0c17 -23 40 -34 69 -34v0h138v-219h-114c-49 0 -89 6 -118 19c-30 13 -57 41 -81 84v0c-23 40 -34 103 -34 188v0v2c-192 -31 -321 -70 -388 -115v0c-64 -40 -114 -83 -150 -128c-36 -46 -58 -90 -65 -132v0c-4 -24 -6 -46 -6 -65v0
c0 -20 2 -40 6 -59c3 -19 14 -45 33 -78s42 -62 71 -85s72 -44 129 -62s138 -27 242 -27v0c190 0 343 29 458 87v0l28 -25c-5 -20 -34 -51 -85 -92v0c-64 -56 -141 -100 -231 -132c-91 -33 -167 -49 -230 -49v0c-17 -2 -38 -3 -61 -3v0c-60 0 -124 11 -191 32v0
c-103 30 -183 81 -240 153s-86 165 -88 278v0l-1 21c0 141 50 263 150 364v0c72 65 138 112 199 143c61 30 146 62 256 95v0l43 13c-54 23 -106 46 -155 69v0c-59 24 -118 38 -177 41v0h-8c-57 0 -113 -35 -167 -105v0l-29 13c7 46 32 103 74 170s106 103 193 109v0h26
c59 0 120 -15 183 -44v0c1 0 65 -32 191 -97v0c88 -47 177 -79 267 -94v0l-105 -172c-17 -2 -35 -4 -52 -7zM393 -142l-130 129l127 127l129 -129zM720 -145l-130 129l127 127l129 -129zM556 -360l-130 129l127 127l129 -129z" />
    <glyph glyph-name="uniFB7C" unicode="&#x686;" horiz-adv-x="1099" arabic-form="initial" 
d="M1031 472v0l-68 -204c-9 1 -17 2 -26 2v0c-26 0 -50 -5 -73 -16v0c-20 -3 -65 -28 -136 -76v0c-64 -44 -124 -76 -180 -95v0c-68 -27 -199 -41 -392 -41v0h-160v219h323c65 0 120 7 163 22s104 45 182 91v0c-53 51 -128 100 -225 146v0c-68 26 -129 39 -182 39v0
c-27 0 -51 -3 -70 -10v0c-21 -9 -50 -35 -85 -80v0l-24 18c76 183 159 276 250 278v0l25 1c83 -1 187 -46 310 -135v0c123 -83 245 -136 368 -159zM511 -345l130 -129l-127 -127l-129 129zM699 -102l130 -129l-127 -127l-129 129zM322 -106l130 -129l-127 -127l-129 129z
" />
    <glyph glyph-name="uniFB7D" unicode="&#x686;" horiz-adv-x="1099" arabic-form="medial" 
d="M1122 261v-219h-157c-5 -1 -9 -1 -14 -1v0c-46 0 -94 21 -145 63v0c-56 45 -90 118 -102 219v0c-33 -3 -66 -20 -97 -50v0l-123 -108c-93 -82 -232 -123 -416 -123v0h-72v219h68c119 0 225 20 318 60v0c97 42 175 83 234 124v0c-161 73 -260 115 -297 124v0
c-30 7 -55 11 -75 11v0c-5 0 -9 0 -12 -1v0c-22 -2 -46 -10 -71 -23c-26 -14 -51 -39 -76 -75v0l-27 8c12 58 43 118 94 179v0c56 65 113 98 172 98v0c70 0 142 -16 215 -49v0c68 -30 117 -54 147 -72v0c151 -67 274 -107 367 -122v0l-73 -151c-13 1 -27 2 -41 2v0
c-31 0 -60 -3 -87 -10v0c0 -27 9 -50 27 -68c18 -19 49 -30 93 -35v0h150zM598 -346l130 -129l-127 -127l-129 129zM786 -103l130 -129l-127 -127l-129 129zM409 -107l130 -129l-127 -127l-129 129z" />
    <glyph glyph-name="uniFB8A" unicode="&#x698;" horiz-adv-x="800" arabic-form="isolated" 
d="M697 116v-61c0 -144 -35 -267 -106 -369v0c-63 -100 -154 -153 -274 -158v0c-119 11 -208 45 -268 100v0c-9 9 -13 16 -13 21v0c0 7 7 11 20 13v0c173 33 310 92 412 179v0c61 52 92 108 92 168v0v13c-1 37 -38 116 -112 237v0l-51 73l143 183c6 8 11 12 16 12v0
c7 0 13 -6 19 -18v0c74 -149 115 -280 122 -393v0zM439 898l-130 129l127 127l129 -129zM251 655l-130 129l127 127l129 -129zM628 659l-130 129l127 127l129 -129z" />
    <glyph glyph-name="uniFB8B" unicode="&#x698;" horiz-adv-x="899" arabic-form="final" 
d="M926 261v-219h-133c-62 0 -106 15 -133 45v0c1 -22 2 -43 2 -64v0c0 -122 -27 -222 -81 -299v0c-77 -113 -179 -175 -308 -186v0c-100 6 -191 38 -274 96v0c-3 5 -4 10 -4 14v0c0 7 5 12 16 15v0c188 34 336 94 444 181v0c46 49 69 102 69 161v0c0 6 0 12 -1 17v0
c-22 93 -59 178 -111 256v0l-49 70l152 176c5 5 10 7 14 7v0c5 0 9 -4 12 -12v0c36 -97 72 -164 107 -200v0c33 -39 75 -58 126 -58v0h152zM411 938l-130 129l127 127l129 -129zM223 695l-130 129l127 127l129 -129zM600 699l-130 129l127 127l129 -129z" />
    <glyph glyph-name="uniFB8E" unicode="&#x6a9;" horiz-adv-x="1400" arabic-form="isolated" 
d="M1337 351c-3 -77 -31 -146 -84 -206v0c-27 -28 -48 -47 -61 -58v0c-56 -38 -113 -66 -170 -84c-58 -18 -131 -32 -218 -42v0c-81 -8 -161 -12 -239 -12v0c-41 0 -80 1 -117 4v0c-48 4 -83 7 -104 8v0c-229 12 -344 119 -344 322v0c0 121 26 211 78 270v0h23
c0 -69 -1 -120 -3 -153v0c5 -41 11 -70 18 -88v0c19 -47 55 -80 107 -98v0c45 -11 79 -19 104 -24v0l34 -10c102 -7 191 -11 266 -13v0c35 -1 67 -2 97 -2v0c77 0 140 4 189 13v0c177 28 265 63 265 105v0c0 23 -30 57 -90 101v0c-41 31 -78 53 -111 67v0
c-41 25 -93 47 -155 67v0c-27 14 -45 24 -54 30v0c-11 9 -17 25 -17 48v0c0 22 12 71 36 146c23 75 42 119 55 130v0c23 19 57 37 103 55v0c15 7 50 21 106 43v0l391 140c-9 -47 -27 -120 -54 -219v0c-67 -16 -223 -73 -466 -170v0c0 -3 3 -8 9 -15v0
c80 -34 139 -61 177 -82v0c77 -41 129 -77 158 -106v0c47 -47 71 -101 71 -162v0v-5z" />
    <glyph glyph-name="uniFB8F" unicode="&#x6a9;" horiz-adv-x="1601" arabic-form="final" 
d="M1487 42c-93 0 -196 63 -310 189v0c-23 -89 -110 -159 -262 -211v0c-109 -39 -225 -59 -346 -61v0h-24c-73 0 -133 3 -182 10v0c-125 11 -214 38 -267 80v0c-64 51 -96 134 -96 247v0v6c1 125 27 217 78 274v0h23c-3 -43 -4 -80 -4 -112v0c0 -15 0 -30 1 -43v0
c7 -64 25 -111 55 -141v0c67 -69 195 -105 386 -110v0c13 -1 25 -1 37 -1v0c88 0 178 10 269 31v0c115 23 194 57 235 102v0c0 25 -18 59 -55 103s-81 87 -130 128s-106 76 -171 106v0c-27 15 -45 24 -54 27v0c-11 12 -17 30 -17 53v0c0 22 12 71 36 148
c23 76 42 118 55 127v0l650 247l-54 -219l-516 -179c0 -5 3 -10 9 -17v0c69 -35 131 -73 186 -113c54 -40 121 -105 200 -195v0c63 -90 106 -146 129 -167v0c51 -57 95 -87 133 -90v0h152v-219h-146z" />
    <glyph glyph-name="uniFB90" unicode="&#x6a9;" horiz-adv-x="899" arabic-form="initial" 
d="M229 1026l693 297l-49 -231l-515 -225l211 -157c171 -118 257 -236 259 -355v0c0 -118 -40 -206 -120 -263v0c-51 -25 -94 -40 -129 -45v0c-17 -3 -67 -5 -149 -5v0h-434v219h590c31 0 52 13 62 38v0c1 9 2 18 2 26v0c0 42 -60 108 -181 199v0c-85 65 -191 143 -317 234
v0c-13 11 -19 23 -19 37v0c0 3 0 5 1 8v0c3 17 13 50 32 98c19 47 40 89 63 125v0z" />
    <glyph glyph-name="uniFB91" unicode="&#x6a9;" horiz-adv-x="1099" arabic-form="medial" 
d="M1115 262v-220h-84c-53 0 -106 16 -158 48v0c-29 17 -90 70 -185 158v0c-15 -59 -62 -112 -141 -161v0c-47 -30 -140 -45 -281 -45v0h-270v219h429c35 0 67 6 97 19v0c45 15 68 36 68 65v0c0 11 -6 20 -17 28v0c-27 29 -103 82 -229 158v0l-138 83c-60 37 -90 76 -90 117
v0c0 21 21 106 62 253v0l705 351l-27 -218l-576 -291c188 -99 339 -209 454 -329v0c80 -73 143 -130 189 -169c46 -40 87 -62 122 -66v0h70z" />
    <glyph glyph-name="uniFB92" unicode="&#x6af;" horiz-adv-x="1299" arabic-form="isolated" 
d="M1235 351c-2 -77 -30 -146 -83 -206v0c-27 -28 -48 -47 -61 -58v0c-56 -38 -102 -65 -139 -81s-86 -31 -148 -45v0c-149 -8 -236 -12 -262 -12v0c-25 0 -91 3 -198 9v0c-229 14 -344 122 -344 325v0c0 121 26 211 78 270v0h23c0 -69 -1 -120 -3 -153v0
c5 -41 11 -70 18 -88v0c19 -47 58 -83 115 -106c57 -24 156 -37 295 -39v0c35 -1 67 -2 97 -2v0c77 0 140 4 189 13v0c177 28 265 63 265 105v0c0 23 -30 57 -90 101v0c-41 31 -78 53 -111 67v0c-41 25 -93 47 -155 67v0c-27 14 -45 24 -54 30v0c-11 9 -17 25 -17 48v0
c0 22 12 71 36 146c23 75 41 119 54 130v0c23 19 57 37 104 55v0c15 7 50 21 105 43v0l392 140c-9 -47 -27 -120 -54 -219v0c-67 -16 -223 -73 -466 -170v0c0 -3 3 -8 8 -15v0c80 -34 139 -61 178 -82v0c77 -41 129 -77 158 -106v0c47 -47 70 -100 70 -160v0v-7zM1401 1383
v0c-13 -39 -32 -93 -56 -164v0c-218 -84 -410 -160 -577 -227v0c4 22 23 80 58 175v0c128 47 320 119 575 216z" />
    <glyph glyph-name="uniFB93" unicode="&#x6af;" horiz-adv-x="1501" arabic-form="final" 
d="M1437 42c-86 0 -183 64 -290 192v0c-29 -91 -110 -162 -242 -214v0c-109 -39 -226 -59 -349 -61v0h-25c-66 0 -122 3 -168 10v0c-125 11 -214 38 -267 80v0c-64 51 -96 134 -96 247v0v6c1 125 27 217 78 274v0h23c-14 -47 -21 -89 -21 -128v0c0 -23 3 -44 8 -64v0
c13 -53 45 -101 95 -144c50 -44 164 -67 343 -70v0c15 -1 29 -1 43 -1v0c86 0 175 10 266 31v0c115 23 184 57 205 102v0c0 25 -20 60 -60 105v0c-40 31 -77 54 -111 67v0c-41 24 -93 46 -155 65v0c-27 15 -45 24 -54 27v0c-11 12 -17 30 -17 53v0c0 22 12 71 36 148
c23 76 42 118 55 127v0c23 19 57 38 103 57v0c15 5 50 18 106 39v0l391 141c-9 -46 -27 -119 -54 -219v0c-67 -14 -223 -70 -466 -169v0c0 -5 3 -10 9 -17v0c80 -31 140 -61 179 -88c39 -28 88 -72 149 -132s111 -115 152 -165c41 -51 83 -77 128 -80v0h92v-219h-86z
M1395 1403v0c-14 -38 -33 -93 -56 -165v0c-219 -83 -411 -158 -578 -225v0c5 23 24 81 58 175v0c128 45 320 117 576 215z" />
    <glyph glyph-name="uniFB94" unicode="&#x6af;" horiz-adv-x="899" arabic-form="initial" 
d="M903 1410l-48 -173l-616 -234l48 176zM268 905l612 232l-53 -215l-494 -173l358 -202c43 -29 65 -80 65 -155v0c0 -19 -1 -39 -4 -60v0c0 -116 -43 -197 -130 -242v0c-49 -32 -111 -48 -186 -48v0h-440v219h529c49 0 80 16 92 48v0c-1 24 -11 46 -30 66
c-20 19 -44 35 -72 46v0l-321 163c-15 8 -22 29 -22 62v0c0 39 10 89 31 152c20 62 42 98 65 107v0z" />
    <glyph glyph-name="uniFB95" unicode="&#x6af;" horiz-adv-x="1099" arabic-form="medial" 
d="M903 1410l-48 -173l-616 -234l48 176zM679 538c92 -74 158 -141 198 -202v0c47 -50 90 -75 131 -75v0h117v-219h-118c-50 0 -93 8 -128 25v0c-38 13 -86 61 -144 145v0c-17 -54 -48 -95 -93 -122v0c-49 -32 -111 -48 -186 -48v0h-460v219h539c49 0 77 16 82 48v0
c-3 18 -12 37 -27 57v0c-22 25 -47 44 -75 55v0l-321 163c-15 8 -22 29 -22 62v0c0 39 10 89 31 152c20 62 42 98 65 107v0l612 232l-53 -215l-494 -173c73 -37 189 -107 346 -211v0z" />
    <glyph glyph-name="uniFBA4" unicode="&#x6c0;" horiz-adv-x="700" arabic-form="isolated" 
d="M596 390v0v-15c0 -107 -22 -193 -65 -258v0c-49 -67 -122 -101 -221 -101v0c-123 1 -187 60 -192 178v0c-1 7 -2 16 -2 25v0c0 112 26 212 79 300v0c59 105 112 171 158 199v0c63 -38 119 -83 168 -135c48 -52 73 -116 75 -193zM475 279v0c3 9 4 19 4 29v0
c0 17 -4 34 -12 53v0c-13 30 -31 57 -52 80c-22 23 -50 45 -83 64v0c-29 -15 -53 -41 -72 -78v0c-17 -33 -26 -67 -26 -104v0c0 -6 0 -12 1 -18v0c3 -42 39 -63 106 -63v0h9c75 1 116 13 125 37zM488 999v0v-73l-288 -146v85l90 44c-39 18 -62 40 -70 67v0
c-5 14 -7 28 -7 42v0c0 12 2 24 5 36v0c7 25 24 48 50 68s52 30 78 30v0c27 0 51 -5 74 -15s43 -24 60 -43v0l1 -36c-43 12 -78 18 -105 18v0c-23 0 -40 -5 -51 -14v0c-17 -15 -25 -31 -25 -47v0c0 -5 1 -10 3 -15v0c7 -21 22 -35 44 -41v0c3 -1 7 -2 12 -2v0
c25 0 68 14 129 42z" />
    <glyph glyph-name="uniFBA5" unicode="&#x6c0;" horiz-adv-x="799" arabic-form="final" 
d="M825 261v-219h-193c-101 5 -166 54 -194 145v0c-59 -50 -125 -75 -197 -75v0c-44 0 -81 10 -111 31v0c-37 23 -55 57 -55 100v0c0 62 18 122 55 181c37 58 78 109 123 154v0c33 33 80 63 139 90v0v99l182 125v-530c2 -67 44 -101 125 -101v0h126zM392 362v0v180
c-31 -11 -67 -38 -108 -79c-41 -42 -63 -80 -65 -115v0v-6c0 -31 16 -48 48 -51v0c2 -1 4 -1 7 -1v0c33 0 72 24 118 72zM573 1106v0v-73l-288 -146v85l90 44c-39 18 -62 40 -70 67v0c-5 14 -7 28 -7 42v0c0 12 2 24 5 36v0c7 25 24 48 50 68s52 30 78 30v0
c27 0 51 -5 74 -15s43 -24 60 -43v0l1 -36c-43 12 -78 18 -105 18v0c-23 0 -40 -5 -51 -14v0c-17 -15 -25 -31 -25 -47v0c0 -5 1 -10 3 -15v0c7 -21 22 -35 44 -41v0c3 -1 7 -2 12 -2v0c25 0 68 14 129 42z" />
    <glyph glyph-name="uniFBAA" unicode="&#x6be;" horiz-adv-x="1099" arabic-form="isolated" 
d="M-12 42v219h265c-21 13 -37 32 -48 56v0c-6 21 -9 41 -9 61v0c0 39 11 80 33 123v0c37 70 96 131 175 183v0c-18 13 -44 29 -78 48v0l108 161c7 15 16 23 27 23v0c8 0 18 -5 29 -14v0c45 -23 117 -68 218 -135s168 -116 203 -145v0c65 -57 98 -119 98 -188v0v-9
c0 -56 -8 -108 -24 -157v0c-27 -58 -55 -102 -84 -132v0c-34 -41 -75 -71 -124 -88v0c-28 -11 -63 -16 -104 -16v0c-8 0 -17 0 -27 1v0c-42 3 -84 10 -125 23v0c-39 9 -69 23 -92 40v0c-21 -15 -52 -28 -93 -39v0c-29 -10 -67 -15 -115 -15v0h-233zM863 353v0
c0 27 -12 54 -35 81v0c-22 21 -48 39 -78 54v0c-1 -45 -10 -87 -26 -126v0c-21 -45 -50 -78 -87 -100v0c34 -7 62 -11 85 -11v0c94 0 141 34 141 102zM590 411v0v10c0 37 -12 67 -37 90v0c-28 25 -61 38 -100 39v0h-5c-37 0 -68 -11 -91 -33v0c-25 -23 -37 -48 -37 -77v0
c0 -29 19 -57 58 -86v0c43 -29 82 -47 117 -53v0c63 31 95 68 95 110z" />
    <glyph glyph-name="uniFBAB" unicode="&#x6be;" horiz-adv-x="899" arabic-form="final" 
d="M605 -144v0c0 84 -35 139 -105 166v0c-39 13 -84 20 -136 20v0h-23v-20c0 -44 11 -87 34 -130v0c40 -71 91 -107 154 -107v0c51 0 76 24 76 71zM-15 42v219h229l3 51c11 77 36 153 77 229v0c53 95 103 157 148 185v0c37 21 75 31 116 31v0c13 0 24 -1 35 -4v0
c100 -21 154 -84 162 -189v0c-15 -125 -61 -226 -138 -303v0h306v-219h-195c18 -66 27 -114 27 -143v0c0 -124 -50 -221 -150 -290v0c-31 -22 -65 -33 -100 -33v0h-5c-88 4 -160 56 -216 155v0c-45 82 -76 186 -95 311v0h-204zM590 463v0v4c0 27 -6 48 -19 63v0
c-14 15 -33 23 -58 23v0c-4 1 -8 2 -12 2v0c-13 0 -28 -5 -45 -14v0c-47 -22 -84 -80 -111 -173v0c-11 -41 -17 -77 -17 -107v0h122c43 13 80 45 110 97v0c15 27 25 62 30 105z" />
    <glyph glyph-name="uniFBAC" unicode="&#x6be;" horiz-adv-x="1099" arabic-form="initial" 
d="M-12 42v219h265c-21 13 -37 32 -48 56v0c-6 21 -9 41 -9 61v0c0 39 11 80 33 123v0c37 70 96 131 175 183v0c-18 13 -44 29 -78 48v0l108 161c7 15 16 23 27 23v0c8 0 18 -5 29 -14v0c45 -23 117 -68 218 -135s168 -116 203 -145v0c65 -57 98 -119 98 -188v0v-9
c0 -56 -8 -108 -24 -157v0c-27 -58 -55 -102 -84 -132v0c-34 -41 -75 -71 -124 -88v0c-28 -11 -63 -16 -104 -16v0c-8 0 -17 0 -27 1v0c-42 3 -84 10 -125 23v0c-39 9 -69 23 -92 40v0c-21 -15 -52 -28 -93 -39v0c-29 -10 -67 -15 -115 -15v0h-233zM863 353v0
c0 27 -12 54 -35 81v0c-22 21 -48 39 -78 54v0c-1 -45 -10 -87 -26 -126v0c-21 -45 -50 -78 -87 -100v0c34 -7 62 -11 85 -11v0c94 0 141 34 141 102zM590 411v0v10c0 37 -12 67 -37 90v0c-28 25 -61 38 -100 39v0h-5c-37 0 -68 -11 -91 -33v0c-25 -23 -37 -48 -37 -77v0
c0 -29 19 -57 58 -86v0c43 -29 82 -47 117 -53v0c63 31 95 68 95 110z" />
    <glyph glyph-name="uniFBAD" unicode="&#x6be;" horiz-adv-x="899" arabic-form="medial" 
d="M605 -144v0c0 84 -35 139 -105 166v0c-39 13 -84 20 -136 20v0h-23v-20c0 -44 11 -87 34 -130v0c40 -71 91 -107 154 -107v0c51 0 76 24 76 71zM-15 42v219h229l3 51c11 77 36 153 77 229v0c53 95 103 157 148 185v0c37 21 75 31 116 31v0c13 0 24 -1 35 -4v0
c100 -21 154 -84 162 -189v0c-15 -125 -61 -226 -138 -303v0h306v-219h-195c18 -66 27 -114 27 -143v0c0 -124 -50 -221 -150 -290v0c-31 -22 -65 -33 -100 -33v0h-5c-88 4 -160 56 -216 155v0c-45 82 -76 186 -95 311v0h-204zM590 463v0v4c0 27 -6 48 -19 63v0
c-14 15 -33 23 -58 23v0c-4 1 -8 2 -12 2v0c-13 0 -28 -5 -45 -14v0c-47 -22 -84 -80 -111 -173v0c-11 -41 -17 -77 -17 -107v0h122c43 13 80 45 110 97v0c15 27 25 62 30 105z" />
    <glyph glyph-name="uniFBD3" unicode="&#x6ad;" horiz-adv-x="1299" arabic-form="isolated" 
d="M715 718c37 -11 60 -23 71 -36v0c7 -12 10 -30 10 -53v0c-23 -84 -53 -136 -90 -155v0c-28 -15 -56 -22 -85 -22v0h-297v3c0 49 28 81 83 98v0h139c65 0 107 11 126 33v0c4 7 6 14 6 19v0c0 24 -31 38 -92 42v0c-28 5 -67 10 -118 17v0c-98 15 -147 50 -147 106v0
c0 65 57 118 172 158v0c60 18 107 27 141 28v0h18c47 0 73 -9 80 -28v0c5 -7 7 -12 7 -16v0c0 -15 -5 -28 -15 -40v0c-15 -15 -39 -23 -72 -23v0c-6 0 -12 0 -19 1v0h-22c-43 0 -77 -5 -104 -15v0c-31 -12 -48 -24 -50 -35v0c-1 -1 -1 -3 -1 -5v0c0 -9 6 -15 18 -20v0
c13 -5 48 -13 103 -24s101 -22 138 -33zM1129 238c-29 -59 -70 -107 -123 -142c-54 -36 -120 -54 -197 -55v0h-485c-99 1 -181 31 -246 91v0c-47 45 -73 113 -78 204v0v10c0 93 33 179 100 256v0l24 -11c-9 -45 -14 -84 -14 -115v0c-1 -8 -1 -16 -1 -24v0
c0 -59 23 -105 69 -138v0c49 -35 119 -52 212 -52v0h423c119 3 178 57 178 162v0l-1 730c0 55 -8 93 -23 112v0c-5 7 -8 14 -8 22v0c0 16 11 36 32 60v0l110 102c7 6 14 9 19 9v0c9 0 15 -7 18 -22v0l61 -197l-30 -47l1 -775c-1 -65 -15 -125 -41 -180v0zM565 1236l-130 129
l127 127l129 -129zM377 993l-130 129l127 127l129 -129zM754 997l-130 129l127 127l129 -129z" />
    <glyph glyph-name="uniFBD4" unicode="&#x6ad;" horiz-adv-x="1400" arabic-form="final" 
d="M1414 262v-219h-92c-106 0 -183 61 -232 182v0c-31 -55 -74 -98 -129 -130c-55 -33 -125 -51 -211 -54v0l-466 1c-94 6 -164 37 -211 93v0c-39 41 -61 108 -66 201v0v9c0 93 33 177 100 254v0l35 -18c-17 -39 -25 -78 -25 -117v0c0 -40 11 -78 33 -114v0
c38 -53 102 -83 191 -89v0h494c128 15 194 77 197 187v0l2 882l137 124c5 5 10 7 13 7v0c5 0 7 -6 7 -17v0l-1 -1036c5 -63 19 -103 41 -120s50 -26 84 -26v0h99zM740 707v0c36 -10 60 -22 71 -35v0c7 -12 10 -30 10 -53v0c-24 -71 -57 -119 -100 -144v0
c-39 -22 -70 -33 -94 -33v0h-278v3c0 49 27 81 82 98v0h140c65 0 107 11 125 33v0c4 7 6 14 6 20v0c0 23 -30 37 -91 41v0c-28 5 -67 10 -118 17v0c-99 15 -148 50 -148 106v0c0 65 53 117 160 155v0c68 20 119 30 154 31v0h18c47 0 73 -9 80 -28v0c4 -7 6 -12 6 -16v0
c0 -15 -5 -28 -15 -40v0c-14 -15 -38 -23 -71 -23v0c-6 0 -12 0 -19 1v0h-22c-43 0 -77 -5 -104 -15v0c-32 -12 -49 -24 -51 -35v0c-1 -1 -1 -3 -1 -5v0c0 -9 6 -15 18 -20v0c13 -5 53 -14 120 -26v0c25 -8 66 -19 122 -32zM594 1237l-130 129l127 127l129 -129zM406 994
l-130 129l127 127l129 -129zM783 998l-130 129l127 127l129 -129z" />
    <glyph glyph-name="uniFBD5" unicode="&#x6ad;" horiz-adv-x="799" arabic-form="initial" 
d="M609 1095l-130 129l127 127l129 -129zM232 1091l-130 129l127 127l129 -129zM420 1334l-130 129l127 127l129 -129zM208 905l591 211l-32 -194l-494 -173l358 -202c43 -29 65 -80 65 -155v0c0 -19 -1 -39 -4 -60v0c0 -116 -43 -197 -130 -242v0
c-49 -32 -111 -48 -186 -48v0h-390v219h479c49 0 80 16 92 48v0c-1 24 -11 46 -30 66c-20 19 -44 35 -72 46v0l-321 163c-15 8 -22 29 -22 62v0c0 39 10 89 31 152c20 62 42 98 65 107v0z" />
    <glyph glyph-name="uniFBD6" unicode="&#x6ad;" horiz-adv-x="999" arabic-form="medial" 
d="M660 1098l-130 129l127 127l129 -129zM325 1094l-130 129l127 127l129 -129zM488 1300l-130 129l127 127l129 -129zM629 538c92 -74 158 -141 198 -202v0c47 -50 90 -75 131 -75v0h67v-219h-68c-50 0 -93 8 -128 25v0c-38 13 -86 61 -144 145v0c-17 -54 -48 -95 -93 -122
v0c-49 -32 -111 -48 -186 -48v0h-420v219h499c49 0 77 16 82 48v0c-3 18 -12 37 -27 57v0c-22 25 -47 44 -75 55v0l-321 163c-15 8 -22 29 -22 62v0c0 39 10 89 31 152c20 62 42 98 65 107v0l603 214l-44 -197l-494 -173c73 -37 189 -107 346 -211v0z" />
    <glyph glyph-name="uniFBD7" unicode="&#x6c7;" horiz-adv-x="799" arabic-form="isolated" 
d="M334 261h182c-32 106 -83 159 -152 159v0c-21 0 -39 -9 -53 -26s-21 -37 -21 -58v0c0 -46 15 -71 44 -75v0zM555 42v0h-140c-91 0 -152 17 -184 52c-32 34 -48 81 -48 140v0c0 78 15 154 46 227v0c39 100 98 150 178 150v0h15c51 0 97 -26 140 -78v0
c56 -67 95 -157 118 -270v0c8 -48 13 -101 14 -159v0h1v-51c0 -143 -35 -265 -106 -367v0c-63 -100 -154 -153 -274 -158v0c-119 11 -208 45 -268 100v0c-9 9 -13 16 -13 21v0c0 7 7 11 20 13v0c173 33 310 92 412 179v0c61 52 92 107 92 166v0v13c0 6 -1 13 -3 22zM354 741
v0l-23 42c49 31 80 56 91 76s17 42 17 65v0c0 13 -6 20 -17 20v0l-20 -5c-33 0 -58 11 -75 34c-18 23 -27 51 -27 84v0c0 31 12 57 36 80c23 23 52 34 85 34v0c41 0 75 -16 104 -49s43 -73 43 -122v0c0 -55 -17 -103 -51 -144s-88 -79 -163 -115z" />
    <glyph glyph-name="uniFBD8" unicode="&#x6c7;" horiz-adv-x="899" arabic-form="final" 
d="M328 261h182c-32 106 -83 159 -152 159v0c-21 0 -39 -9 -53 -26s-21 -37 -21 -58v0c0 -46 15 -71 44 -75v0zM674 263v-2h248v-219h-233c-2 -138 -37 -257 -106 -357v0c-63 -100 -154 -153 -274 -158v0c-119 11 -208 45 -268 100v0c-9 9 -13 16 -13 21v0c0 7 7 11 20 13v0
c173 33 310 92 412 179v0c61 52 92 108 92 167v0v13c0 6 -1 13 -3 22v0h-140c-91 0 -152 17 -184 52c-32 34 -48 81 -48 140v0c0 78 15 154 46 227v0c39 100 98 150 178 150v0h15c51 0 97 -26 140 -78v0c56 -67 95 -157 118 -270v0zM332 741v0l-23 42c49 31 80 56 91 76
s17 42 17 65v0c0 13 -6 20 -17 20v0l-20 -5c-33 0 -58 11 -75 34c-18 23 -27 51 -27 84v0c0 31 12 57 36 80c23 23 52 34 85 34v0c41 0 75 -16 104 -49s43 -73 43 -122v0c0 -55 -17 -103 -51 -144s-88 -79 -163 -115z" />
    <glyph glyph-name="uniFBD9" unicode="&#x6c6;" horiz-adv-x="799" arabic-form="isolated" 
d="M334 261h182c-32 106 -83 159 -152 159v0c-21 0 -39 -9 -53 -26s-21 -37 -21 -58v0c0 -46 15 -71 44 -75v0zM555 42v0h-140c-91 0 -152 17 -184 52c-32 34 -48 81 -48 140v0c0 78 15 154 46 227v0c39 100 98 150 178 150v0h15c51 0 97 -26 140 -78v0
c56 -67 95 -157 118 -270v0c8 -48 13 -101 14 -159v0h1v-51c0 -143 -35 -265 -106 -367v0c-63 -100 -154 -153 -274 -158v0c-119 11 -208 45 -268 100v0c-9 9 -13 16 -13 21v0c0 7 7 11 20 13v0c173 33 310 92 412 179v0c61 52 92 107 92 166v0v13c0 6 -1 13 -3 22z
M609 1147l63 -64c4 -4 6 -8 6 -12v0c0 -3 -1 -6 -3 -9v0l-248 -312c-3 -3 -5 -5 -8 -5v0c-3 0 -5 2 -8 5v0l-250 307c-2 3 -3 6 -3 9v0c0 4 2 8 6 12v0l66 67c3 3 7 5 10 5v0c4 0 8 -3 12 -8v0l155 -192c4 -5 8 -7 11 -7v0c4 0 8 2 11 7v0l158 194c4 5 8 8 12 8v0
c3 0 7 -2 10 -5v0z" />
    <glyph glyph-name="uniFBDA" unicode="&#x6c6;" horiz-adv-x="899" arabic-form="final" 
d="M328 261h182c-32 106 -83 159 -152 159v0c-21 0 -39 -9 -53 -26s-21 -37 -21 -58v0c0 -46 15 -71 44 -75v0zM674 263v-2h248v-219h-233c-2 -138 -37 -257 -106 -357v0c-63 -100 -154 -153 -274 -158v0c-119 11 -208 45 -268 100v0c-9 9 -13 16 -13 21v0c0 7 7 11 20 13v0
c173 33 310 92 412 179v0c61 52 92 108 92 167v0v13c0 6 -1 13 -3 22v0h-140c-91 0 -152 17 -184 52c-32 34 -48 81 -48 140v0c0 78 15 154 46 227v0c39 100 98 150 178 150v0h15c51 0 97 -26 140 -78v0c56 -67 95 -157 118 -270v0zM602 1145l63 -64c4 -4 6 -8 6 -12v0
c0 -3 -1 -6 -3 -9v0l-248 -312c-3 -3 -5 -5 -8 -5v0c-3 0 -5 2 -8 5v0l-250 307c-2 3 -3 6 -3 9v0c0 4 2 8 6 12v0l66 67c3 3 7 5 10 5v0c4 0 8 -3 12 -8v0l155 -192c4 -5 8 -7 11 -7v0c4 0 8 2 11 7v0l158 194c4 5 8 8 12 8v0c3 0 7 -2 10 -5v0z" />
    <glyph glyph-name="uniFBDB" unicode="&#x6c8;" horiz-adv-x="799" arabic-form="isolated" 
d="M334 261h182c-32 106 -83 159 -152 159v0c-21 0 -39 -9 -53 -26s-21 -37 -21 -58v0c0 -46 15 -71 44 -75v0zM555 42v0h-140c-91 0 -152 17 -184 52c-32 34 -48 81 -48 140v0c0 78 15 154 46 227v0c39 100 98 150 178 150v0h15c51 0 97 -26 140 -78v0
c56 -67 95 -157 118 -270v0c8 -48 13 -101 14 -159v0h1v-51c0 -143 -35 -265 -106 -367v0c-63 -100 -154 -153 -274 -158v0c-119 11 -208 45 -268 100v0c-9 9 -13 16 -13 21v0c0 7 7 11 20 13v0c173 33 310 92 412 179v0c61 52 92 107 92 166v0v13c0 6 -1 13 -3 22zM475 813
c0 -9 -4 -16 -13 -22v0l-80 -57c-3 -3 -6 -4 -9 -4v0c-3 0 -5 3 -5 8v0v375c0 8 5 15 14 22v0l80 57c3 3 6 4 8 4v0c3 0 5 -3 5 -8v0v-375z" />
    <glyph glyph-name="uniFBDC" unicode="&#x6c8;" horiz-adv-x="899" arabic-form="final" 
d="M328 261h182c-32 106 -83 159 -152 159v0c-21 0 -39 -9 -53 -26s-21 -37 -21 -58v0c0 -46 15 -71 44 -75v0zM674 263v-2h248v-219h-233c-2 -138 -37 -257 -106 -357v0c-63 -100 -154 -153 -274 -158v0c-119 11 -208 45 -268 100v0c-9 9 -13 16 -13 21v0c0 7 7 11 20 13v0
c173 33 310 92 412 179v0c61 52 92 108 92 167v0v13c0 6 -1 13 -3 22v0h-140c-91 0 -152 17 -184 52c-32 34 -48 81 -48 140v0c0 78 15 154 46 227v0c39 100 98 150 178 150v0h15c51 0 97 -26 140 -78v0c56 -67 95 -157 118 -270v0zM469 817c0 -9 -4 -16 -13 -22v0l-80 -57
c-3 -3 -6 -4 -9 -4v0c-3 0 -5 3 -5 8v0v375c0 8 5 15 14 22v0l80 57c3 3 6 4 8 4v0c3 0 5 -3 5 -8v0v-375z" />
    <glyph glyph-name="uniFBDD" unicode="&#x677;" horiz-adv-x="1099" arabic-form="isolated" 
d="M304 261h182c-32 106 -83 159 -152 159v0c-21 0 -39 -9 -53 -26s-21 -37 -21 -58v0c0 -46 15 -71 44 -75v0zM525 42v0h-140c-91 0 -152 17 -184 52c-32 34 -48 81 -48 140v0c0 78 15 154 46 227v0c39 100 98 150 178 150v0h15c51 0 97 -26 140 -78v0
c56 -67 95 -157 118 -270v0c8 -48 13 -101 14 -159v0h1v-51c0 -143 -35 -265 -106 -367v0c-63 -100 -154 -153 -274 -158v0c-119 11 -208 45 -268 100v0c-9 9 -13 16 -13 21v0c0 7 7 11 20 13v0c173 33 310 92 412 179v0c61 52 92 107 92 166v0v13c0 6 -1 13 -3 22zM324 741
v0l-23 42c49 31 80 56 91 76s17 42 17 65v0c0 13 -6 20 -17 20v0l-20 -5c-33 0 -58 11 -75 34c-18 23 -27 51 -27 84v0c0 31 12 57 36 80c23 23 52 34 85 34v0c41 0 75 -16 104 -49s43 -73 43 -122v0c0 -55 -17 -103 -51 -144s-88 -79 -163 -115zM1096 964v0v-112l-439 -222
v130l138 66c-59 27 -95 61 -108 101v0c-7 21 -11 43 -11 64v0c0 19 3 37 8 55v0c11 39 37 73 77 104c39 31 79 46 119 46v0c41 0 78 -8 113 -23c34 -16 65 -35 92 -58v0v-63c-65 18 -118 27 -159 27v0c-36 0 -62 -7 -78 -21v0c-26 -23 -39 -47 -39 -70v0c0 -8 2 -16 5 -24v0
c11 -32 34 -53 67 -62v0c5 -2 12 -3 19 -3v0c38 0 103 22 196 65z" />
    <glyph glyph-name="uniFBDE" unicode="&#x6cb;" horiz-adv-x="799" arabic-form="isolated" 
d="M334 261h182c-32 106 -83 159 -152 159v0c-21 0 -39 -9 -53 -26s-21 -37 -21 -58v0c0 -46 15 -71 44 -75v0zM555 42v0h-140c-91 0 -152 17 -184 52c-32 34 -48 81 -48 140v0c0 78 15 154 46 227v0c39 100 98 150 178 150v0h15c51 0 97 -26 140 -78v0
c56 -67 95 -157 118 -270v0c8 -48 13 -101 14 -159v0h1v-51c0 -143 -35 -265 -106 -367v0c-63 -100 -154 -153 -274 -158v0c-119 11 -208 45 -268 100v0c-9 9 -13 16 -13 21v0c0 7 7 11 20 13v0c173 33 310 92 412 179v0c61 52 92 107 92 166v0v13c0 6 -1 13 -3 22zM413 938
l-130 129l127 127l129 -129zM225 695l-130 129l127 127l129 -129zM602 699l-130 129l127 127l129 -129z" />
    <glyph glyph-name="uniFBDF" unicode="&#x6cb;" horiz-adv-x="899" arabic-form="final" 
d="M328 261h182c-32 106 -83 159 -152 159v0c-21 0 -39 -9 -53 -26s-21 -37 -21 -58v0c0 -46 15 -71 44 -75v0zM674 263v-2h248v-219h-233c-2 -138 -37 -257 -106 -357v0c-63 -100 -154 -153 -274 -158v0c-119 11 -208 45 -268 100v0c-9 9 -13 16 -13 21v0c0 7 7 11 20 13v0
c173 33 310 92 412 179v0c61 52 92 108 92 167v0v13c0 6 -1 13 -3 22v0h-140c-91 0 -152 17 -184 52c-32 34 -48 81 -48 140v0c0 78 15 154 46 227v0c39 100 98 150 178 150v0h15c51 0 97 -26 140 -78v0c56 -67 95 -157 118 -270v0zM417 942l-130 129l127 127l129 -129z
M229 699l-130 129l127 127l129 -129zM606 703l-130 129l127 127l129 -129z" />
    <glyph glyph-name="uniFBE0" unicode="&#x6c5;" horiz-adv-x="800" arabic-form="isolated" 
d="M200 -172c-29 -17 -44 -36 -44 -56v0c0 -21 5 -37 16 -49v0c9 -11 29 -16 60 -16v0h16c39 2 79 15 119 38c39 23 70 42 91 59v0c-59 33 -109 50 -151 50v0c-42 0 -78 -9 -107 -26zM579 -2v0v43h-148c-155 0 -232 63 -232 189v0v3c0 78 15 154 44 227v0
c40 100 105 150 195 150v0c51 0 97 -26 138 -78v0c57 -69 97 -159 120 -270v0c9 -51 13 -114 13 -191v0v-30c0 -88 -16 -169 -47 -242v0c-49 -96 -111 -165 -185 -208c-75 -43 -149 -64 -224 -64v0c-75 0 -135 22 -178 66v0c-37 37 -55 84 -55 140v0c0 11 1 23 2 35v0
c0 24 7 53 21 86v0c40 57 96 89 167 95v0c15 3 30 5 45 5v0c17 0 33 -2 50 -6v0c71 -9 142 -38 214 -89v0c33 43 53 90 60 139zM350 260h182c-33 106 -84 159 -155 159v0c-19 0 -36 -9 -50 -26v0c-14 -17 -21 -35 -21 -55v0v-3c0 -46 15 -71 44 -75v0z" />
    <glyph glyph-name="uniFBE1" unicode="&#x6c5;" horiz-adv-x="799" arabic-form="final" 
d="M147 -228v0c0 -21 5 -37 16 -49v0c9 -11 29 -16 60 -16v0h16c39 2 79 15 119 38c39 23 70 42 91 59v0c-59 33 -109 50 -151 50v0c-42 0 -78 -9 -107 -26s-44 -36 -44 -56zM341 261h182c-33 106 -84 159 -155 159v0c-19 0 -36 -9 -50 -26v0c-14 -17 -21 -35 -21 -55v0v-3
c0 -46 15 -71 44 -75v0zM822 42h-122c0 -89 -16 -170 -47 -243v0c-49 -96 -111 -165 -185 -208c-75 -43 -149 -64 -224 -64v0c-75 0 -135 22 -178 66v0c-37 37 -55 84 -55 140v0c0 11 1 23 2 35v0c0 24 7 53 21 86v0c40 58 96 90 167 96v0c15 3 30 5 45 5v0
c17 0 33 -2 50 -6v0c71 -9 142 -39 214 -90v0c33 43 53 90 60 140v0v43h-148c-155 0 -232 63 -232 189v0v3c0 78 15 154 44 227v0c40 100 105 150 195 150v0c51 0 97 -26 138 -78v0c57 -69 97 -159 120 -270v0v-2h135v-219z" />
    <glyph glyph-name="uniFBE2" unicode="&#x6c9;" horiz-adv-x="799" arabic-form="isolated" 
d="M334 261h182c-32 106 -83 159 -152 159v0c-21 0 -39 -9 -53 -26s-21 -37 -21 -58v0c0 -46 15 -71 44 -75v0zM555 42v0h-140c-91 0 -152 17 -184 52c-32 34 -48 81 -48 140v0c0 78 15 154 46 227v0c39 100 98 150 178 150v0h15c51 0 97 -26 140 -78v0
c56 -67 95 -157 118 -270v0c8 -48 13 -101 14 -159v0h1v-51c0 -143 -35 -265 -106 -367v0c-63 -100 -154 -153 -274 -158v0c-119 11 -208 45 -268 100v0c-9 9 -13 16 -13 21v0c0 7 7 11 20 13v0c173 33 310 92 412 179v0c61 52 92 107 92 166v0v13c0 6 -1 13 -3 22zM671 805
l-63 -64c-3 -3 -7 -5 -10 -5v0c-4 0 -8 3 -12 8v0l-158 194c-3 5 -7 7 -11 7v0c-3 0 -7 -2 -11 -7v0l-155 -192c-4 -5 -8 -8 -12 -8v0c-3 0 -7 2 -10 5v0l-66 67c-4 4 -6 8 -6 12v0c0 3 1 6 3 9v0l250 307c3 3 5 5 8 5v0c3 0 5 -2 8 -5v0l248 -312c2 -3 3 -6 3 -9v0
c0 -4 -2 -8 -6 -12v0z" />
    <glyph glyph-name="uniFBE3" unicode="&#x6c9;" horiz-adv-x="899" arabic-form="final" 
d="M328 261h182c-32 106 -83 159 -152 159v0c-21 0 -39 -9 -53 -26s-21 -37 -21 -58v0c0 -46 15 -71 44 -75v0zM674 263v-2h248v-219h-233c-2 -138 -37 -257 -106 -357v0c-63 -100 -154 -153 -274 -158v0c-119 11 -208 45 -268 100v0c-9 9 -13 16 -13 21v0c0 7 7 11 20 13v0
c173 33 310 92 412 179v0c61 52 92 108 92 167v0v13c0 6 -1 13 -3 22v0h-140c-91 0 -152 17 -184 52c-32 34 -48 81 -48 140v0c0 78 15 154 46 227v0c39 100 98 150 178 150v0h15c51 0 97 -26 140 -78v0c56 -67 95 -157 118 -270v0zM663 803l-63 -64c-3 -3 -7 -5 -10 -5v0
c-4 0 -8 3 -12 8v0l-158 194c-3 5 -7 7 -11 7v0c-3 0 -7 -2 -11 -7v0l-155 -192c-4 -5 -8 -8 -12 -8v0c-3 0 -7 2 -10 5v0l-66 67c-4 4 -6 8 -6 12v0c0 3 1 6 3 9v0l250 307c3 3 5 5 8 5v0c3 0 5 -2 8 -5v0l248 -312c2 -3 3 -6 3 -9v0c0 -4 -2 -8 -6 -12v0z" />
    <glyph glyph-name="uniFBE4" unicode="&#x6d0;" horiz-adv-x="1200" arabic-form="isolated" 
d="M1122 809v0c-10 -63 -20 -116 -31 -157v0c-11 -22 -30 -34 -57 -36v0c-73 -15 -137 -37 -194 -68v0c-26 -23 -39 -44 -39 -65v0c0 -2 0 -4 1 -6v0c3 -23 27 -37 70 -42v0c39 -6 82 -18 131 -35v0c59 -24 89 -67 89 -129v0c0 -5 0 -11 -1 -16v0
c-7 -167 -72 -296 -197 -386c-125 -91 -282 -137 -473 -138v0c-279 13 -418 143 -418 389v0v15c1 123 41 254 120 393v0c6 4 11 6 14 6v0c7 0 10 -6 10 -18v0c0 -3 0 -7 -1 -10v0c-30 -81 -48 -155 -55 -221v0c11 -213 132 -327 363 -340v0h55c109 1 211 21 304 60
s143 88 150 148v0c-11 41 -58 64 -140 67v0c-97 13 -146 65 -146 156v0c9 215 150 362 422 441v0c5 3 9 5 12 5v0c7 0 10 -4 11 -13zM548 -491l-117 103l114 101l116 -103zM552 -718l-117 103l114 101l116 -103z" />
    <glyph glyph-name="uniFBE5" unicode="&#x6d0;" horiz-adv-x="1099" arabic-form="final" 
d="M442 -701l94 76l-95 75l98 77l102 -78l-95 -76l96 -75l-100 -81zM812 10v0c-1 -3 -1 -5 -1 -7v0c0 -11 10 -21 29 -28v0l124 -1c57 -2 85 -32 85 -90v0c-6 -84 -42 -153 -107 -208s-130 -91 -194 -108v0c-56 -13 -108 -21 -155 -24v0c-20 -1 -40 -2 -60 -2v0
c-30 0 -60 1 -91 4v0c-53 4 -110 14 -171 30c-61 15 -120 54 -176 115s-87 137 -93 230v0v27c0 103 35 215 106 335v0c3 1 6 2 10 2v0c5 0 8 -8 8 -24v0c-22 -55 -34 -110 -36 -163v0c-3 -27 -4 -52 -4 -75v0c0 -65 18 -116 53 -153v0c45 -46 97 -75 156 -86
c59 -12 138 -18 237 -19v0h34c81 0 139 2 174 7v0c39 5 69 10 91 16c22 5 51 16 88 32v0c3 8 4 15 4 21v0c0 17 -9 27 -28 30v0h-103c-57 8 -89 39 -97 94v0v8c0 66 20 129 61 188v0c42 61 110 95 204 100v0h153v-219h-252c-31 -7 -47 -17 -49 -32z" />
    <glyph glyph-name="uniFBE6" unicode="&#x6d0;" horiz-adv-x="600" arabic-form="initial" 
d="M516 376v0v-20c0 -39 -5 -81 -14 -124v0c-12 -52 -38 -98 -79 -139v0c-37 -33 -101 -50 -192 -50v0l-235 2v216h277c45 9 69 26 70 53v0v3c0 35 -20 90 -61 164v0l-51 68l154 154c81 -107 124 -216 131 -327zM267 -350l-130 129l127 127l129 -129zM270 -617l-130 129
l127 127l129 -129z" />
    <glyph glyph-name="uniFBE7" unicode="&#x6d0;" horiz-adv-x="599" arabic-form="medial" 
d="M626 261v-219h-90c-30 0 -65 11 -106 33c-41 21 -82 76 -123 164v0c-29 -72 -61 -124 -98 -156v0c-31 -27 -68 -41 -112 -41v0h-101v219h98c27 0 49 4 68 13v0c21 10 41 33 60 69s41 96 64 180v0c3 13 8 20 16 20v0c7 0 12 -7 17 -21v0c21 -81 41 -138 62 -169
c21 -32 44 -56 71 -71v0c24 -14 59 -21 104 -21v0h70zM312 -351l-130 129l127 127l129 -129zM316 -622l-130 129l127 127l129 -129z" />
    <glyph glyph-name="uniFBE8" unicode="&#x649;" horiz-adv-x="600" arabic-form="initial" 
d="M516 376v0v-20c0 -39 -5 -81 -14 -124v0c-12 -52 -38 -98 -79 -139v0c-37 -33 -101 -50 -192 -50v0l-235 2v216h277c45 9 69 26 70 53v0v3c0 35 -20 90 -61 164v0l-51 68l154 154c81 -107 124 -216 131 -327z" />
    <glyph glyph-name="uniFBE9" unicode="&#x649;" horiz-adv-x="599" arabic-form="medial" 
d="M616 261v-219h-90c-30 0 -65 11 -106 33c-41 21 -82 76 -123 164v0c-29 -72 -61 -124 -98 -156v0c-31 -27 -68 -41 -112 -41v0h-101v219h98c27 0 49 4 68 13v0c21 10 41 33 60 69s41 96 64 180v0c3 13 8 20 16 20v0c7 0 12 -7 17 -21v0c21 -81 41 -138 62 -169
c21 -32 44 -56 71 -71v0c24 -14 59 -21 104 -21v0h70z" />
    <glyph glyph-name="uniFBEA" unicode="&#xfbea;" horiz-adv-x="1099" arabic-form="isolated" 
d="M986 964v0v-112l-439 -222v130l138 66c-59 27 -95 61 -108 101v0c-7 21 -11 43 -11 64v0c0 19 3 37 8 55v0c11 39 37 73 77 104c39 31 79 46 119 46v0c41 0 78 -8 113 -23c34 -16 65 -35 92 -58v0v-63c-65 18 -118 27 -159 27v0c-36 0 -62 -7 -78 -21v0
c-26 -23 -39 -47 -39 -70v0c0 -8 2 -16 5 -24v0c11 -32 34 -53 67 -62v0c5 -2 12 -3 19 -3v0c38 0 103 22 196 65zM1045 376v0v-20c0 -39 -5 -81 -14 -124v0c-12 -52 -38 -98 -79 -139v0c-37 -33 -101 -50 -192 -50v0l-235 2v216h277c45 9 69 26 70 53v0v3
c0 35 -20 90 -61 164v0l-51 68l154 154c81 -107 124 -216 131 -327zM525 261v-219h-183c-61 4 -110 22 -147 53s-56 78 -57 139v0l2 895c-3 60 -18 106 -44 139v0l185 182c8 8 14 12 18 12v0c5 0 8 -6 8 -18v0l-1 -1050v-14c0 -79 32 -119 96 -119v0h123z" />
    <glyph glyph-name="uniFBEB" unicode="&#xfbeb;" horiz-adv-x="1099" arabic-form="final" 
d="M1120 261v-219h-90c-30 0 -65 11 -106 33c-41 21 -82 76 -123 164v0c-29 -72 -61 -124 -98 -156v0c-31 -27 -68 -41 -112 -41v0h-101v219h98c27 0 49 4 68 13v0c21 10 41 33 60 69s41 96 64 180v0c3 13 8 20 16 20v0c7 0 12 -7 17 -21v0c21 -81 41 -138 62 -169
c21 -32 44 -56 71 -71v0c24 -14 59 -21 104 -21v0h70zM1004 963v0v-111l-438 -223v130l138 66c-59 28 -95 62 -108 103v0c-7 21 -11 43 -11 64v0c0 18 3 36 8 54v0c11 39 37 73 76 104s79 46 119 46v0c41 0 78 -8 113 -23c34 -16 64 -40 91 -71v0l1 -49
c-65 17 -117 26 -157 26v0c-37 0 -64 -7 -80 -22v0c-25 -23 -38 -46 -38 -70v0c0 -8 1 -16 4 -24v0c11 -32 34 -52 68 -61v0c5 -2 11 -3 18 -3v0c38 0 103 21 196 64zM505 261v-219h-183c-61 4 -110 22 -147 53s-56 78 -57 139v0l2 895c-3 60 -18 106 -44 139v0l185 182
c8 8 14 12 18 12v0c5 0 8 -6 8 -18v0l-1 -1050v-14c0 -79 32 -119 96 -119v0h123z" />
    <glyph glyph-name="uniFBEC" unicode="&#xfbec;" horiz-adv-x="1400" arabic-form="isolated" 
d="M1295 964v0v-112l-439 -222v130l138 66c-59 27 -95 61 -108 101v0c-7 21 -11 43 -11 64v0c0 19 3 37 8 55v0c11 39 37 73 77 104c39 31 79 46 119 46v0c41 0 78 -8 113 -23c34 -16 65 -35 92 -58v0v-63c-65 18 -118 27 -159 27v0c-36 0 -62 -7 -78 -21v0
c-26 -23 -39 -47 -39 -70v0c0 -8 2 -16 5 -24v0c11 -32 34 -53 67 -62v0c5 -2 12 -3 19 -3v0c38 0 103 22 196 65zM1354 376v0v-20c0 -39 -5 -81 -14 -124v0c-12 -52 -38 -98 -79 -139v0c-37 -33 -101 -50 -192 -50v0l-235 2v216h277c45 9 69 26 70 53v0v3
c0 35 -20 90 -61 164v0l-51 68l154 154c81 -107 124 -216 131 -327zM834 261v-219h-193c-101 5 -166 54 -194 145v0c-59 -50 -125 -75 -197 -75v0c-44 0 -81 10 -111 31v0c-37 23 -55 57 -55 100v0c0 62 18 122 55 181c37 58 78 109 123 154v0c33 33 80 63 139 90v0v99
l182 125v-530c2 -67 44 -101 125 -101v0h126zM401 362v0v180c-31 -11 -67 -38 -108 -79c-41 -42 -63 -80 -65 -115v0v-6c0 -31 16 -48 48 -51v0c2 -1 4 -1 7 -1v0c33 0 72 24 118 72z" />
    <glyph glyph-name="uniFBED" unicode="&#xfbed;" horiz-adv-x="1444" arabic-form="final" 
d="M1457 261v-219h-90c-30 0 -65 11 -106 33c-41 21 -82 76 -123 164v0c-29 -72 -61 -124 -98 -156v0c-31 -27 -68 -41 -112 -41v0h-101v219h98c27 0 49 4 68 13v0c21 10 41 33 60 69s41 96 64 180v0c3 13 8 20 16 20v0c7 0 12 -7 17 -21v0c21 -81 41 -138 62 -169
c21 -32 44 -56 71 -71v0c24 -14 59 -21 104 -21v0h70zM1341 963v0v-111l-438 -223v130l138 66c-59 28 -95 62 -108 103v0c-7 21 -11 43 -11 64v0c0 18 3 36 8 54v0c11 39 37 73 76 104s79 46 119 46v0c41 0 78 -8 113 -23c34 -16 64 -40 91 -71v0l1 -49
c-65 17 -117 26 -157 26v0c-37 0 -64 -7 -80 -22v0c-25 -23 -38 -46 -38 -70v0c0 -8 1 -16 4 -24v0c11 -32 34 -52 68 -61v0c5 -2 11 -3 18 -3v0c38 0 103 21 196 64zM834 261v-219h-193c-101 5 -166 54 -194 145v0c-59 -50 -125 -75 -197 -75v0c-44 0 -81 10 -111 31v0
c-37 23 -55 57 -55 100v0c0 62 18 122 55 181c37 58 78 109 123 154v0c33 33 80 63 139 90v0v99l182 125v-530c2 -67 44 -101 125 -101v0h126zM401 362v0v180c-31 -11 -67 -38 -108 -79c-41 -42 -63 -80 -65 -115v0v-6c0 -31 16 -48 48 -51v0c2 -1 4 -1 7 -1v0
c33 0 72 24 118 72z" />
    <glyph glyph-name="uniFBEE" unicode="&#xfbee;" horiz-adv-x="1399" arabic-form="isolated" 
d="M328 261h182c-32 106 -83 159 -152 159v0c-21 0 -39 -9 -53 -26s-21 -37 -21 -58v0c0 -46 15 -71 44 -75v0zM674 263v-2h248v-219h-233c-2 -138 -37 -257 -106 -357v0c-63 -100 -154 -153 -274 -158v0c-119 11 -208 45 -268 100v0c-9 9 -13 16 -13 21v0c0 7 7 11 20 13v0
c173 33 310 92 412 179v0c61 52 92 108 92 167v0v13c0 6 -1 13 -3 22v0h-140c-91 0 -152 17 -184 52c-32 34 -48 81 -48 140v0c0 78 15 154 46 227v0c39 100 98 150 178 150v0h15c51 0 97 -26 140 -78v0c56 -67 95 -157 118 -270v0zM1279 964v0v-112l-439 -222v130l138 66
c-59 27 -95 61 -108 101v0c-7 21 -11 43 -11 64v0c0 19 3 37 8 55v0c11 39 37 73 77 104c39 31 79 46 119 46v0c41 0 78 -8 113 -23c34 -16 65 -35 92 -58v0v-63c-65 18 -118 27 -159 27v0c-36 0 -62 -7 -78 -21v0c-26 -23 -39 -47 -39 -70v0c0 -8 2 -16 5 -24v0
c11 -32 34 -53 67 -62v0c5 -2 12 -3 19 -3v0c38 0 103 22 196 65zM1338 376v0v-20c0 -39 -5 -81 -14 -124v0c-12 -52 -38 -98 -79 -139v0c-37 -33 -101 -50 -192 -50v0l-235 2v216h277c45 9 69 26 70 53v0v3c0 35 -20 90 -61 164v0l-51 68l154 154
c81 -107 124 -216 131 -327z" />
    <glyph glyph-name="uniFBEF" unicode="&#xfbef;" horiz-adv-x="1399" arabic-form="final" 
d="M308 261h182c-32 106 -83 159 -152 159v0c-21 0 -39 -9 -53 -26s-21 -37 -21 -58v0c0 -46 15 -71 44 -75v0zM654 263v-2h248v-219h-233c-2 -138 -37 -257 -106 -357v0c-63 -100 -154 -153 -274 -158v0c-119 11 -208 45 -268 100v0c-9 9 -13 16 -13 21v0c0 7 7 11 20 13v0
c173 33 310 92 412 179v0c61 52 92 108 92 167v0v13c0 6 -1 13 -3 22v0h-140c-91 0 -152 17 -184 52c-32 34 -48 81 -48 140v0c0 78 15 154 46 227v0c39 100 98 150 178 150v0h15c51 0 97 -26 140 -78v0c56 -67 95 -157 118 -270v0zM1427 261v-219h-90c-30 0 -65 11 -106 33
c-41 21 -82 76 -123 164v0c-29 -72 -61 -124 -98 -156v0c-31 -27 -68 -41 -112 -41v0h-101v219h98c27 0 49 4 68 13v0c21 10 41 33 60 69s41 96 64 180v0c3 13 8 20 16 20v0c7 0 12 -7 17 -21v0c21 -81 41 -138 62 -169c21 -32 44 -56 71 -71v0c24 -14 59 -21 104 -21v0h70z
M1311 963v0v-111l-438 -223v130l138 66c-59 28 -95 62 -108 103v0c-7 21 -11 43 -11 64v0c0 18 3 36 8 54v0c11 39 37 73 76 104s79 46 119 46v0c41 0 78 -8 113 -23c34 -16 64 -40 91 -71v0l1 -49c-65 17 -117 26 -157 26v0c-37 0 -64 -7 -80 -22v0
c-25 -23 -38 -46 -38 -70v0c0 -8 1 -16 4 -24v0c11 -32 34 -52 68 -61v0c5 -2 11 -3 18 -3v0c38 0 103 21 196 64z" />
    <glyph glyph-name="uniFBF0" unicode="&#xfbf0;" horiz-adv-x="1399" arabic-form="isolated" 
d="M308 261h182c-32 106 -83 159 -152 159v0c-21 0 -39 -9 -53 -26s-21 -37 -21 -58v0c0 -46 15 -71 44 -75v0zM654 263v-2h248v-219h-233c-2 -138 -37 -257 -106 -357v0c-63 -100 -154 -153 -274 -158v0c-119 11 -208 45 -268 100v0c-9 9 -13 16 -13 21v0c0 7 7 11 20 13v0
c173 33 310 92 412 179v0c61 52 92 108 92 167v0v13c0 6 -1 13 -3 22v0h-140c-91 0 -152 17 -184 52c-32 34 -48 81 -48 140v0c0 78 15 154 46 227v0c39 100 98 150 178 150v0h15c51 0 97 -26 140 -78v0c56 -67 95 -157 118 -270v0zM312 741v0l-23 42c49 31 80 56 91 76
s17 42 17 65v0c0 13 -6 20 -17 20v0l-20 -5c-33 0 -58 11 -75 34c-18 23 -27 51 -27 84v0c0 31 12 57 36 80c23 23 52 34 85 34v0c41 0 75 -16 104 -49s43 -73 43 -122v0c0 -55 -17 -103 -51 -144s-88 -79 -163 -115zM1276 964v0v-112l-439 -222v130l138 66
c-59 27 -95 61 -108 101v0c-7 21 -11 43 -11 64v0c0 19 3 37 8 55v0c11 39 37 73 77 104c39 31 79 46 119 46v0c41 0 78 -8 113 -23c34 -16 65 -35 92 -58v0v-63c-65 18 -118 27 -159 27v0c-36 0 -62 -7 -78 -21v0c-26 -23 -39 -47 -39 -70v0c0 -8 2 -16 5 -24v0
c11 -32 34 -53 67 -62v0c5 -2 12 -3 19 -3v0c38 0 103 22 196 65zM1335 376v0v-20c0 -39 -5 -81 -14 -124v0c-12 -52 -38 -98 -79 -139v0c-37 -33 -101 -50 -192 -50v0l-235 2v216h277c45 9 69 26 70 53v0v3c0 35 -20 90 -61 164v0l-51 68l154 154
c81 -107 124 -216 131 -327z" />
    <glyph glyph-name="uniFBF1" unicode="&#xfbf1;" horiz-adv-x="1399" arabic-form="final" 
d="M308 261h182c-32 106 -83 159 -152 159v0c-21 0 -39 -9 -53 -26s-21 -37 -21 -58v0c0 -46 15 -71 44 -75v0zM654 263v-2h248v-219h-233c-2 -138 -37 -257 -106 -357v0c-63 -100 -154 -153 -274 -158v0c-119 11 -208 45 -268 100v0c-9 9 -13 16 -13 21v0c0 7 7 11 20 13v0
c173 33 310 92 412 179v0c61 52 92 108 92 167v0v13c0 6 -1 13 -3 22v0h-140c-91 0 -152 17 -184 52c-32 34 -48 81 -48 140v0c0 78 15 154 46 227v0c39 100 98 150 178 150v0h15c51 0 97 -26 140 -78v0c56 -67 95 -157 118 -270v0zM312 741v0l-23 42c49 31 80 56 91 76
s17 42 17 65v0c0 13 -6 20 -17 20v0l-20 -5c-33 0 -58 11 -75 34c-18 23 -27 51 -27 84v0c0 31 12 57 36 80c23 23 52 34 85 34v0c41 0 75 -16 104 -49s43 -73 43 -122v0c0 -55 -17 -103 -51 -144s-88 -79 -163 -115zM1427 261v-219h-90c-30 0 -65 11 -106 33
c-41 21 -82 76 -123 164v0c-29 -72 -61 -124 -98 -156v0c-31 -27 -68 -41 -112 -41v0h-101v219h98c27 0 49 4 68 13v0c21 10 41 33 60 69s41 96 64 180v0c3 13 8 20 16 20v0c7 0 12 -7 17 -21v0c21 -81 41 -138 62 -169c21 -32 44 -56 71 -71v0c24 -14 59 -21 104 -21v0h70z
M1311 963v0v-111l-438 -223v130l138 66c-59 28 -95 62 -108 103v0c-7 21 -11 43 -11 64v0c0 18 3 36 8 54v0c11 39 37 73 76 104s79 46 119 46v0c41 0 78 -8 113 -23c34 -16 64 -40 91 -71v0l1 -49c-65 17 -117 26 -157 26v0c-37 0 -64 -7 -80 -22v0
c-25 -23 -38 -46 -38 -70v0c0 -8 1 -16 4 -24v0c11 -32 34 -52 68 -61v0c5 -2 11 -3 18 -3v0c38 0 103 21 196 64z" />
    <glyph glyph-name="uniFBF2" unicode="&#xfbf2;" horiz-adv-x="1399" arabic-form="isolated" 
d="M308 261h182c-32 106 -83 159 -152 159v0c-21 0 -39 -9 -53 -26s-21 -37 -21 -58v0c0 -46 15 -71 44 -75v0zM654 263v-2h248v-219h-233c-2 -138 -37 -257 -106 -357v0c-63 -100 -154 -153 -274 -158v0c-119 11 -208 45 -268 100v0c-9 9 -13 16 -13 21v0c0 7 7 11 20 13v0
c173 33 310 92 412 179v0c61 52 92 108 92 167v0v13c0 6 -1 13 -3 22v0h-140c-91 0 -152 17 -184 52c-32 34 -48 81 -48 140v0c0 78 15 154 46 227v0c39 100 98 150 178 150v0h15c51 0 97 -26 140 -78v0c56 -67 95 -157 118 -270v0zM582 1145l63 -64c4 -4 6 -8 6 -12v0
c0 -3 -1 -6 -3 -9v0l-248 -312c-3 -3 -5 -5 -8 -5v0c-3 0 -5 2 -8 5v0l-250 307c-2 3 -3 6 -3 9v0c0 4 2 8 6 12v0l66 67c3 3 7 5 10 5v0c4 0 8 -3 12 -8v0l155 -192c4 -5 8 -7 11 -7v0c4 0 8 2 11 7v0l158 194c4 5 8 8 12 8v0c3 0 7 -2 10 -5v0zM1272 964v0v-112l-439 -222
v130l138 66c-59 27 -95 61 -108 101v0c-7 21 -11 43 -11 64v0c0 19 3 37 8 55v0c11 39 37 73 77 104c39 31 79 46 119 46v0c41 0 78 -8 113 -23c34 -16 65 -35 92 -58v0v-63c-65 18 -118 27 -159 27v0c-36 0 -62 -7 -78 -21v0c-26 -23 -39 -47 -39 -70v0c0 -8 2 -16 5 -24v0
c11 -32 34 -53 67 -62v0c5 -2 12 -3 19 -3v0c38 0 103 22 196 65zM1331 376v0v-20c0 -39 -5 -81 -14 -124v0c-12 -52 -38 -98 -79 -139v0c-37 -33 -101 -50 -192 -50v0l-235 2v216h277c45 9 69 26 70 53v0v3c0 35 -20 90 -61 164v0l-51 68l154 154
c81 -107 124 -216 131 -327z" />
    <glyph glyph-name="uniFBF3" unicode="&#xfbf3;" horiz-adv-x="1399" arabic-form="final" 
d="M308 261h182c-32 106 -83 159 -152 159v0c-21 0 -39 -9 -53 -26s-21 -37 -21 -58v0c0 -46 15 -71 44 -75v0zM654 263v-2h248v-219h-233c-2 -138 -37 -257 -106 -357v0c-63 -100 -154 -153 -274 -158v0c-119 11 -208 45 -268 100v0c-9 9 -13 16 -13 21v0c0 7 7 11 20 13v0
c173 33 310 92 412 179v0c61 52 92 108 92 167v0v13c0 6 -1 13 -3 22v0h-140c-91 0 -152 17 -184 52c-32 34 -48 81 -48 140v0c0 78 15 154 46 227v0c39 100 98 150 178 150v0h15c51 0 97 -26 140 -78v0c56 -67 95 -157 118 -270v0zM582 1145l63 -64c4 -4 6 -8 6 -12v0
c0 -3 -1 -6 -3 -9v0l-248 -312c-3 -3 -5 -5 -8 -5v0c-3 0 -5 2 -8 5v0l-250 307c-2 3 -3 6 -3 9v0c0 4 2 8 6 12v0l66 67c3 3 7 5 10 5v0c4 0 8 -3 12 -8v0l155 -192c4 -5 8 -7 11 -7v0c4 0 8 2 11 7v0l158 194c4 5 8 8 12 8v0c3 0 7 -2 10 -5v0zM1430 261v-219h-90
c-30 0 -65 11 -106 33c-41 21 -82 76 -123 164v0c-29 -72 -61 -124 -98 -156v0c-31 -27 -68 -41 -112 -41v0h-101v219h98c27 0 49 4 68 13v0c21 10 41 33 60 69s41 96 64 180v0c3 13 8 20 16 20v0c7 0 12 -7 17 -21v0c21 -81 41 -138 62 -169c21 -32 44 -56 71 -71v0
c24 -14 59 -21 104 -21v0h70zM1314 963v0v-111l-438 -223v130l138 66c-59 28 -95 62 -108 103v0c-7 21 -11 43 -11 64v0c0 18 3 36 8 54v0c11 39 37 73 76 104s79 46 119 46v0c41 0 78 -8 113 -23c34 -16 64 -40 91 -71v0l1 -49c-65 17 -117 26 -157 26v0
c-37 0 -64 -7 -80 -22v0c-25 -23 -38 -46 -38 -70v0c0 -8 1 -16 4 -24v0c11 -32 34 -52 68 -61v0c5 -2 11 -3 18 -3v0c38 0 103 21 196 64z" />
    <glyph glyph-name="uniFBF4" unicode="&#xfbf4;" horiz-adv-x="1399" arabic-form="isolated" 
d="M308 261h182c-32 106 -83 159 -152 159v0c-21 0 -39 -9 -53 -26s-21 -37 -21 -58v0c0 -46 15 -71 44 -75v0zM654 263v-2h248v-219h-233c-2 -138 -37 -257 -106 -357v0c-63 -100 -154 -153 -274 -158v0c-119 11 -208 45 -268 100v0c-9 9 -13 16 -13 21v0c0 7 7 11 20 13v0
c173 33 310 92 412 179v0c61 52 92 108 92 167v0v13c0 6 -1 13 -3 22v0h-140c-91 0 -152 17 -184 52c-32 34 -48 81 -48 140v0c0 78 15 154 46 227v0c39 100 98 150 178 150v0h15c51 0 97 -26 140 -78v0c56 -67 95 -157 118 -270v0zM449 817c0 -9 -4 -16 -13 -22v0l-80 -57
c-3 -3 -6 -4 -9 -4v0c-3 0 -5 3 -5 8v0v375c0 8 5 15 14 22v0l80 57c3 3 6 4 8 4v0c3 0 5 -3 5 -8v0v-375zM1279 964v0v-112l-439 -222v130l138 66c-59 27 -95 61 -108 101v0c-7 21 -11 43 -11 64v0c0 19 3 37 8 55v0c11 39 37 73 77 104c39 31 79 46 119 46v0
c41 0 78 -8 113 -23c34 -16 65 -35 92 -58v0v-63c-65 18 -118 27 -159 27v0c-36 0 -62 -7 -78 -21v0c-26 -23 -39 -47 -39 -70v0c0 -8 2 -16 5 -24v0c11 -32 34 -53 67 -62v0c5 -2 12 -3 19 -3v0c38 0 103 22 196 65zM1338 376v0v-20c0 -39 -5 -81 -14 -124v0
c-12 -52 -38 -98 -79 -139v0c-37 -33 -101 -50 -192 -50v0l-235 2v216h277c45 9 69 26 70 53v0v3c0 35 -20 90 -61 164v0l-51 68l154 154c81 -107 124 -216 131 -327z" />
    <glyph glyph-name="uniFBF5" unicode="&#xfbf5;" horiz-adv-x="1399" arabic-form="final" 
d="M308 261h182c-32 106 -83 159 -152 159v0c-21 0 -39 -9 -53 -26s-21 -37 -21 -58v0c0 -46 15 -71 44 -75v0zM654 263v-2h248v-219h-233c-2 -138 -37 -257 -106 -357v0c-63 -100 -154 -153 -274 -158v0c-119 11 -208 45 -268 100v0c-9 9 -13 16 -13 21v0c0 7 7 11 20 13v0
c173 33 310 92 412 179v0c61 52 92 108 92 167v0v13c0 6 -1 13 -3 22v0h-140c-91 0 -152 17 -184 52c-32 34 -48 81 -48 140v0c0 78 15 154 46 227v0c39 100 98 150 178 150v0h15c51 0 97 -26 140 -78v0c56 -67 95 -157 118 -270v0zM449 817c0 -9 -4 -16 -13 -22v0l-80 -57
c-3 -3 -6 -4 -9 -4v0c-3 0 -5 3 -5 8v0v375c0 8 5 15 14 22v0l80 57c3 3 6 4 8 4v0c3 0 5 -3 5 -8v0v-375zM1427 261v-219h-90c-30 0 -65 11 -106 33c-41 21 -82 76 -123 164v0c-29 -72 -61 -124 -98 -156v0c-31 -27 -68 -41 -112 -41v0h-101v219h98c27 0 49 4 68 13v0
c21 10 41 33 60 69s41 96 64 180v0c3 13 8 20 16 20v0c7 0 12 -7 17 -21v0c21 -81 41 -138 62 -169c21 -32 44 -56 71 -71v0c24 -14 59 -21 104 -21v0h70zM1311 963v0v-111l-438 -223v130l138 66c-59 28 -95 62 -108 103v0c-7 21 -11 43 -11 64v0c0 18 3 36 8 54v0
c11 39 37 73 76 104s79 46 119 46v0c41 0 78 -8 113 -23c34 -16 64 -40 91 -71v0l1 -49c-65 17 -117 26 -157 26v0c-37 0 -64 -7 -80 -22v0c-25 -23 -38 -46 -38 -70v0c0 -8 1 -16 4 -24v0c11 -32 34 -52 68 -61v0c5 -2 11 -3 18 -3v0c38 0 103 21 196 64z" />
    <glyph glyph-name="uniFBF6" unicode="&#xfbf6;" horiz-adv-x="1601" arabic-form="isolated" 
d="M442 -701l94 76l-95 75l98 77l102 -78l-95 -76l96 -75l-100 -81zM812 10v0c-1 -3 -1 -5 -1 -7v0c0 -11 10 -21 29 -28v0l124 -1c57 -2 85 -32 85 -90v0c-6 -84 -42 -153 -107 -208s-130 -91 -194 -108v0c-56 -13 -108 -21 -155 -24v0c-20 -1 -40 -2 -60 -2v0
c-30 0 -60 1 -91 4v0c-53 4 -110 14 -171 30c-61 15 -120 54 -176 115s-87 137 -93 230v0v27c0 103 35 215 106 335v0c3 1 6 2 10 2v0c5 0 8 -8 8 -24v0c-22 -55 -34 -110 -36 -163v0c-3 -27 -4 -52 -4 -75v0c0 -65 18 -116 53 -153v0c45 -46 97 -75 156 -86
c59 -12 138 -18 237 -19v0h34c81 0 139 2 174 7v0c39 5 69 10 91 16c22 5 51 16 88 32v0c3 8 4 15 4 21v0c0 17 -9 27 -28 30v0h-103c-57 8 -89 39 -97 94v0v8c0 66 20 129 61 188v0c42 61 110 95 204 100v0h153v-219h-252c-31 -7 -47 -17 -49 -32zM1518 964v0v-112
l-439 -222v130l138 66c-59 27 -95 61 -108 101v0c-7 21 -11 43 -11 64v0c0 19 3 37 8 55v0c11 39 37 73 77 104c39 31 79 46 119 46v0c41 0 78 -8 113 -23c34 -16 65 -35 92 -58v0v-63c-65 18 -118 27 -159 27v0c-36 0 -62 -7 -78 -21v0c-26 -23 -39 -47 -39 -70v0
c0 -8 2 -16 5 -24v0c11 -32 34 -53 67 -62v0c5 -2 12 -3 19 -3v0c38 0 103 22 196 65zM1577 376v0v-20c0 -39 -5 -81 -14 -124v0c-12 -52 -38 -98 -79 -139v0c-37 -33 -101 -50 -192 -50v0l-235 2v216h277c45 9 69 26 70 53v0v3c0 35 -20 90 -61 164v0l-51 68l154 154
c81 -107 124 -216 131 -327z" />
    <glyph glyph-name="uniFBF7" unicode="&#xfbf7;" horiz-adv-x="1701" arabic-form="final" 
d="M442 -701l94 76l-95 75l98 77l102 -78l-95 -76l96 -75l-100 -81zM812 10v0c-1 -3 -1 -5 -1 -7v0c0 -11 10 -21 29 -28v0l124 -1c57 -2 85 -32 85 -90v0c-6 -84 -42 -153 -107 -208s-130 -91 -194 -108v0c-56 -13 -108 -21 -155 -24v0c-20 -1 -40 -2 -60 -2v0
c-30 0 -60 1 -91 4v0c-53 4 -110 14 -171 30c-61 15 -120 54 -176 115s-87 137 -93 230v0v27c0 103 35 215 106 335v0c3 1 6 2 10 2v0c5 0 8 -8 8 -24v0c-22 -55 -34 -110 -36 -163v0c-3 -27 -4 -52 -4 -75v0c0 -65 18 -116 53 -153v0c45 -46 97 -75 156 -86
c59 -12 138 -18 237 -19v0h34c81 0 139 2 174 7v0c39 5 69 10 91 16c22 5 51 16 88 32v0c3 8 4 15 4 21v0c0 17 -9 27 -28 30v0h-103c-57 8 -89 39 -97 94v0v8c0 66 20 129 61 188v0c42 61 110 95 204 100v0h153v-219h-252c-31 -7 -47 -17 -49 -32zM1720 261v-219h-90
c-30 0 -65 11 -106 33c-41 21 -82 76 -123 164v0c-29 -72 -61 -124 -98 -156v0c-31 -27 -68 -41 -112 -41v0h-101v219h98c27 0 49 4 68 13v0c21 10 41 33 60 69s41 96 64 180v0c3 13 8 20 16 20v0c7 0 12 -7 17 -21v0c21 -81 41 -138 62 -169c21 -32 44 -56 71 -71v0
c24 -14 59 -21 104 -21v0h70zM1604 963v0v-111l-438 -223v130l138 66c-59 28 -95 62 -108 103v0c-7 21 -11 43 -11 64v0c0 18 3 36 8 54v0c11 39 37 73 76 104s79 46 119 46v0c41 0 78 -8 113 -23c34 -16 64 -40 91 -71v0l1 -49c-65 17 -117 26 -157 26v0
c-37 0 -64 -7 -80 -22v0c-25 -23 -38 -46 -38 -70v0c0 -8 1 -16 4 -24v0c11 -32 34 -52 68 -61v0c5 -2 11 -3 18 -3v0c38 0 103 21 196 64z" />
    <glyph glyph-name="uniFBF8" unicode="&#xfbf8;" horiz-adv-x="1200" arabic-form="initial" 
d="M1075 964v0v-112l-439 -222v130l138 66c-59 27 -95 61 -108 101v0c-7 21 -11 43 -11 64v0c0 19 3 37 8 55v0c11 39 37 73 77 104c39 31 79 46 119 46v0c41 0 78 -8 113 -23c34 -16 65 -35 92 -58v0v-63c-65 18 -118 27 -159 27v0c-36 0 -62 -7 -78 -21v0
c-26 -23 -39 -47 -39 -70v0c0 -8 2 -16 5 -24v0c11 -32 34 -53 67 -62v0c5 -2 12 -3 19 -3v0c38 0 103 22 196 65zM1134 376v0v-20c0 -39 -5 -81 -14 -124v0c-12 -52 -38 -98 -79 -139v0c-37 -33 -101 -50 -192 -50v0l-235 2v216h277c45 9 69 26 70 53v0v3
c0 35 -20 90 -61 164v0l-51 68l154 154c81 -107 124 -216 131 -327zM626 261v-219h-90c-30 0 -65 11 -106 33c-41 21 -82 76 -123 164v0c-29 -72 -61 -124 -98 -156v0c-31 -27 -68 -41 -112 -41v0h-101v219h98c27 0 49 4 68 13v0c21 10 41 33 60 69s41 96 64 180v0
c3 13 8 20 16 20v0c7 0 12 -7 17 -21v0c21 -81 41 -138 62 -169c21 -32 44 -56 71 -71v0c24 -14 59 -21 104 -21v0h70zM312 -351l-130 129l127 127l129 -129zM316 -622l-130 129l127 127l129 -129z" />
    <glyph glyph-name="uniFBF9" unicode="&#xfbf9;" horiz-adv-x="1601" arabic-form="isolated" 
d="M782 0v0c-1 -3 -1 -5 -1 -7v0c0 -18 10 -31 29 -38v0l84 -1c57 -2 85 -35 85 -100v0c-5 -95 -32 -178 -81 -251s-109 -118 -180 -135v0c-56 -13 -106 -20 -149 -20v0l-114 1c-46 0 -104 10 -173 29v0c-72 25 -135 67 -189 126v0c-61 70 -91 169 -91 297v0v27
c0 117 35 235 106 355v0c3 1 6 2 10 2v0c5 0 8 -8 8 -24v0c-22 -55 -34 -110 -36 -163v0c-3 -27 -4 -52 -4 -75v0c0 -85 18 -152 53 -203v0c45 -66 97 -106 156 -121s112 -24 159 -25v0h80c71 0 125 4 162 12v0c41 9 73 21 95 37c22 15 41 38 58 67v0c3 8 4 15 4 21v0
c0 17 -9 27 -28 30v0h-63c-57 8 -89 43 -97 104v0v8c0 79 20 149 61 208v0c42 61 110 95 204 100v0h193v-219h-292c-31 -7 -47 -21 -49 -42zM1515 964v0v-112l-439 -222v130l138 66c-59 27 -95 61 -108 101v0c-7 21 -11 43 -11 64v0c0 19 3 37 8 55v0c11 39 37 73 77 104
c39 31 79 46 119 46v0c41 0 78 -8 113 -23c34 -16 65 -35 92 -58v0v-63c-65 18 -118 27 -159 27v0c-36 0 -62 -7 -78 -21v0c-26 -23 -39 -47 -39 -70v0c0 -8 2 -16 5 -24v0c11 -32 34 -53 67 -62v0c5 -2 12 -3 19 -3v0c38 0 103 22 196 65zM1574 376v0v-20
c0 -39 -5 -81 -14 -124v0c-12 -52 -38 -98 -79 -139v0c-37 -33 -101 -50 -192 -50v0l-235 2v216h277c45 9 69 26 70 53v0v3c0 35 -20 90 -61 164v0l-51 68l154 154c81 -107 124 -216 131 -327z" />
    <glyph glyph-name="uniFBFA" unicode="&#xfbfa;" horiz-adv-x="1701" arabic-form="final" 
d="M782 0v0c-1 -3 -1 -5 -1 -7v0c0 -18 10 -31 29 -38v0l84 -1c57 -2 85 -35 85 -100v0c-5 -95 -32 -178 -81 -251s-109 -118 -180 -135v0c-56 -13 -106 -20 -149 -20v0l-114 1c-46 0 -104 10 -173 29v0c-72 25 -135 67 -189 126v0c-61 70 -91 169 -91 297v0v27
c0 117 35 235 106 355v0c3 1 6 2 10 2v0c5 0 8 -8 8 -24v0c-22 -55 -34 -110 -36 -163v0c-3 -27 -4 -52 -4 -75v0c0 -85 18 -152 53 -203v0c45 -66 97 -106 156 -121s112 -24 159 -25v0h80c71 0 125 4 162 12v0c41 9 73 21 95 37c22 15 41 38 58 67v0c3 8 4 15 4 21v0
c0 17 -9 27 -28 30v0h-63c-57 8 -89 43 -97 104v0v8c0 79 20 149 61 208v0c42 61 110 95 204 100v0h193v-219h-292c-31 -7 -47 -21 -49 -42zM1731 261v-219h-90c-30 0 -65 11 -106 33c-41 21 -82 76 -123 164v0c-29 -72 -61 -124 -98 -156v0c-31 -27 -68 -41 -112 -41v0
h-101v219h98c27 0 49 4 68 13v0c21 10 41 33 60 69s41 96 64 180v0c3 13 8 20 16 20v0c7 0 12 -7 17 -21v0c21 -81 41 -138 62 -169c21 -32 44 -56 71 -71v0c24 -14 59 -21 104 -21v0h70zM1615 963v0v-111l-438 -223v130l138 66c-59 28 -95 62 -108 103v0
c-7 21 -11 43 -11 64v0c0 18 3 36 8 54v0c11 39 37 73 76 104s79 46 119 46v0c41 0 78 -8 113 -23c34 -16 64 -40 91 -71v0l1 -49c-65 17 -117 26 -157 26v0c-37 0 -64 -7 -80 -22v0c-25 -23 -38 -46 -38 -70v0c0 -8 1 -16 4 -24v0c11 -32 34 -52 68 -61v0c5 -2 11 -3 18 -3
v0c38 0 103 21 196 64z" />
    <glyph glyph-name="uniFBFB" unicode="&#xfbfb;" horiz-adv-x="1200" arabic-form="initial" 
d="M1068 964v0v-112l-439 -222v130l138 66c-59 27 -95 61 -108 101v0c-7 21 -11 43 -11 64v0c0 19 3 37 8 55v0c11 39 37 73 77 104c39 31 79 46 119 46v0c41 0 78 -8 113 -23c34 -16 65 -35 92 -58v0v-63c-65 18 -118 27 -159 27v0c-36 0 -62 -7 -78 -21v0
c-26 -23 -39 -47 -39 -70v0c0 -8 2 -16 5 -24v0c11 -32 34 -53 67 -62v0c5 -2 12 -3 19 -3v0c38 0 103 22 196 65zM1127 376v0v-20c0 -39 -5 -81 -14 -124v0c-12 -52 -38 -98 -79 -139v0c-37 -33 -101 -50 -192 -50v0l-235 2v216h277c45 9 69 26 70 53v0v3
c0 35 -20 90 -61 164v0l-51 68l154 154c81 -107 124 -216 131 -327zM626 261v-219h-90c-30 0 -65 11 -106 33c-41 21 -82 76 -123 164v0c-29 -72 -61 -124 -98 -156v0c-31 -27 -68 -41 -112 -41v0h-101v219h98c27 0 49 4 68 13v0c21 10 41 33 60 69s41 96 64 180v0
c3 13 8 20 16 20v0c7 0 12 -7 17 -21v0c21 -81 41 -138 62 -169c21 -32 44 -56 71 -71v0c24 -14 59 -21 104 -21v0h70z" />
    <glyph glyph-name="uniFBFC" unicode="&#x6cc;" horiz-adv-x="1199" arabic-form="isolated" 
d="M1122 809v0c-10 -63 -20 -116 -31 -157v0c-11 -22 -30 -34 -57 -36v0c-73 -15 -137 -37 -194 -68v0c-26 -23 -39 -44 -39 -65v0c0 -2 0 -4 1 -6v0c3 -23 27 -37 70 -42v0c39 -6 82 -18 131 -35v0c59 -24 89 -67 89 -129v0c0 -5 0 -11 -1 -16v0
c-7 -167 -72 -296 -197 -386c-125 -91 -282 -137 -473 -138v0c-279 13 -418 143 -418 389v0v15c1 123 41 254 120 393v0c6 4 11 6 14 6v0c7 0 10 -6 10 -18v0c0 -3 0 -7 -1 -10v0c-30 -81 -48 -155 -55 -221v0c11 -213 132 -327 363 -340v0h55c109 1 211 21 304 60
s143 88 150 148v0c-11 41 -58 64 -140 67v0c-97 13 -146 65 -146 156v0c9 215 150 362 422 441v0c5 3 9 5 12 5v0c7 0 10 -4 11 -13z" />
    <glyph glyph-name="uniFBFD" unicode="&#x6cc;" horiz-adv-x="1099" arabic-form="final" 
d="M782 0v0c-1 -3 -1 -5 -1 -7v0c0 -18 10 -31 29 -38v0l84 -1c57 -2 85 -35 85 -100v0c-5 -95 -32 -178 -81 -251s-109 -118 -180 -135v0c-56 -13 -106 -20 -149 -20v0l-114 1c-46 0 -104 10 -173 29v0c-72 25 -135 67 -189 126v0c-61 70 -91 169 -91 297v0v27
c0 117 35 235 106 355v0c3 1 6 2 10 2v0c5 0 8 -8 8 -24v0c-22 -55 -34 -110 -36 -163v0c-3 -27 -4 -52 -4 -75v0c0 -85 18 -152 53 -203v0c45 -66 97 -106 156 -121s112 -24 159 -25v0h80c71 0 125 4 162 12v0c41 9 73 21 95 37c22 15 41 38 58 67v0c3 8 4 15 4 21v0
c0 17 -9 27 -28 30v0h-63c-57 8 -89 43 -97 104v0v8c0 79 20 149 61 208v0c42 61 110 95 204 100v0h193v-219h-292c-31 -7 -47 -21 -49 -42z" />
    <glyph glyph-name="uniFBFE" unicode="&#x6cc;" horiz-adv-x="700" arabic-form="initial" 
d="M598 375v0v-20c0 -39 -4 -81 -13 -124v0c-12 -52 -38 -98 -79 -139v0c-37 -33 -101 -50 -192 -50v0h-320v219h367c42 8 64 25 65 52v0v3c0 35 -20 90 -61 163v0l-51 69l154 154c81 -107 124 -216 130 -327zM179 -364l-128 129l127 128l130 -130zM465 -364l-128 129
l126 128l131 -130z" />
    <glyph glyph-name="uniFBFF" unicode="&#x6cc;" horiz-adv-x="599" arabic-form="medial" 
d="M460 -357l-130 129l127 127l129 -129zM164 -357l-130 129l127 127l129 -129zM626 261v-219h-90c-30 0 -65 11 -106 33c-41 21 -82 76 -123 164v0c-29 -72 -61 -124 -98 -156v0c-31 -27 -68 -41 -112 -41v0h-101v219h98c27 0 49 4 68 13v0c21 10 41 33 60 69s41 96 64 180
v0c3 13 8 20 16 20v0c7 0 12 -7 17 -21v0c21 -81 41 -138 62 -169c21 -32 44 -56 71 -71v0c24 -14 59 -21 104 -21v0h70z" />
    <glyph glyph-name="uniFC5E" unicode="&#xfc5e;" horiz-adv-x="526" arabic-form="isolated" 
d="M506 1653v0c0 -27 -4 -53 -12 -76c-9 -24 -21 -48 -37 -73v0c11 -7 19 -15 26 -24c6 -9 9 -18 9 -27v0c0 -35 -2 -67 -7 -97v0l-95 74c-34 -40 -72 -71 -114 -93v0c-52 -26 -110 -39 -174 -39v0c29 48 45 75 48 82v0c9 20 13 39 13 56v0c0 18 -4 34 -11 48
c-7 13 -18 20 -31 20v0c-15 0 -29 -9 -42 -27v0c-5 -7 -15 -24 -30 -49v0c5 51 12 88 20 111v0c15 40 39 60 72 60v0c25 0 45 -12 59 -36s21 -52 21 -83v0c0 -15 -2 -31 -5 -46v0c-5 -21 -8 -37 -11 -48v0c51 15 99 39 145 74v0c-12 11 -24 23 -36 36v0
c-19 21 -28 44 -28 67v0c0 35 14 69 42 103v0c32 39 67 58 106 58v0c20 0 37 -7 51 -21s21 -31 21 -50zM427 1588v0c0 17 -4 33 -13 47c-9 13 -20 20 -35 20v0c-16 0 -24 -10 -24 -30v0c0 -13 7 -27 20 -42v0c3 -5 16 -17 38 -37v0c9 14 14 28 14 42zM485 1226v0
c0 -55 -9 -101 -28 -136v0c-21 -39 -51 -59 -88 -59v0c-13 0 -25 2 -36 7c-11 4 -24 11 -38 21v0c-15 -27 -30 -47 -43 -60v0c-23 -23 -48 -35 -74 -35v0c-31 0 -54 11 -69 32s-23 49 -23 86v0c0 19 3 37 8 56c5 18 12 39 22 62v0l23 10c0 -5 -1 -15 -2 -28
c-2 -13 -3 -24 -3 -33v0c0 -16 3 -30 10 -43s17 -20 30 -20v0c31 0 57 21 76 62v0c9 19 20 56 33 111v0l23 6c6 -36 11 -58 14 -66v0c9 -23 24 -34 44 -34v0c28 0 50 18 66 55v0c13 29 20 60 20 92v0l23 6c3 -14 6 -29 9 -46c2 -17 3 -33 3 -46z" />
    <glyph glyph-name="uniFC5F" unicode="&#xfc5f;" horiz-adv-x="469" arabic-form="isolated" 
d="M449 1550v0c0 -55 -9 -101 -28 -136v0c-21 -39 -51 -59 -88 -59v0c-13 0 -25 2 -36 7c-11 4 -24 11 -38 21v0c-15 -27 -30 -47 -43 -60v0c-23 -23 -48 -35 -74 -35v0c-31 0 -54 11 -69 32s-23 49 -23 86v0c0 19 3 37 8 56c5 18 12 39 22 62v0l23 10c0 -5 -1 -15 -2 -28
c-2 -13 -3 -24 -3 -33v0c0 -16 3 -30 10 -43s17 -20 30 -20v0c31 0 57 21 76 62v0c9 19 20 56 33 111v0l23 6c6 -36 11 -58 14 -66v0c9 -23 24 -34 44 -34v0c28 0 50 18 66 55v0c13 29 20 60 20 92v0l23 6c3 -14 6 -29 9 -46c2 -17 3 -33 3 -46zM438 1315v0
c0 -33 -19 -66 -56 -98v0c-67 -27 -173 -69 -320 -128v0c0 31 16 62 48 91v0c61 25 171 70 328 135zM438 1150v0c0 -35 -5 -57 -14 -65c-10 -9 -24 -20 -41 -35v0c-67 -27 -174 -70 -321 -129v0c0 32 16 63 48 92v0c61 25 171 71 328 137z" />
    <glyph glyph-name="uniFC60" unicode="&#xfc60;" horiz-adv-x="473" arabic-form="isolated" 
d="M451 1649v0c0 -34 -19 -67 -57 -100v0c-66 -26 -172 -69 -319 -128v0c0 32 16 63 48 92v0c61 26 171 71 328 136zM453 1361v0c0 -55 -9 -101 -28 -136v0c-21 -39 -51 -59 -88 -59v0c-13 0 -25 2 -36 7c-11 4 -24 11 -38 21v0c-15 -27 -30 -47 -43 -60v0
c-23 -23 -48 -35 -74 -35v0c-31 0 -54 11 -69 32s-23 49 -23 86v0c0 19 3 37 8 56c5 18 12 39 22 62v0l23 10c0 -5 -1 -15 -2 -28c-2 -13 -3 -24 -3 -33v0c0 -16 3 -30 10 -43s17 -20 30 -20v0c31 0 57 21 76 62v0c9 19 20 56 33 111v0l23 6c6 -36 11 -58 14 -66v0
c9 -23 24 -34 44 -34v0c28 0 50 18 66 55v0c13 29 20 60 20 92v0l23 6c3 -14 6 -29 9 -46c2 -17 3 -33 3 -46z" />
    <glyph glyph-name="uniFC61" unicode="&#xfc61;" horiz-adv-x="478" arabic-form="isolated" 
d="M445 1422v0c0 -13 -1 -25 -3 -38c-3 -13 -5 -27 -7 -40v0l-91 55c-37 -40 -62 -67 -75 -80v0c-55 -53 -100 -79 -137 -79v0h-80c39 18 84 48 136 89v0c47 37 83 70 107 99v0c-23 14 -40 29 -52 44v0c-15 19 -22 39 -22 62v0c0 49 14 92 43 129c28 37 59 55 92 55v0
c19 0 36 -10 51 -31s23 -46 23 -75v0c0 -13 -2 -28 -6 -43s-13 -43 -28 -83v0c12 -10 24 -20 37 -30v0c8 -8 12 -19 12 -34zM362 1546v0c0 20 -7 39 -21 56s-27 25 -40 25v0c-7 0 -13 -3 -17 -8s-6 -10 -6 -15v0c0 -17 9 -34 27 -51v0l48 -37c6 15 9 25 9 30zM458 1193v0
c0 -55 -9 -101 -28 -136v0c-21 -39 -51 -59 -88 -59v0c-13 0 -25 2 -36 7c-11 4 -24 11 -38 21v0c-15 -27 -30 -47 -43 -60v0c-23 -23 -48 -35 -74 -35v0c-31 0 -54 11 -69 32s-23 49 -23 86v0c0 19 3 37 8 56c5 18 12 39 22 62v0l23 10c0 -5 -1 -15 -2 -28
c-2 -13 -3 -24 -3 -33v0c0 -16 3 -30 10 -43s17 -20 30 -20v0c31 0 57 21 76 62v0c9 19 20 56 33 111v0l23 6c6 -36 11 -58 14 -66v0c9 -23 24 -34 44 -34v0c28 0 50 18 66 55v0c13 29 20 60 20 92v0l23 6c3 -14 6 -29 9 -46c2 -17 3 -33 3 -46z" />
    <glyph glyph-name="uniFC62" unicode="&#xfc62;" horiz-adv-x="471" arabic-form="isolated" 
d="M449 1550v0c0 -55 -9 -101 -28 -136v0c-21 -39 -51 -59 -88 -59v0c-13 0 -25 2 -36 7c-11 4 -24 11 -38 21v0c-15 -27 -30 -47 -43 -60v0c-23 -23 -48 -35 -74 -35v0c-31 0 -54 11 -69 32s-23 49 -23 86v0c0 19 3 37 8 56c5 18 12 39 22 62v0l23 10c0 -5 -1 -15 -2 -28
c-2 -13 -3 -24 -3 -33v0c0 -16 3 -30 10 -43s17 -20 30 -20v0c31 0 57 21 76 62v0c9 19 20 56 33 111v0l23 6c6 -36 11 -58 14 -66v0c9 -23 24 -34 44 -34v0c28 0 50 18 66 55v0c13 29 20 60 20 92v0l23 6c3 -14 6 -29 9 -46c2 -17 3 -33 3 -46zM451 1292v0
c0 -34 -19 -67 -57 -100v0c-66 -26 -172 -69 -319 -128v0c0 32 16 63 48 92v0c61 26 171 71 328 136z" />
    <glyph glyph-name="uniFDF2" unicode="&#xfdf2;" horiz-adv-x="2000" arabic-form="isolated" 
d="M357 362v0v180c-31 -11 -67 -38 -108 -79c-41 -42 -63 -80 -65 -115v0v-6c0 -31 16 -48 48 -51v0c2 -1 4 -1 7 -1v0c33 0 72 24 118 72zM933 1554l-26 2c-5 16 -11 33 -20 51c-9 17 -20 35 -35 52v0c-9 11 -29 33 -60 65v0c9 11 21 17 38 17v0c8 0 17 -1 28 -4v0
c27 -9 46 -24 55 -47v0c4 -16 8 -29 12 -38c4 -10 7 -17 8 -21v0c3 -11 4 -24 4 -37v0c0 -13 -1 -26 -4 -40v0zM664 261h120c66 16 99 102 99 258v0v141c0 95 -4 175 -12 240c-9 65 -23 126 -43 182v0c-1 1 -2 3 -2 5v0c0 5 4 11 12 18v0c64 61 122 114 173 157v0
c4 3 7 4 10 4v0c4 0 7 -1 8 -4v0v-736c7 -177 70 -265 191 -265v0h80c51 1 78 25 79 71v0v597c-6 143 -11 242 -16 295v0c1 69 61 143 178 220v0c6 4 11 6 14 6v0c5 0 8 -2 9 -6v0c0 -90 18 -175 53 -254v0c-51 -10 -76 -64 -76 -161v0v-671c-4 -79 -30 -151 -79 -216
s-112 -98 -189 -100v0h-71c-132 10 -225 69 -280 178v0c-51 -109 -128 -168 -232 -178v0h-93c-101 5 -166 54 -194 145v0c-59 -50 -125 -75 -197 -75v0c-44 0 -81 10 -111 31v0c-37 23 -55 57 -55 100v0c0 62 18 122 55 181c37 58 78 109 123 154v0c33 33 80 63 139 90v0
v119l182 125v-550c2 -67 44 -101 125 -101v0zM1948 1238v0c-13 0 -24 -10 -33 -31v0c-3 -18 -5 -34 -5 -49v0v-933c0 -92 -57 -162 -171 -210v0l-1 672l-22 471c0 26 -3 52 -10 79v0c0 40 20 80 61 119v0l102 110h17c17 -69 38 -145 62 -228zM1115 1408
c-10 -15 -21 -28 -34 -37s-28 -14 -47 -14v0c-20 0 -36 2 -49 5s-29 9 -50 17v0c-9 -18 -24 -35 -45 -51v0c-27 -19 -53 -29 -77 -29v0c-32 0 -56 9 -73 27c-17 17 -25 40 -25 67v0c0 14 1 28 4 42c2 13 4 24 5 32v0l41 10c0 -31 5 -52 16 -63s28 -17 51 -17v0
c9 0 19 4 28 13c9 8 18 18 27 29s17 24 24 37s11 27 14 41v0l27 6c2 -12 5 -22 9 -29c3 -8 6 -14 8 -17v0c14 -13 36 -19 65 -19v0c22 0 40 14 55 43v0c5 8 9 17 14 28c5 10 8 21 11 34v0l27 5c1 -7 1 -13 2 -19c1 -7 1 -13 1 -20v0c0 -23 -2 -45 -7 -66s-12 -40 -22 -55z
" />
    <glyph glyph-name="uniFE80" unicode="&#x621;" horiz-adv-x="700" arabic-form="isolated" 
d="M568 369v0v-111l-438 -223v130l138 66c-59 28 -95 62 -108 103v0c-7 21 -11 43 -11 64v0c0 18 3 36 8 54v0c11 39 37 73 76 104s79 46 119 46v0c41 0 78 -8 113 -23c34 -16 64 -40 91 -71v0l1 -49c-65 17 -117 26 -157 26v0c-37 0 -64 -7 -80 -22v0
c-25 -23 -38 -46 -38 -70v0c0 -8 1 -16 4 -24v0c11 -32 34 -52 68 -61v0c5 -2 11 -3 18 -3v0c38 0 103 21 196 64z" />
    <glyph glyph-name="uniFE81" unicode="&#x622;" horiz-adv-x="401" arabic-form="isolated" 
d="M321 1238v0c-13 0 -24 -10 -33 -31v0c-3 -18 -5 -34 -5 -49v0v-933c0 -92 -57 -162 -171 -210v0l2 1066c0 43 -4 72 -11 88v0c-9 19 -17 41 -24 68v0c0 40 20 80 61 119v0l102 110h17c17 -69 38 -145 62 -228zM407 1649l16 -15c-47 -54 -101 -81 -161 -81v0
c-44 0 -88 9 -131 27c-43 17 -73 26 -89 26v0c-14 0 -33 -5 -56 -15v0l-12 14c34 48 70 72 107 72v0c12 0 43 -9 92 -26c49 -18 88 -27 119 -27v0c39 0 77 8 115 25v0z" />
    <glyph glyph-name="uniFE82" unicode="&#x622;" horiz-adv-x="500" arabic-form="final" 
d="M518 261v-219h-183c-61 4 -110 22 -147 53s-56 78 -57 139v0l2 895c-3 60 -18 106 -44 139v0l185 182c8 8 14 12 18 12v0c5 0 8 -6 8 -18v0l-1 -1050v-14c0 -79 32 -119 96 -119v0h123zM407 1649l16 -15c-47 -54 -101 -81 -161 -81v0c-44 0 -88 9 -131 27
c-43 17 -73 26 -89 26v0c-14 0 -33 -5 -56 -15v0l-12 14c34 48 70 72 107 72v0c12 0 43 -9 92 -26c49 -18 88 -27 119 -27v0c39 0 77 8 115 25v0z" />
    <glyph glyph-name="uniFE83" unicode="&#x623;" horiz-adv-x="401" arabic-form="isolated" 
d="M331 1238v0c-13 0 -24 -10 -33 -31v0c-3 -18 -5 -34 -5 -49v0v-933c0 -92 -57 -162 -171 -210v0l2 1066c0 43 -4 72 -11 88v0c-9 19 -17 41 -24 68v0c0 40 20 80 61 119v0l102 110h17c17 -69 38 -145 62 -228zM336 1671v0v-73l-288 -146v85l90 44c-39 18 -62 40 -70 67v0
c-5 14 -7 28 -7 42v0c0 12 2 24 5 36v0c7 25 24 48 50 68s52 30 78 30v0c27 0 51 -5 74 -15s43 -24 60 -43v0l1 -36c-43 12 -78 18 -105 18v0c-23 0 -40 -5 -51 -14v0c-17 -15 -25 -31 -25 -47v0c0 -5 1 -10 3 -15v0c7 -21 22 -35 44 -41v0c3 -1 7 -2 12 -2v0
c25 0 68 14 129 42z" />
    <glyph glyph-name="uniFE84" unicode="&#x623;" horiz-adv-x="500" arabic-form="final" 
d="M518 261v-219h-183c-61 4 -110 22 -147 53s-56 78 -57 139v0l2 895c-3 60 -18 106 -44 139v0l185 182c8 8 14 12 18 12v0c5 0 8 -6 8 -18v0l-1 -1050v-14c0 -79 32 -119 96 -119v0h123zM323 1666v0v-73l-288 -146v85l90 44c-39 18 -62 40 -70 67v0c-5 14 -7 28 -7 42v0
c0 12 2 24 5 36v0c7 25 24 48 50 68s52 30 78 30v0c27 0 51 -5 74 -15s43 -24 60 -43v0l1 -36c-43 12 -78 18 -105 18v0c-23 0 -40 -5 -51 -14v0c-17 -15 -25 -31 -25 -47v0c0 -5 1 -10 3 -15v0c7 -21 22 -35 44 -41v0c3 -1 7 -2 12 -2v0c25 0 68 14 129 42z" />
    <glyph glyph-name="uniFE85" unicode="&#x624;" horiz-adv-x="799" arabic-form="isolated" 
d="M332 261h182c-32 106 -83 159 -152 159v0c-21 0 -39 -9 -53 -26s-21 -37 -21 -58v0c0 -46 15 -71 44 -75v0zM553 42v0h-140c-91 0 -152 17 -184 52c-32 34 -48 81 -48 140v0c0 78 15 154 46 227v0c39 100 98 150 178 150v0h15c51 0 97 -26 140 -78v0
c56 -67 95 -157 118 -270v0c8 -48 13 -101 14 -159v0h1v-51c0 -143 -35 -265 -106 -367v0c-63 -100 -154 -153 -274 -158v0c-119 11 -208 45 -268 100v0c-9 9 -13 16 -13 21v0c0 7 7 11 20 13v0c173 33 310 92 412 179v0c61 52 92 107 92 166v0v13c0 6 -1 13 -3 22zM403 891
v0v-89l-350 -178v104l110 53c-47 22 -75 49 -86 82v0c-6 17 -9 34 -9 51v0c0 15 2 29 7 44v0c9 31 29 58 61 83c31 25 63 37 95 37v0c32 0 62 -6 90 -19c27 -13 52 -32 73 -57v0l1 -39c-52 14 -94 21 -126 21v0c-30 0 -51 -6 -64 -18v0c-20 -18 -30 -37 -30 -56v0
c0 -6 1 -12 3 -19v0c9 -25 27 -42 54 -49v0c4 -1 9 -2 15 -2v0c30 0 82 17 156 51z" />
    <glyph glyph-name="uniFE86" unicode="&#x624;" horiz-adv-x="899" arabic-form="final" 
d="M328 261h182c-32 106 -83 159 -152 159v0c-21 0 -39 -9 -53 -26s-21 -37 -21 -58v0c0 -46 15 -71 44 -75v0zM674 263v-2h248v-219h-233c-2 -138 -37 -257 -106 -357v0c-63 -100 -154 -153 -274 -158v0c-119 11 -208 45 -268 100v0c-9 9 -13 16 -13 21v0c0 7 7 11 20 13v0
c173 33 310 92 412 179v0c61 52 92 108 92 167v0v13c0 6 -1 13 -3 22v0h-140c-91 0 -152 17 -184 52c-32 34 -48 81 -48 140v0c0 78 15 154 46 227v0c39 100 98 150 178 150v0h15c51 0 97 -26 140 -78v0c56 -67 95 -157 118 -270v0zM402 892v0v-89l-350 -178v104l110 53
c-47 22 -75 49 -86 82v0c-6 17 -9 34 -9 51v0c0 15 2 29 7 44v0c9 31 29 58 61 83c31 25 63 37 95 37v0c32 0 62 -6 90 -19c27 -13 52 -32 73 -57v0l1 -39c-52 14 -94 21 -126 21v0c-30 0 -51 -6 -64 -18v0c-20 -18 -30 -37 -30 -56v0c0 -6 1 -12 3 -19v0
c9 -25 27 -42 54 -49v0c4 -1 9 -2 15 -2v0c30 0 82 17 156 51z" />
    <glyph glyph-name="uniFE87" unicode="&#x625;" horiz-adv-x="401" arabic-form="isolated" 
d="M324 1238v0c-13 0 -24 -10 -33 -31v0c-3 -18 -5 -34 -5 -49v0v-933c0 -92 -57 -162 -171 -210v0l2 1066c0 43 -4 72 -11 88v0c-9 19 -17 41 -24 68v0c0 40 20 80 61 119v0l102 110h17c17 -69 38 -145 62 -228zM342 -243v0v-73l-288 -146v85l90 44c-39 18 -62 40 -70 67v0
c-5 14 -7 28 -7 42v0c0 12 2 24 5 36v0c7 25 24 48 50 68s52 30 78 30v0c27 0 51 -5 74 -15s43 -24 60 -43v0l1 -36c-43 11 -77 17 -104 17v0c-24 0 -41 -5 -52 -14v0c-17 -15 -25 -30 -25 -46v0c0 -5 1 -10 3 -15v0c7 -21 22 -35 44 -41v0c3 -1 7 -2 12 -2v0
c25 0 68 14 129 42z" />
    <glyph glyph-name="uniFE88" unicode="&#x625;" horiz-adv-x="500" arabic-form="final" 
d="M518 261v-219h-183c-61 4 -110 22 -147 53s-56 78 -57 139v0l2 895c-3 60 -18 106 -44 139v0l185 182c8 8 14 12 18 12v0c5 0 8 -6 8 -18v0l-1 -1050v-14c0 -79 32 -119 96 -119v0h123zM322 -213v0v-73l-288 -146v85l90 44c-39 18 -62 40 -70 67v0c-5 14 -7 28 -7 42v0
c0 12 2 24 5 36v0c7 25 24 48 50 68s52 30 78 30v0c27 0 51 -5 74 -15s43 -24 60 -43v0l1 -36c-43 11 -77 17 -104 17v0c-24 0 -41 -5 -52 -14v0c-17 -15 -25 -30 -25 -46v0c0 -5 1 -10 3 -15v0c7 -21 22 -35 44 -41v0c3 -1 7 -2 12 -2v0c25 0 68 14 129 42z" />
    <glyph glyph-name="uniFE89" unicode="&#x626;" horiz-adv-x="1200" arabic-form="isolated" 
d="M1122 809v0c-10 -63 -20 -116 -31 -157v0c-11 -22 -30 -34 -57 -36v0c-73 -15 -137 -37 -194 -68v0c-26 -23 -39 -44 -39 -65v0c0 -2 0 -4 1 -6v0c3 -23 27 -37 70 -42v0c39 -6 82 -18 131 -35v0c59 -24 89 -67 89 -129v0c0 -5 0 -11 -1 -16v0
c-7 -167 -72 -296 -197 -386c-125 -91 -282 -137 -473 -138v0c-279 13 -418 143 -418 389v0v15c1 123 41 254 120 393v0c6 4 11 6 14 6v0c7 0 10 -6 10 -18v0c0 -3 0 -7 -1 -10v0c-30 -81 -48 -155 -55 -221v0c11 -213 132 -327 363 -340v0h55c109 1 211 21 304 60
s143 88 150 148v0c-11 41 -58 64 -140 67v0c-97 13 -146 65 -146 156v0c9 215 150 362 422 441v0c5 3 9 5 12 5v0c7 0 10 -4 11 -13zM738 957v0v-111l-438 -223v130l138 66c-59 28 -95 62 -108 103v0c-7 21 -11 43 -11 64v0c0 18 3 36 8 54v0c11 39 37 73 76 104
s79 46 119 46v0c41 0 78 -8 113 -23c34 -16 64 -40 91 -71v0l1 -49c-65 17 -117 26 -157 26v0c-37 0 -64 -7 -80 -22v0c-25 -23 -38 -46 -38 -70v0c0 -8 1 -16 4 -24v0c11 -32 34 -52 68 -61v0c5 -2 11 -3 18 -3v0c38 0 103 21 196 64z" />
    <glyph glyph-name="uniFE8A" unicode="&#x626;" horiz-adv-x="1099" arabic-form="final" 
d="M783 0v0c-1 -3 -1 -5 -1 -7v0c0 -18 10 -31 29 -38v0l84 -1c57 -2 85 -35 85 -100v0c-5 -95 -32 -178 -81 -251s-109 -118 -180 -135v0c-56 -13 -106 -20 -149 -20v0l-114 1c-46 0 -104 10 -173 29v0c-72 25 -135 67 -189 126v0c-61 70 -91 169 -91 297v0v27
c0 117 35 235 106 355v0c3 1 6 2 10 2v0c5 0 8 -8 8 -24v0c-22 -55 -34 -110 -36 -163v0c-3 -27 -4 -52 -4 -75v0c0 -85 18 -152 53 -203v0c45 -66 97 -106 156 -121s112 -24 159 -25v0h80c71 0 125 4 162 12v0c41 9 73 21 95 37c22 15 41 38 58 67v0c3 8 4 15 4 21v0
c0 17 -9 27 -28 30v0h-63c-57 8 -89 43 -97 104v0v8c0 79 20 149 61 208v0c42 61 110 95 204 100v0h193v-219h-292c-31 -7 -47 -21 -49 -42zM641 730v0v-111l-438 -223v130l138 66c-59 28 -95 62 -108 103v0c-7 21 -11 43 -11 64v0c0 18 3 36 8 54v0c11 39 37 73 76 104
s79 46 119 46v0c41 0 78 -8 113 -23c34 -16 64 -40 91 -71v0l1 -49c-65 17 -117 26 -157 26v0c-37 0 -64 -7 -80 -22v0c-25 -23 -38 -46 -38 -70v0c0 -8 1 -16 4 -24v0c11 -32 34 -52 68 -61v0c5 -2 11 -3 18 -3v0c38 0 103 21 196 64z" />
    <glyph glyph-name="uniFE8B" unicode="&#x626;" horiz-adv-x="599" arabic-form="initial" 
d="M457 964v0v-112l-439 -222v130l138 66c-59 27 -95 61 -108 101v0c-7 21 -11 43 -11 64v0c0 19 3 37 8 55v0c11 39 37 73 77 104c39 31 79 46 119 46v0c41 0 78 -8 113 -23c34 -16 65 -35 92 -58v0v-63c-65 18 -118 27 -159 27v0c-36 0 -62 -7 -78 -21v0
c-26 -23 -39 -47 -39 -70v0c0 -8 2 -16 5 -24v0c11 -32 34 -53 67 -62v0c5 -2 12 -3 19 -3v0c38 0 103 22 196 65zM516 376v0v-20c0 -39 -5 -81 -14 -124v0c-12 -52 -38 -98 -79 -139v0c-37 -33 -101 -50 -192 -50v0l-235 2v216h277c45 9 69 26 70 53v0v3
c0 35 -20 90 -61 164v0l-51 68l154 154c81 -107 124 -216 131 -327z" />
    <glyph glyph-name="uniFE8C" unicode="&#x626;" horiz-adv-x="599" arabic-form="medial" 
d="M626 261v-219h-90c-30 0 -65 11 -106 33c-41 21 -82 76 -123 164v0c-29 -72 -61 -124 -98 -156v0c-31 -27 -68 -41 -112 -41v0h-101v219h98c27 0 49 4 68 13v0c21 10 41 33 60 69s41 96 64 180v0c3 13 8 20 16 20v0c7 0 12 -7 17 -21v0c21 -81 41 -138 62 -169
c21 -32 44 -56 71 -71v0c24 -14 59 -21 104 -21v0h70zM510 963v0v-111l-438 -223v130l138 66c-59 28 -95 62 -108 103v0c-7 21 -11 43 -11 64v0c0 18 3 36 8 54v0c11 39 37 73 76 104s79 46 119 46v0c41 0 78 -8 113 -23c34 -16 64 -40 91 -71v0l1 -49
c-65 17 -117 26 -157 26v0c-37 0 -64 -7 -80 -22v0c-25 -23 -38 -46 -38 -70v0c0 -8 1 -16 4 -24v0c11 -32 34 -52 68 -61v0c5 -2 11 -3 18 -3v0c38 0 103 21 196 64z" />
    <glyph glyph-name="uniFE8D" unicode="&#x627;" horiz-adv-x="401" arabic-form="isolated" 
d="M322 1238v0c-13 0 -24 -10 -33 -31v0c-3 -18 -5 -34 -5 -49v0v-933c0 -92 -57 -162 -171 -210v0l2 1066c0 43 -4 72 -11 88v0c-9 19 -17 41 -24 68v0c0 40 20 80 61 119v0l102 110h17c17 -69 38 -145 62 -228z" />
    <glyph glyph-name="uniFE8E" unicode="&#x627;" horiz-adv-x="500" arabic-form="final" 
d="M518 261v-219h-183c-61 4 -110 22 -147 53s-56 78 -57 139v0l2 895c-3 60 -18 106 -44 139v0l185 182c8 8 14 12 18 12v0c5 0 8 -6 8 -18v0l-1 -1050v-14c0 -79 32 -119 96 -119v0h123z" />
    <glyph glyph-name="uniFE8F" unicode="&#x628;" horiz-adv-x="1300" arabic-form="isolated" 
d="M630 -373l-130 129l128 127l130 -129zM1194 539v0c13 -52 19 -97 19 -134v0v-17c-2 -40 -7 -77 -15 -110v0c-53 -155 -140 -234 -259 -235v0h-605c-104 2 -186 30 -245 83s-89 123 -89 209v0c5 120 49 231 134 334v0h2c17 0 25 -9 25 -27v0c-8 -29 -20 -76 -36 -141v0
c-4 -27 -6 -52 -6 -73v0c0 -62 16 -103 48 -124v0c43 -28 106 -42 188 -43v0h560c53 0 88 8 107 23v0c20 16 32 42 37 78v0v6c0 37 -40 106 -119 207v0l173 127c38 -50 65 -104 81 -163z" />
    <glyph glyph-name="uniFE90" unicode="&#x628;" horiz-adv-x="1400" arabic-form="final" 
d="M1419 261v-219h-108c-39 0 -78 12 -115 35s-71 77 -102 162v0c-38 -77 -80 -128 -126 -153c-46 -26 -93 -40 -141 -42v0h-477c-115 1 -201 30 -258 86c-57 55 -87 118 -90 188v0c-1 7 -1 13 -1 18v0c0 63 12 125 37 185v0c29 62 49 95 62 98v0h26
c-19 -69 -28 -124 -28 -165v0c0 -41 13 -83 39 -126c25 -44 89 -66 190 -66v0h497c67 0 125 29 176 86v0c51 58 83 126 98 204v0c4 10 8 15 12 15v0c5 0 9 -5 14 -14v0c17 -84 45 -154 85 -209s81 -83 122 -83v0h88zM603 -361l-130 129l127 127l130 -129z" />
    <glyph glyph-name="uniFE91" unicode="&#x628;" horiz-adv-x="600" arabic-form="initial" 
d="M516 376v0v-20c0 -39 -5 -81 -14 -124v0c-12 -52 -38 -98 -79 -139v0c-37 -33 -101 -50 -192 -50v0l-235 2v216h277c45 9 69 26 70 53v0v3c0 35 -20 90 -61 164v0l-51 68l154 154c81 -107 124 -216 131 -327zM254 -373l-130 129l127 127l129 -129z" />
    <glyph glyph-name="uniFE92" unicode="&#x628;" horiz-adv-x="600" arabic-form="medial" 
d="M626 261v-219h-90c-30 0 -65 11 -106 33c-41 21 -82 76 -123 164v0c-29 -72 -61 -124 -98 -156v0c-31 -27 -68 -41 -112 -41v0h-101v219h98c27 0 49 4 68 13v0c21 10 41 33 60 69s41 96 64 180v0c3 13 8 20 16 20v0c7 0 12 -7 17 -21v0c21 -81 41 -138 62 -169
c21 -32 44 -56 71 -71v0c24 -14 59 -21 104 -21v0h70zM305 -352l-130 129l127 127l129 -129z" />
    <glyph glyph-name="uniFE93" unicode="&#x629;" horiz-adv-x="700" arabic-form="isolated" 
d="M606 390v0v-15c0 -107 -22 -193 -65 -258v0c-49 -67 -122 -101 -221 -101v0c-123 1 -187 60 -192 178v0c-1 7 -2 16 -2 25v0c0 112 26 212 79 300v0c59 105 112 171 158 199v0c63 -38 119 -83 168 -135c48 -52 73 -116 75 -193zM485 279v0c3 9 4 19 4 29v0
c0 17 -4 34 -12 53v0c-13 30 -31 57 -52 80c-22 23 -50 45 -83 64v0c-29 -15 -53 -41 -72 -78v0c-17 -33 -26 -67 -26 -104v0c0 -6 0 -12 1 -18v0c3 -42 39 -63 106 -63v0h9c75 1 116 13 125 37zM212 880l-130 129l127 127l129 -129zM537 880l-130 129l127 127l129 -129z
" />
    <glyph glyph-name="uniFE94" unicode="&#x629;" horiz-adv-x="800" arabic-form="final" 
d="M824 261v-219h-193c-101 5 -166 54 -194 145v0c-59 -50 -125 -75 -197 -75v0c-44 0 -81 10 -111 31v0c-37 23 -55 57 -55 100v0c0 62 18 122 55 181c37 58 78 109 123 154v0c33 33 80 63 139 90v0v99l182 125v-530c2 -67 44 -101 125 -101v0h126zM391 362v0v180
c-31 -11 -67 -38 -108 -79c-41 -42 -63 -80 -65 -115v0v-6c0 -31 16 -48 48 -51v0c2 -1 4 -1 7 -1v0c33 0 72 24 118 72zM606 1004l-130 129l127 127l129 -129zM294 1005l-130 129l127 127l129 -129z" />
    <glyph glyph-name="uniFE95" unicode="&#x62a;" horiz-adv-x="1300" arabic-form="isolated" 
d="M454 701l-130 128l128 127l130 -129zM783 701l-129 128l127 127l130 -129zM1194 539v0c13 -52 19 -97 19 -134v0v-17c-2 -40 -7 -77 -15 -110v0c-53 -155 -140 -234 -259 -235v0h-605c-104 2 -186 30 -245 83s-89 123 -89 209v0c5 120 49 231 134 334v0h2
c17 0 25 -9 25 -27v0c-8 -29 -20 -76 -36 -141v0c-4 -27 -6 -52 -6 -73v0c0 -62 16 -103 48 -124v0c43 -28 106 -42 188 -43v0h560c53 0 88 8 107 23v0c20 16 32 42 37 78v0v6c0 37 -40 106 -119 207v0l173 127c38 -50 65 -104 81 -163z" />
    <glyph glyph-name="uniFE96" unicode="&#x62a;" horiz-adv-x="1400" arabic-form="final" 
d="M1419 261v-219h-108c-39 0 -78 12 -115 35s-71 77 -102 162v0c-38 -77 -80 -128 -126 -153c-46 -26 -93 -40 -141 -42v0h-477c-115 1 -201 30 -258 86c-57 55 -87 118 -90 188v0c-1 7 -1 13 -1 18v0c0 63 12 125 37 185v0c29 62 49 95 62 98v0h26
c-19 -69 -28 -124 -28 -165v0c0 -41 13 -83 39 -126c25 -44 89 -66 190 -66v0h497c67 0 125 29 176 86v0c51 58 83 126 98 204v0c4 10 8 15 12 15v0c5 0 9 -5 14 -14v0c17 -84 45 -154 85 -209s81 -83 122 -83v0h88zM454 685l-129 129l128 126l130 -128zM768 684l-128 129
l126 127l131 -129z" />
    <glyph glyph-name="uniFE97" unicode="&#x62a;" horiz-adv-x="700" arabic-form="initial" 
d="M610 375v0v-20c0 -39 -4 -81 -13 -124v0c-12 -52 -38 -98 -79 -139v0c-37 -33 -101 -50 -192 -50v0h-330v219h377c42 8 64 25 65 52v0v3c0 35 -20 90 -61 163v0l-51 69l154 154c81 -107 124 -216 130 -327zM191 894l-129 129l128 127l130 -129zM505 893l-128 129l127 128
l130 -130z" />
    <glyph glyph-name="uniFE98" unicode="&#x62a;" horiz-adv-x="600" arabic-form="medial" 
d="M626 261v-219h-90c-30 0 -65 11 -106 33c-41 21 -82 76 -123 164v0c-29 -72 -61 -124 -98 -156v0c-31 -27 -68 -41 -112 -41v0h-101v219h98c27 0 49 4 68 13v0c21 10 41 33 60 69s41 96 64 180v0c3 13 8 20 16 20v0c7 0 12 -7 17 -21v0c21 -81 41 -138 62 -169
c21 -32 44 -56 71 -71v0c24 -14 59 -21 104 -21v0h70zM157 706l-130 129l127 127l129 -129zM451 706l-130 129l127 127l129 -129z" />
    <glyph glyph-name="uniFE99" unicode="&#x62b;" horiz-adv-x="1300" arabic-form="isolated" 
d="M436 701l-130 128l128 127l130 -129zM1196 539v0c13 -52 19 -97 19 -134v0v-17c-2 -40 -7 -77 -15 -110v0c-53 -155 -140 -234 -259 -235v0h-605c-104 2 -186 30 -245 83s-89 123 -89 209v0c5 120 49 231 134 334v0h2c17 0 25 -9 25 -27v0c-8 -29 -20 -76 -36 -141v0
c-4 -27 -6 -52 -6 -73v0c0 -62 16 -103 48 -124v0c43 -28 106 -42 188 -43v0h560c53 0 88 8 107 23v0c20 16 32 42 37 78v0v6c0 37 -40 106 -119 207v0l173 127c38 -50 65 -104 81 -163zM785 701l-129 128l127 127l130 -129zM613 947l-130 129l127 126l130 -128z" />
    <glyph glyph-name="uniFE9A" unicode="&#x62b;" horiz-adv-x="1400" arabic-form="final" 
d="M1419 261v-219h-108c-39 0 -78 12 -115 35s-71 77 -102 162v0c-38 -77 -80 -128 -126 -153c-46 -26 -93 -40 -141 -42v0h-477c-115 1 -201 30 -258 86c-57 55 -87 118 -90 188v0c-1 7 -1 13 -1 18v0c0 63 12 125 37 185v0c29 62 49 95 62 98v0h26
c-19 -69 -28 -124 -28 -165v0c0 -41 13 -83 39 -126c25 -44 89 -66 190 -66v0h497c67 0 125 29 176 86v0c51 58 83 126 98 204v0c4 10 8 15 12 15v0c5 0 9 -5 14 -14v0c17 -84 45 -154 85 -209s81 -83 122 -83v0h88zM454 685l-129 129l128 126l130 -128zM768 684l-128 129
l126 127l131 -129zM607 945l-130 129l127 127l129 -129z" />
    <glyph glyph-name="uniFE9B" unicode="&#x62b;" horiz-adv-x="700" arabic-form="initial" 
d="M610 375v0v-20c0 -39 -4 -81 -13 -124v0c-12 -52 -38 -98 -79 -139v0c-37 -33 -101 -50 -192 -50v0h-330v219h377c42 8 64 25 65 52v0v3c0 35 -20 90 -61 163v0l-51 69l154 154c81 -107 124 -216 130 -327zM191 894l-129 129l128 127l130 -129zM505 893l-128 129l127 128
l130 -130zM353 1152l-130 129l127 127l129 -129z" />
    <glyph glyph-name="uniFE9C" unicode="&#x62b;" horiz-adv-x="600" arabic-form="medial" 
d="M626 261v-219h-90c-30 0 -65 11 -106 33c-41 21 -82 76 -123 164v0c-29 -72 -61 -124 -98 -156v0c-31 -27 -68 -41 -112 -41v0h-101v219h98c27 0 49 4 68 13v0c21 10 41 33 60 69s41 96 64 180v0c3 13 8 20 16 20v0c7 0 12 -7 17 -21v0c21 -81 41 -138 62 -169
c21 -32 44 -56 71 -71v0c24 -14 59 -21 104 -21v0h70zM157 706l-130 129l127 127l129 -129zM451 706l-130 129l127 127l129 -129zM299 975l-130 129l127 127l129 -129z" />
    <glyph glyph-name="uniFE9D" unicode="&#x62c;" horiz-adv-x="1100" arabic-form="isolated" 
d="M1099 -329v0l28 -25c-5 -20 -34 -51 -85 -92v0c-64 -56 -141 -100 -231 -132c-91 -33 -167 -49 -230 -49v0c-17 -2 -38 -3 -61 -3v0c-60 0 -124 11 -191 32v0c-103 30 -183 80 -240 151s-86 164 -88 280v0l-1 21c0 141 50 263 150 364v0c72 65 138 112 199 143
c61 30 146 62 256 95v0l43 13c-54 23 -106 46 -155 69v0c-59 24 -118 38 -177 41v0h-8c-57 0 -113 -35 -167 -105v0l-29 13c7 46 32 103 74 170s106 103 193 109v0h26c59 0 120 -15 183 -44v0c1 0 65 -32 191 -97v0c88 -47 177 -79 267 -94v0l-105 -172
c-289 -35 -475 -82 -560 -139v0c-64 -40 -114 -83 -150 -128c-36 -46 -58 -90 -65 -132v0c-4 -24 -6 -46 -6 -65v0c0 -20 2 -40 6 -59c3 -19 14 -45 33 -78s42 -62 71 -85s72 -44 129 -62s138 -27 242 -27v0c190 0 343 29 458 87zM649 -192l-130 129l127 127l129 -129z" />
    <glyph glyph-name="uniFE9E" unicode="&#x62c;" horiz-adv-x="1100" arabic-form="final" 
d="M890 352v0c1 -23 8 -42 20 -57v0c17 -23 40 -34 69 -34v0h138v-219h-114c-49 0 -89 6 -118 19c-30 13 -57 41 -81 84v0c-23 40 -34 103 -34 188v0v2c-192 -31 -321 -70 -388 -115v0c-64 -40 -114 -83 -150 -128c-36 -46 -58 -90 -65 -132v0c-4 -24 -6 -46 -6 -65v0
c0 -20 2 -40 6 -59c3 -19 14 -45 33 -78s42 -62 71 -85s72 -44 129 -62s138 -27 242 -27v0c190 0 343 29 458 87v0l28 -25c-5 -20 -34 -51 -85 -92v0c-64 -56 -141 -100 -231 -132c-91 -33 -167 -49 -230 -49v0c-17 -2 -38 -3 -61 -3v0c-60 0 -124 11 -191 32v0
c-103 30 -183 81 -240 153s-86 165 -88 278v0l-1 21c0 141 50 263 150 364v0c72 65 138 112 199 143c61 30 146 62 256 95v0l43 13c-54 23 -106 46 -155 69v0c-59 24 -118 38 -177 41v0h-8c-57 0 -113 -35 -167 -105v0l-29 13c7 46 32 103 74 170s106 103 193 109v0h26
c59 0 120 -15 183 -44v0c1 0 65 -32 191 -97v0c88 -47 177 -79 267 -94v0l-105 -172c-17 -2 -35 -4 -52 -7zM596 -190l-130 129l127 127l129 -129z" />
    <glyph glyph-name="uniFE9F" unicode="&#x62c;" horiz-adv-x="1100" arabic-form="initial" 
d="M1031 472v0l-68 -204c-9 1 -17 2 -26 2v0c-26 0 -50 -5 -73 -16v0c-20 -3 -65 -28 -136 -76v0c-64 -44 -124 -76 -180 -95v0c-68 -27 -199 -41 -392 -41v0h-160v219h323c65 0 120 7 163 22s104 45 182 91v0c-53 51 -128 100 -225 146v0c-68 26 -129 39 -182 39v0
c-27 0 -51 -3 -70 -10v0c-21 -9 -50 -35 -85 -80v0l-24 18c76 183 159 276 250 278v0l25 1c83 -1 187 -46 310 -135v0c123 -83 245 -136 368 -159zM502 -373l-130 129l127 127l129 -129z" />
    <glyph glyph-name="uniFEA0" unicode="&#x62c;" horiz-adv-x="1100" arabic-form="medial" 
d="M1122 261v-219h-157c-5 -1 -9 -1 -14 -1v0c-46 0 -94 21 -145 63v0c-56 45 -90 118 -102 219v0c-33 -3 -66 -20 -97 -50v0l-123 -108c-93 -82 -232 -123 -416 -123v0h-72v219h68c119 0 225 20 318 60v0c97 42 175 83 234 124v0c-161 73 -260 115 -297 124v0
c-30 7 -55 11 -75 11v0c-5 0 -9 0 -12 -1v0c-22 -2 -46 -10 -71 -23c-26 -14 -51 -39 -76 -75v0l-27 8c12 58 43 118 94 179v0c56 65 113 98 172 98v0c70 0 142 -16 215 -49v0c68 -30 117 -54 147 -72v0c151 -67 274 -107 367 -122v0l-73 -151c-13 1 -27 2 -41 2v0
c-31 0 -60 -3 -87 -10v0c0 -27 9 -50 27 -68c18 -19 49 -30 93 -35v0h150zM605 -370l-130 129l127 127l129 -129z" />
    <glyph glyph-name="uniFEA1" unicode="&#x62d;" horiz-adv-x="1100" arabic-form="isolated" 
d="M1100 -329v0l28 -25c-5 -20 -34 -51 -85 -92v0c-64 -56 -141 -100 -231 -132c-91 -33 -167 -49 -230 -49v0c-17 -2 -38 -3 -61 -3v0c-60 0 -124 11 -191 32v0c-103 30 -183 80 -240 151s-86 164 -88 280v0l-1 21c0 141 50 263 150 364v0c72 65 138 112 199 143
c61 30 146 62 256 95v0l43 13c-54 23 -106 46 -155 69v0c-59 24 -118 38 -177 41v0h-8c-57 0 -113 -35 -167 -105v0l-29 13c7 46 32 103 74 170s106 103 193 109v0h26c59 0 120 -15 183 -44v0c1 0 65 -32 191 -97v0c88 -47 177 -79 267 -94v0l-105 -172
c-289 -35 -475 -82 -560 -139v0c-64 -40 -114 -83 -150 -128c-36 -46 -58 -90 -65 -132v0c-4 -24 -6 -46 -6 -65v0c0 -20 2 -40 6 -59c3 -19 14 -45 33 -78s42 -62 71 -85s72 -44 129 -62s138 -27 242 -27v0c190 0 343 29 458 87z" />
    <glyph glyph-name="uniFEA2" unicode="&#x62d;" horiz-adv-x="1100" arabic-form="final" 
d="M889 352v0c1 -23 8 -42 20 -57v0c17 -23 40 -34 69 -34v0h138v-219h-114c-49 0 -89 6 -118 19c-30 13 -57 41 -81 84v0c-23 40 -34 103 -34 188v0v2c-192 -31 -321 -70 -388 -115v0c-64 -40 -114 -83 -150 -128c-36 -46 -58 -90 -65 -132v0c-4 -24 -6 -46 -6 -65v0
c0 -20 2 -40 6 -59c3 -19 14 -45 33 -78s42 -62 71 -85s72 -44 129 -62s138 -27 242 -27v0c190 0 343 29 458 87v0l28 -25c-5 -20 -34 -51 -85 -92v0c-64 -56 -141 -100 -231 -132c-91 -33 -167 -49 -230 -49v0c-17 -2 -38 -3 -61 -3v0c-60 0 -124 11 -191 32v0
c-103 30 -183 81 -240 153s-86 165 -88 278v0l-1 21c0 141 50 263 150 364v0c72 65 138 112 199 143c61 30 146 62 256 95v0l43 13c-54 23 -106 46 -155 69v0c-59 24 -118 38 -177 41v0h-8c-57 0 -113 -35 -167 -105v0l-29 13c7 46 32 103 74 170s106 103 193 109v0h26
c59 0 120 -15 183 -44v0c1 0 65 -32 191 -97v0c88 -47 177 -79 267 -94v0l-105 -172c-17 -2 -35 -4 -52 -7z" />
    <glyph glyph-name="uniFEA3" unicode="&#x62d;" horiz-adv-x="1100" arabic-form="initial" 
d="M1031 472v0l-68 -204c-9 1 -17 2 -26 2v0c-26 0 -50 -5 -73 -16v0c-20 -3 -65 -28 -136 -76v0c-64 -44 -124 -76 -180 -95v0c-68 -27 -199 -41 -392 -41v0h-160v219h323c65 0 120 7 163 22s104 45 182 91v0c-53 51 -128 100 -225 146v0c-68 26 -129 39 -182 39v0
c-27 0 -51 -3 -70 -10v0c-21 -9 -50 -35 -85 -80v0l-24 18c76 183 159 276 250 278v0l25 1c83 -1 187 -46 310 -135v0c123 -83 245 -136 368 -159z" />
    <glyph glyph-name="uniFEA4" unicode="&#x62d;" horiz-adv-x="1100" arabic-form="medial" 
d="M1122 261v-219h-157c-5 -1 -9 -1 -14 -1v0c-46 0 -94 21 -145 63v0c-56 45 -90 118 -102 219v0c-33 -3 -66 -20 -97 -50v0l-123 -108c-93 -82 -232 -123 -416 -123v0h-72v219h68c119 0 225 20 318 60v0c97 42 175 83 234 124v0c-161 73 -260 115 -297 124v0
c-30 7 -55 11 -75 11v0c-5 0 -9 0 -12 -1v0c-22 -2 -46 -10 -71 -23c-26 -14 -51 -39 -76 -75v0l-27 8c12 58 43 118 94 179v0c56 65 113 98 172 98v0c70 0 142 -16 215 -49v0c68 -30 117 -54 147 -72v0c151 -67 274 -107 367 -122v0l-73 -151c-13 1 -27 2 -41 2v0
c-31 0 -60 -3 -87 -10v0c0 -27 9 -50 27 -68c18 -19 49 -30 93 -35v0h150z" />
    <glyph glyph-name="uniFEA5" unicode="&#x62e;" horiz-adv-x="1100" arabic-form="isolated" 
d="M1100 -329v0l28 -25c-5 -20 -34 -51 -85 -92v0c-64 -56 -141 -100 -231 -132c-91 -33 -167 -49 -230 -49v0c-17 -2 -38 -3 -61 -3v0c-60 0 -124 11 -191 32v0c-103 30 -183 80 -240 151s-86 164 -88 280v0l-1 21c0 141 50 263 150 364v0c72 65 138 112 199 143
c61 30 146 62 256 95v0l43 13c-54 23 -106 46 -155 69v0c-59 24 -118 38 -177 41v0h-8c-57 0 -113 -35 -167 -105v0l-29 13c7 46 32 103 74 170s106 103 193 109v0h26c59 0 120 -15 183 -44v0c1 0 65 -32 191 -97v0c88 -47 177 -79 267 -94v0l-105 -172
c-289 -35 -475 -82 -560 -139v0c-64 -40 -114 -83 -150 -128c-36 -46 -58 -90 -65 -132v0c-4 -24 -6 -46 -6 -65v0c0 -20 2 -40 6 -59c3 -19 14 -45 33 -78s42 -62 71 -85s72 -44 129 -62s138 -27 242 -27v0c190 0 343 29 458 87zM400 896l-130 129l127 127l129 -129z" />
    <glyph glyph-name="uniFEA6" unicode="&#x62e;" horiz-adv-x="1100" arabic-form="final" 
d="M890 352v0c1 -23 8 -42 20 -57v0c17 -23 40 -34 69 -34v0h138v-219h-114c-49 0 -89 6 -118 19c-30 13 -57 41 -81 84v0c-23 40 -34 103 -34 188v0v2c-192 -31 -321 -70 -388 -115v0c-64 -40 -114 -83 -150 -128c-36 -46 -58 -90 -65 -132v0c-4 -24 -6 -46 -6 -65v0
c0 -20 2 -40 6 -59c3 -19 14 -45 33 -78s42 -62 71 -85s72 -44 129 -62s138 -27 242 -27v0c190 0 343 29 458 87v0l28 -25c-5 -20 -34 -51 -85 -92v0c-64 -56 -141 -100 -231 -132c-91 -33 -167 -49 -230 -49v0c-17 -2 -38 -3 -61 -3v0c-60 0 -124 11 -191 32v0
c-103 30 -183 81 -240 153s-86 165 -88 278v0l-1 21c0 141 50 263 150 364v0c72 65 138 112 199 143c61 30 146 62 256 95v0l43 13c-54 23 -106 46 -155 69v0c-59 24 -118 38 -177 41v0h-8c-57 0 -113 -35 -167 -105v0l-29 13c7 46 32 103 74 170s106 103 193 109v0h26
c59 0 120 -15 183 -44v0c1 0 65 -32 191 -97v0c88 -47 177 -79 267 -94v0l-105 -172c-17 -2 -35 -4 -52 -7zM400 898l-130 129l127 127l129 -129z" />
    <glyph glyph-name="uniFEA7" unicode="&#x62e;" horiz-adv-x="1100" arabic-form="initial" 
d="M1031 472v0l-68 -204c-9 1 -17 2 -26 2v0c-26 0 -50 -5 -73 -16v0c-20 -3 -65 -28 -136 -76v0c-64 -44 -124 -76 -180 -95v0c-68 -27 -199 -41 -392 -41v0h-160v219h323c65 0 120 7 163 22s104 45 182 91v0c-53 51 -128 100 -225 146v0c-68 26 -129 39 -182 39v0
c-27 0 -51 -3 -70 -10v0c-21 -9 -50 -35 -85 -80v0l-24 18c76 183 159 276 250 278v0l25 1c83 -1 187 -46 310 -135v0c123 -83 245 -136 368 -159zM399 895l-130 129l127 127l129 -129z" />
    <glyph glyph-name="uniFEA8" unicode="&#x62e;" horiz-adv-x="1100" arabic-form="medial" 
d="M1122 261v-219h-157c-5 -1 -9 -1 -14 -1v0c-46 0 -94 21 -145 63v0c-56 45 -90 118 -102 219v0c-33 -3 -66 -20 -97 -50v0l-123 -108c-93 -82 -232 -123 -416 -123v0h-72v219h68c119 0 225 20 318 60v0c97 42 175 83 234 124v0c-161 73 -260 115 -297 124v0
c-30 7 -55 11 -75 11v0c-5 0 -9 0 -12 -1v0c-22 -2 -46 -10 -71 -23c-26 -14 -51 -39 -76 -75v0l-27 8c12 58 43 118 94 179v0c56 65 113 98 172 98v0c70 0 142 -16 215 -49v0c68 -30 117 -54 147 -72v0c151 -67 274 -107 367 -122v0l-73 -151c-13 1 -27 2 -41 2v0
c-31 0 -60 -3 -87 -10v0c0 -27 9 -50 27 -68c18 -19 49 -30 93 -35v0h150zM402 898l-130 129l127 127l129 -129z" />
    <glyph glyph-name="uniFEA9" unicode="&#x62f;" horiz-adv-x="900" arabic-form="isolated" 
d="M785 444v0v-60c0 -73 -13 -134 -39 -184v0c-49 -103 -102 -155 -160 -155v0h-308c-98 4 -150 61 -156 171v0v17c3 47 18 98 45 154v0c5 4 10 6 14 6v0c6 0 11 -4 16 -13v0v-9c0 -47 10 -77 29 -90v0c17 -13 47 -19 89 -19v0h226c63 4 98 28 104 72v0c0 21 -14 53 -43 95
c-29 41 -104 120 -223 237v0l112 198c112 -115 185 -197 220 -248c34 -51 59 -109 74 -172z" />
    <glyph glyph-name="uniFEAA" unicode="&#x62f;" horiz-adv-x="1000" arabic-form="final" 
d="M951 261h63v-219h-66c-130 0 -214 55 -253 166v0h-5c-51 -109 -130 -163 -238 -163v0h-9l-152 -1h-8c-119 0 -185 64 -196 191v0v11c0 85 21 152 63 199v0c3 1 5 1 7 1v0c7 0 12 -6 13 -19v0c-5 -23 -7 -44 -7 -62v0c0 -31 7 -53 20 -67v0c21 -23 50 -36 87 -37v0h253
c69 1 104 34 104 98v0c0 9 -1 20 -2 31v0c-9 50 -29 99 -62 148c-33 48 -66 95 -100 140v0l104 185c115 -127 196 -277 242 -451v0c17 -60 36 -100 56 -120c19 -21 48 -31 86 -31v0z" />
    <glyph glyph-name="uniFEAB" unicode="&#x630;" horiz-adv-x="900" arabic-form="isolated" 
d="M785 444v0v-60c0 -73 -13 -134 -39 -184v0c-49 -103 -102 -155 -160 -155v0h-308c-98 4 -150 61 -156 171v0v17c3 47 18 98 45 154v0c5 4 10 6 14 6v0c6 0 11 -4 16 -13v0v-9c0 -47 10 -77 29 -90v0c17 -13 47 -19 89 -19v0h226c63 4 98 28 104 72v0c0 21 -14 53 -43 95
c-29 41 -104 120 -223 237v0l112 198c112 -115 185 -197 220 -248c34 -51 59 -109 74 -172zM352 997l-130 129l127 127l129 -129z" />
    <glyph glyph-name="uniFEAC" unicode="&#x630;" horiz-adv-x="1000" arabic-form="final" 
d="M952 261h63v-219h-66c-130 0 -214 55 -253 166v0h-5c-51 -109 -130 -163 -238 -163v0h-9l-152 -1h-8c-119 0 -185 64 -196 191v0v11c0 85 21 152 63 199v0c3 1 5 1 7 1v0c7 0 12 -6 13 -19v0c-5 -23 -7 -44 -7 -62v0c0 -31 7 -53 20 -67v0c21 -23 50 -36 87 -37v0h253
c69 1 104 34 104 98v0c0 9 -1 20 -2 31v0c-9 50 -29 99 -62 148c-33 48 -66 95 -100 140v0l104 185c115 -127 196 -277 242 -451v0c17 -60 36 -100 56 -120c19 -21 48 -31 86 -31v0zM493 1002l-130 129l127 127l129 -129z" />
    <glyph glyph-name="uniFEAD" unicode="&#x631;" horiz-adv-x="800" arabic-form="isolated" 
d="M699 116v-61c0 -144 -35 -267 -106 -369v0c-63 -100 -154 -153 -274 -158v0c-119 11 -208 45 -268 100v0c-9 9 -13 16 -13 21v0c0 7 7 11 20 13v0c173 33 310 92 412 179v0c61 52 92 108 92 168v0v13c-1 37 -38 116 -112 237v0l-51 73l143 183c6 8 11 12 16 12v0
c7 0 13 -6 19 -18v0c74 -149 115 -280 122 -393v0z" />
    <glyph glyph-name="uniFEAE" unicode="&#x631;" horiz-adv-x="900" arabic-form="final" 
d="M926 261v-219h-133c-62 0 -106 15 -133 45v0c1 -22 2 -43 2 -64v0c0 -122 -27 -222 -81 -299v0c-77 -113 -179 -175 -308 -186v0c-100 6 -191 38 -274 96v0c-3 5 -4 10 -4 14v0c0 7 5 12 16 15v0c188 34 336 94 444 181v0c46 49 69 102 69 161v0c0 6 0 12 -1 17v0
c-22 93 -59 178 -111 256v0l-49 70l152 176c5 5 10 7 14 7v0c5 0 9 -4 12 -12v0c36 -97 72 -164 107 -200v0c33 -39 75 -58 126 -58v0h152z" />
    <glyph glyph-name="uniFEAF" unicode="&#x632;" horiz-adv-x="800" arabic-form="isolated" 
d="M700 116v-61c0 -144 -35 -267 -106 -369v0c-63 -100 -154 -153 -274 -158v0c-119 11 -208 45 -268 100v0c-9 9 -13 16 -13 21v0c0 7 7 11 20 13v0c173 33 310 92 412 179v0c61 52 92 108 92 168v0v13c-1 37 -38 116 -112 237v0l-51 73l143 183c6 8 11 12 16 12v0
c7 0 13 -6 19 -18v0c74 -149 115 -280 122 -393v0zM402 704l-130 129l127 127l129 -129z" />
    <glyph glyph-name="uniFEB0" unicode="&#x632;" horiz-adv-x="900" arabic-form="final" 
d="M926 261v-219h-133c-62 0 -106 15 -133 45v0c1 -22 2 -43 2 -64v0c0 -122 -27 -222 -81 -299v0c-77 -113 -179 -175 -308 -186v0c-100 6 -191 38 -274 96v0c-3 5 -4 10 -4 14v0c0 7 5 12 16 15v0c188 34 336 94 444 181v0c46 49 69 102 69 161v0c0 6 0 12 -1 17v0
c-22 93 -59 178 -111 256v0l-49 70l152 176c5 5 10 7 14 7v0c5 0 9 -4 12 -12v0c36 -97 72 -164 107 -200v0c33 -39 75 -58 126 -58v0h152zM402 696l-130 129l127 127l129 -129z" />
    <glyph glyph-name="uniFEB1" unicode="&#x633;" horiz-adv-x="1700" arabic-form="isolated" 
d="M1528 691c70 -135 106 -258 108 -371v0c0 -9 0 -17 -1 -24v0c-5 -43 -14 -84 -27 -121v0c-35 -92 -101 -138 -198 -138v0c-13 0 -27 1 -41 2v0c-93 3 -158 52 -195 148v0c-17 -57 -38 -96 -65 -117s-54 -31 -80 -31v0c-26 0 -49 3 -70 8v0v-26c0 -165 -48 -299 -143 -401
v0c-101 -107 -228 -161 -381 -161v0h-3c-277 0 -421 146 -430 437v0c8 169 57 314 146 436v0l40 4c-46 -144 -69 -238 -69 -281v0c0 -193 62 -311 185 -352v0c55 -17 104 -25 146 -25v0c59 0 119 8 178 25v0c72 22 131 62 176 121v0c25 31 37 75 37 130v0v13
c-2 62 -18 127 -47 194s-59 120 -88 157v0l121 139c25 -55 46 -96 64 -125c17 -29 36 -49 57 -59v0c20 -10 47 -15 80 -15v0c1 0 3 0 4 1v0c35 0 63 13 85 39c21 25 36 84 45 175v0c5 5 10 8 15 8v0c4 0 8 -2 13 -5v0c25 -81 44 -130 57 -149s30 -37 52 -54s50 -25 83 -25v0
c66 0 99 20 99 61v0c0 51 -37 125 -111 223v0z" />
    <glyph glyph-name="uniFEB2" unicode="&#x633;" horiz-adv-x="1700" arabic-form="final" 
d="M1719 261v-219h-91c-72 1 -132 57 -180 168v0c-19 -65 -41 -111 -67 -138v0c-21 -22 -49 -33 -84 -33v0c-10 0 -21 1 -32 3v0c-72 3 -124 55 -155 155v0c-33 -103 -95 -155 -186 -155v0c-5 0 -11 0 -17 1v0l-16 2v-25c0 -233 -74 -392 -223 -478v0
c-35 -16 -73 -30 -114 -43v0c-41 -9 -88 -14 -143 -14v0h-33c-97 5 -182 40 -257 105s-116 159 -121 283v0c-1 12 -2 23 -2 34v0c0 72 10 144 31 216v0c28 96 70 178 127 245v0l30 8l2 -25c-53 -109 -80 -217 -80 -326v0c0 -109 31 -189 94 -241v0c71 -56 148 -84 231 -84v0
c18 0 36 1 55 3v0c186 17 280 99 283 246v0v8c0 36 -11 90 -33 161v0c-23 69 -51 133 -84 193v0l129 170h2c15 -45 32 -85 51 -120s38 -57 58 -67c20 -11 47 -16 82 -17v0h2c33 0 63 13 88 39v0c25 27 48 91 67 192v0c4 5 7 8 10 8v0c4 0 8 -3 11 -10v0
c13 -82 28 -136 44 -163v0c27 -47 61 -70 103 -70v0h5c31 0 57 10 77 29v0c24 22 44 91 60 208v0c5 8 9 12 13 12v0c4 0 9 -4 14 -12v0c10 -60 19 -102 28 -127v0c42 -81 85 -122 128 -122v0h93z" />
    <glyph glyph-name="uniFEB3" unicode="&#x633;" horiz-adv-x="1300" arabic-form="initial" 
d="M1164 119c-42 -52 -107 -79 -194 -82v0h-10c-68 0 -124 15 -167 45c-44 30 -76 81 -97 152v0c-16 -59 -43 -112 -80 -157v0c-25 -26 -53 -39 -83 -39v0h-38c-93 0 -158 66 -193 199v0c-44 -130 -112 -195 -205 -195v0h-101v219h92c85 8 141 39 169 93
c27 54 43 117 48 189v0c5 7 9 10 13 10v0c5 0 9 -3 13 -10v0c7 -73 28 -137 65 -192v0c33 -54 66 -81 99 -81v0h50c77 0 128 89 154 266v0c3 5 7 7 11 7v0c4 0 8 -1 12 -4v0c10 -56 23 -104 40 -145s40 -72 71 -93c30 -21 70 -31 121 -31v0c57 0 93 7 106 20v0
c13 12 19 24 19 36v0v3c-1 13 -31 74 -89 182v0l102 172c5 9 10 13 15 13v0c5 0 10 -4 15 -13v0c69 -119 104 -225 104 -317v0v-15c0 -103 -21 -180 -62 -232z" />
    <glyph glyph-name="uniFEB4" unicode="&#x633;" horiz-adv-x="1400" arabic-form="medial" 
d="M1428 261v-219h-127c-43 1 -82 12 -117 33v0c-42 22 -76 72 -103 150v0c-43 -125 -115 -188 -214 -188v0c-75 0 -137 61 -187 183v0c-11 -44 -23 -77 -36 -98s-31 -40 -54 -57v0c-21 -15 -45 -23 -73 -23v0h-40c-54 0 -98 23 -132 70v0c-19 22 -35 56 -47 103v0
c-30 -85 -76 -139 -139 -160v0c-27 -9 -59 -13 -95 -13v0h-68v219h124c35 1 66 13 95 36c28 23 54 87 79 191v0l8 51c4 6 9 9 14 9v0c5 0 9 -2 12 -6v0c19 -97 40 -163 61 -198s42 -57 61 -64c19 -8 44 -12 74 -12v0c79 0 133 92 164 277v0c5 6 9 9 14 9v0c5 0 11 -3 16 -9
v0c26 -106 46 -170 61 -192v0c37 -57 75 -86 114 -86v0c65 0 115 28 150 84v0c25 41 44 104 56 189v0c3 7 7 10 12 10v0c3 0 7 -2 11 -7v0c43 -147 81 -232 114 -253v0c29 -19 68 -29 118 -29v0h74z" />
    <glyph glyph-name="uniFEB5" unicode="&#x634;" horiz-adv-x="1700" arabic-form="isolated" 
d="M1527 691c70 -135 106 -258 108 -371v0c0 -9 0 -17 -1 -24v0c-5 -43 -14 -84 -27 -121v0c-35 -92 -101 -138 -198 -138v0c-13 0 -27 1 -41 2v0c-93 3 -158 52 -195 148v0c-17 -57 -38 -96 -65 -117s-54 -31 -80 -31v0c-26 0 -49 3 -70 8v0v-26c0 -165 -48 -299 -143 -401
v0c-101 -107 -228 -161 -381 -161v0h-3c-277 0 -421 146 -430 437v0c8 169 57 314 146 436v0l40 4c-46 -144 -69 -238 -69 -281v0c0 -193 62 -311 185 -352v0c55 -17 104 -25 146 -25v0c59 0 119 8 178 25v0c72 22 131 62 176 121v0c25 31 37 75 37 130v0v13
c-2 62 -18 127 -47 194s-59 120 -88 157v0l121 139c25 -55 46 -96 64 -125c17 -29 36 -49 57 -59v0c20 -10 47 -15 80 -15v0c1 0 3 0 4 1v0c35 0 63 13 85 39c21 25 36 84 45 175v0c5 5 10 8 15 8v0c4 0 8 -2 13 -5v0c25 -81 44 -130 57 -149s30 -37 52 -54s50 -25 83 -25v0
c66 0 99 20 99 61v0c0 51 -37 125 -111 223v0zM1131 946l-130 129l127 127l129 -129zM943 703l-130 129l127 127l129 -129zM1320 707l-130 129l127 127l129 -129z" />
    <glyph glyph-name="uniFEB6" unicode="&#x634;" horiz-adv-x="1700" arabic-form="final" 
d="M1719 261v-219h-91c-72 1 -132 57 -180 168v0c-19 -65 -41 -111 -67 -138v0c-21 -22 -49 -33 -84 -33v0c-10 0 -21 1 -32 3v0c-72 3 -124 55 -155 155v0c-33 -103 -95 -155 -186 -155v0c-5 0 -11 0 -17 1v0l-16 2v-25c0 -233 -74 -392 -223 -478v0
c-35 -16 -73 -30 -114 -43v0c-41 -9 -88 -14 -143 -14v0h-33c-97 5 -182 40 -257 105s-116 159 -121 283v0c-1 12 -2 23 -2 34v0c0 72 10 144 31 216v0c28 96 70 178 127 245v0l30 8l2 -25c-53 -109 -80 -217 -80 -326v0c0 -109 31 -189 94 -241v0c71 -56 148 -84 231 -84v0
c18 0 36 1 55 3v0c186 17 280 99 283 246v0v8c0 36 -11 90 -33 161v0c-23 69 -51 133 -84 193v0l129 170h2c15 -45 32 -85 51 -120s38 -57 58 -67c20 -11 47 -16 82 -17v0h2c33 0 63 13 88 39v0c25 27 48 91 67 192v0c4 5 7 8 10 8v0c4 0 8 -3 11 -10v0
c13 -82 28 -136 44 -163v0c27 -47 61 -70 103 -70v0h5c31 0 57 10 77 29v0c24 22 44 91 60 208v0c5 8 9 12 13 12v0c4 0 9 -4 14 -12v0c10 -60 19 -102 28 -127v0c42 -81 85 -122 128 -122v0h93zM1141 942l-130 129l127 127l129 -129zM953 699l-130 129l127 127l129 -129z
M1330 703l-130 129l127 127l129 -129z" />
    <glyph glyph-name="uniFEB7" unicode="&#x634;" horiz-adv-x="1300" arabic-form="initial" 
d="M1164 119c-42 -52 -107 -79 -194 -82v0h-10c-68 0 -124 15 -167 45c-44 30 -76 81 -97 152v0c-16 -59 -43 -112 -80 -157v0c-25 -26 -53 -39 -83 -39v0h-38c-93 0 -158 66 -193 199v0c-44 -130 -112 -195 -205 -195v0h-101v219h92c85 8 141 39 169 93
c27 54 43 117 48 189v0c5 7 9 10 13 10v0c5 0 9 -3 13 -10v0c7 -73 28 -137 65 -192v0c33 -54 66 -81 99 -81v0h50c77 0 128 89 154 266v0c3 5 7 7 11 7v0c4 0 8 -1 12 -4v0c10 -56 23 -104 40 -145s40 -72 71 -93c30 -21 70 -31 121 -31v0c57 0 93 7 106 20v0
c13 12 19 24 19 36v0v3c-1 13 -31 74 -89 182v0l102 172c5 9 10 13 15 13v0c5 0 10 -4 15 -13v0c69 -119 104 -225 104 -317v0v-15c0 -103 -21 -180 -62 -232zM704 938l-130 129l127 127l129 -129zM516 695l-130 129l127 127l129 -129zM893 699l-130 129l127 127l129 -129z
" />
    <glyph glyph-name="uniFEB8" unicode="&#x634;" horiz-adv-x="1400" arabic-form="medial" 
d="M1428 261v-219h-127c-43 1 -82 12 -117 33v0c-42 22 -76 72 -103 150v0c-43 -125 -115 -188 -214 -188v0c-75 0 -137 61 -187 183v0c-11 -44 -23 -77 -36 -98s-31 -40 -54 -57v0c-21 -15 -45 -23 -73 -23v0h-40c-54 0 -98 23 -132 70v0c-19 22 -35 56 -47 103v0
c-30 -85 -76 -139 -139 -160v0c-27 -9 -59 -13 -95 -13v0h-68v219h124c35 1 66 13 95 36c28 23 54 87 79 191v0l8 51c4 6 9 9 14 9v0c5 0 9 -2 12 -6v0c19 -97 40 -163 61 -198s42 -57 61 -64c19 -8 44 -12 74 -12v0c79 0 133 92 164 277v0c5 6 9 9 14 9v0c5 0 11 -3 16 -9
v0c26 -106 46 -170 61 -192v0c37 -57 75 -86 114 -86v0c65 0 115 28 150 84v0c25 41 44 104 56 189v0c3 7 7 10 12 10v0c3 0 7 -2 11 -7v0c43 -147 81 -232 114 -253v0c29 -19 68 -29 118 -29v0h74zM700 938l-130 129l127 127l129 -129zM512 695l-130 129l127 127l129 -129z
M889 699l-130 129l127 127l129 -129z" />
    <glyph glyph-name="uniFEB9" unicode="&#x635;" horiz-adv-x="1800" arabic-form="isolated" 
d="M1424 434v0c-4 1 -8 1 -11 1v0c-85 0 -168 -58 -251 -174v0h286c66 0 101 27 105 81v0v6c0 53 -43 81 -129 86zM988 43v0c-31 4 -57 10 -78 17v0c-7 -379 -177 -569 -512 -569v0c-263 0 -394 137 -394 411v0c0 137 40 277 121 422v0l20 1c-31 -149 -47 -240 -47 -275v0
c0 -180 65 -291 195 -334v0c24 -6 71 -9 142 -9v0c16 -1 32 -1 47 -1v0c19 0 37 1 56 2v0c35 2 63 6 84 11v0c43 9 83 30 120 65v0c36 33 54 80 54 143v0c0 87 -33 197 -99 331v0l79 185l20 -9c48 -113 108 -171 181 -173v0h63c117 206 231 323 344 350v0c25 4 44 7 57 9
c13 1 29 2 49 2v0c72 0 129 -24 171 -73v0c39 -43 60 -105 63 -185v0v-16c0 -73 -15 -132 -46 -177v0c-69 -85 -139 -129 -210 -130v0h-400c-22 -19 -43 -53 -63 -101v0h-30c-1 7 -1 13 -1 20v0c0 29 5 56 14 83z" />
    <glyph glyph-name="uniFEBA" unicode="&#x635;" horiz-adv-x="1900" arabic-form="final" 
d="M1424 434v0c-4 1 -8 1 -11 1v0c-85 0 -169 -58 -253 -174v0h286c67 0 103 27 107 81v0v6c0 53 -43 81 -129 86zM1715 261v0h205v-219h-72c-69 3 -125 45 -168 125v0c-1 1 -1 3 -2 4v0c-69 -86 -139 -129 -210 -129v0h-400c-22 -20 -43 -54 -63 -102v0h-30
c-1 7 -1 13 -1 20v0c0 29 5 57 14 84v0c-31 3 -57 9 -78 16v0c-7 -379 -177 -569 -512 -569v0c-263 0 -394 137 -394 411v0c0 137 40 277 121 422v0l20 1c-31 -149 -47 -240 -47 -275v0c0 -180 65 -291 195 -334v0c24 -6 71 -9 142 -9v0c16 -1 32 -1 47 -1v0c19 0 37 1 56 2
v0c35 2 63 6 84 11v0c43 9 83 30 120 65v0c36 33 54 80 54 143v0c0 87 -33 197 -99 331v0l79 185l20 -9c48 -113 108 -171 179 -173v0h63c118 206 233 323 346 350v0c25 4 44 7 57 9c13 1 29 2 49 2v0c72 0 129 -24 171 -73v0c39 -43 60 -105 63 -185v0v-16
c0 -32 -3 -61 -9 -87z" />
    <glyph glyph-name="uniFEBB" unicode="&#x635;" horiz-adv-x="1400" arabic-form="initial" 
d="M997 434v0c-4 1 -8 1 -11 1v0c-85 0 -169 -58 -253 -174v0h286c67 0 103 27 107 81v0v6c0 53 -43 81 -129 86zM564 261v0c0 1 0 1 1 1v0v-1h46c118 206 233 323 346 350v0c25 4 44 7 57 9c13 1 29 2 49 2v0c72 0 129 -24 171 -73v0c39 -43 60 -105 63 -185v0v-16
c0 -73 -15 -132 -46 -177v0c-69 -85 -140 -128 -212 -129v0h-400c-21 -20 -41 -54 -61 -102v0h-30c-1 7 -1 13 -1 20v0c0 28 4 55 11 82v0c-48 1 -91 11 -129 30v0c-39 19 -70 54 -93 105v0c-48 -89 -114 -134 -198 -135v0h-150v219h113c36 0 76 10 119 31v0
c47 22 87 92 121 211v0h17c53 -157 122 -237 206 -242z" />
    <glyph glyph-name="uniFEBC" unicode="&#x635;" horiz-adv-x="1400" arabic-form="medial" 
d="M975 434v0c-4 1 -8 1 -11 1v0c-85 0 -169 -58 -253 -174v0h286c67 0 103 27 107 81v0v6c0 53 -43 81 -129 86zM544 261v0h45c118 206 233 323 346 350v0c25 4 44 7 57 9c13 1 29 2 49 2v0c72 0 129 -24 171 -73v0c39 -43 60 -105 63 -185v0v-16c0 -32 -3 -61 -9 -87v0
h158v-219h-63c-77 3 -133 33 -168 89v0c-57 -59 -115 -88 -174 -88v0h-400c-22 -21 -43 -55 -63 -103v0h-30c-1 7 -1 13 -1 20v0c0 28 4 56 13 83v0c-49 1 -92 10 -129 29v0c-39 19 -70 54 -93 105v0c-48 -89 -114 -134 -198 -135v0h-130v219h102c33 0 70 10 110 31v0
c47 22 87 92 121 211v0h17c53 -159 122 -239 206 -242z" />
    <glyph glyph-name="uniFEBD" unicode="&#x636;" horiz-adv-x="1800" arabic-form="isolated" 
d="M1424 434v0c-4 1 -8 1 -11 1v0c-85 0 -168 -58 -251 -174v0h286c66 0 101 27 105 81v0v6c0 53 -43 81 -129 86zM988 43v0c-31 4 -57 10 -78 17v0c-7 -379 -177 -569 -512 -569v0c-263 0 -394 137 -394 411v0c0 137 40 277 121 422v0l20 1c-31 -149 -47 -240 -47 -275v0
c0 -180 65 -291 195 -334v0c24 -6 71 -9 142 -9v0c16 -1 32 -1 47 -1v0c19 0 37 1 56 2v0c35 2 63 6 84 11v0c43 9 83 30 120 65v0c36 33 54 80 54 143v0c0 87 -33 197 -99 331v0l79 185l20 -9c48 -113 108 -171 181 -173v0h63c117 206 231 323 344 350v0c25 4 44 7 57 9
c13 1 29 2 49 2v0c72 0 129 -24 171 -73v0c39 -43 60 -105 63 -185v0v-16c0 -73 -15 -132 -46 -177v0c-69 -85 -139 -129 -210 -130v0h-400c-22 -19 -43 -53 -63 -101v0h-30c-1 7 -1 13 -1 20v0c0 29 5 56 14 83zM1299 742l-130 129l127 127l129 -129z" />
    <glyph glyph-name="uniFEBE" unicode="&#x636;" horiz-adv-x="1900" arabic-form="final" 
d="M1424 434v0c-4 1 -8 1 -11 1v0c-85 0 -169 -58 -253 -174v0h286c67 0 103 27 107 81v0v6c0 53 -43 81 -129 86zM1715 261v0h205v-219h-72c-69 3 -125 45 -168 125v0c-1 1 -1 3 -2 4v0c-69 -86 -139 -129 -210 -129v0h-400c-22 -20 -43 -54 -63 -102v0h-30
c-1 7 -1 13 -1 20v0c0 29 5 57 14 84v0c-31 3 -57 9 -78 16v0c-7 -379 -177 -569 -512 -569v0c-263 0 -394 137 -394 411v0c0 137 40 277 121 422v0l20 1c-31 -149 -47 -240 -47 -275v0c0 -180 65 -291 195 -334v0c24 -6 71 -9 142 -9v0c16 -1 32 -1 47 -1v0c19 0 37 1 56 2
v0c35 2 63 6 84 11v0c43 9 83 30 120 65v0c36 33 54 80 54 143v0c0 87 -33 197 -99 331v0l79 185l20 -9c48 -113 108 -171 179 -173v0h63c118 206 233 323 346 350v0c25 4 44 7 57 9c13 1 29 2 49 2v0c72 0 129 -24 171 -73v0c39 -43 60 -105 63 -185v0v-16
c0 -32 -3 -61 -9 -87zM1302 742l-130 129l127 127l129 -129z" />
    <glyph glyph-name="uniFEBF" unicode="&#x636;" horiz-adv-x="1400" arabic-form="initial" 
d="M997 434v0c-4 1 -8 1 -11 1v0c-85 0 -169 -58 -253 -174v0h286c67 0 103 27 107 81v0v6c0 53 -43 81 -129 86zM564 261v0c0 1 0 1 1 1v0v-1h46c118 206 233 323 346 350v0c25 4 44 7 57 9c13 1 29 2 49 2v0c72 0 129 -24 171 -73v0c39 -43 60 -105 63 -185v0v-16
c0 -73 -15 -132 -46 -177v0c-69 -85 -140 -128 -212 -129v0h-400c-21 -20 -41 -54 -61 -102v0h-30c-1 7 -1 13 -1 20v0c0 28 4 55 11 82v0c-48 1 -91 11 -129 30v0c-39 19 -70 54 -93 105v0c-48 -89 -114 -134 -198 -135v0h-150v219h113c36 0 76 10 119 31v0
c47 22 87 92 121 211v0h17c53 -157 122 -237 206 -242zM901 742l-130 129l127 127l129 -129z" />
    <glyph glyph-name="uniFEC0" unicode="&#x636;" horiz-adv-x="1400" arabic-form="medial" 
d="M975 434v0c-4 1 -8 1 -11 1v0c-85 0 -169 -58 -253 -174v0h286c67 0 103 27 107 81v0v6c0 53 -43 81 -129 86zM544 261v0h45c118 206 233 323 346 350v0c25 4 44 7 57 9c13 1 29 2 49 2v0c72 0 129 -24 171 -73v0c39 -43 60 -105 63 -185v0v-16c0 -32 -3 -61 -9 -87v0
h158v-219h-63c-77 3 -133 33 -168 89v0c-57 -59 -115 -88 -174 -88v0h-400c-22 -21 -43 -55 -63 -103v0h-30c-1 7 -1 13 -1 20v0c0 28 4 56 13 83v0c-49 1 -92 10 -129 29v0c-39 19 -70 54 -93 105v0c-48 -89 -114 -134 -198 -135v0h-130v219h102c33 0 70 10 110 31v0
c47 22 87 92 121 211v0h17c53 -159 122 -239 206 -242zM900 742l-130 129l127 127l129 -129z" />
    <glyph glyph-name="uniFEC1" unicode="&#x637;" horiz-adv-x="1300" arabic-form="isolated" 
d="M916 434v0c-4 1 -8 1 -12 1v0c-74 0 -170 -58 -287 -173v0h330c69 0 104 27 107 80v0v5c0 53 -46 82 -138 87zM578 1158v-832c27 52 57 95 90 128s68 65 105 94s78 50 124 63v0c23 4 44 7 65 9c21 1 40 2 58 2v0c46 0 90 -20 133 -60v0c50 -41 75 -94 75 -157v0v-6
c1 -11 2 -23 2 -34v0c0 -48 -12 -93 -35 -136v0c-23 -45 -63 -88 -120 -129v0c-53 -39 -109 -59 -166 -59v0h-387c-19 -17 -32 -46 -39 -85v0h-36c-1 12 -2 24 -2 36v0c0 17 1 34 4 49v0h-103c-229 1 -344 100 -344 297v0c0 23 2 46 6 71v0l26 15c39 -109 149 -163 330 -163
v0c47 0 77 0 91 1v0l-71 896c0 26 -3 52 -10 79v0c0 40 20 80 61 119v0l102 110h17c17 -69 38 -145 62 -228v0c-13 0 -24 -10 -33 -31v0c-3 -18 -5 -34 -5 -49v0z" />
    <glyph glyph-name="uniFEC2" unicode="&#x637;" horiz-adv-x="1400" arabic-form="final" 
d="M936 434v0c-4 1 -8 1 -12 1v0c-74 0 -169 -58 -286 -174v0h328c69 0 105 27 108 81v0v5c0 53 -46 82 -138 87zM1225 263v0h199v-221h-71c-86 11 -148 51 -187 118v0c-25 -23 -48 -43 -71 -60v0c-53 -39 -107 -58 -164 -58v0h-390c-19 -18 -31 -47 -38 -86v0h-36
c-1 12 -2 24 -2 36v0c0 17 2 34 5 50v0h-133c-223 1 -335 99 -335 296v0c0 23 2 46 6 71v0l26 15c39 -109 146 -163 320 -163v0c67 0 107 0 121 1v0l-71 886c0 26 -3 52 -10 79v0c0 40 20 80 61 119v0l102 110h17c17 -69 38 -145 62 -228v0c-13 0 -24 -10 -33 -31v0
c-3 -18 -5 -34 -5 -49v0v-822c27 52 57 95 90 128s68 65 105 94s78 50 124 63v0c23 4 44 7 65 9c21 1 40 2 58 2v0c46 0 90 -20 133 -60v0c50 -41 75 -94 75 -157v0v-6c1 -11 2 -23 2 -34v0c0 -31 -8 -65 -25 -102z" />
    <glyph glyph-name="uniFEC3" unicode="&#x637;" horiz-adv-x="1100" arabic-form="initial" 
d="M690 434v0c-4 1 -8 1 -12 1v0c-74 0 -170 -58 -287 -174v0h328c70 0 106 27 109 81v0v5c0 53 -46 82 -138 87zM-22 42v219h251l-71 887c0 26 -3 52 -10 79v0c0 40 20 80 61 119v0l102 110h17c17 -69 38 -145 62 -228v0c-13 0 -24 -10 -33 -31v0c-3 -18 -5 -34 -5 -49v0
v-822c27 52 57 95 90 128s68 65 105 94s78 50 124 63v0c23 4 44 7 65 9c21 1 40 2 58 2v0c46 0 90 -20 133 -60v0c50 -41 75 -94 75 -157v0v-6c1 -11 2 -23 2 -34v0c0 -48 -12 -93 -35 -136v0c-23 -45 -63 -88 -120 -129v0c-53 -39 -108 -58 -165 -58v0h-390
c-18 -18 -30 -47 -37 -86v0h-36c-1 12 -2 24 -2 36v0c0 17 1 34 4 50v0h-245z" />
    <glyph glyph-name="uniFEC4" unicode="&#x637;" horiz-adv-x="1100" arabic-form="medial" 
d="M690 434v0c-4 1 -8 1 -12 1v0c-74 0 -170 -58 -287 -174v0h328c70 0 106 27 109 81v0v5c0 53 -46 82 -138 87zM977 263v0h142v-221h-58c-63 11 -107 53 -134 126v0c-21 -23 -47 -46 -78 -68v0c-53 -39 -107 -58 -164 -58v0h-390c-19 -18 -31 -47 -38 -86v0h-36
c-1 12 -2 24 -2 36v0c0 17 1 34 4 50v0h-245v219h251l-71 887c0 26 -3 52 -10 79v0c0 40 20 80 61 119v0l102 110h17c17 -69 38 -145 62 -228v0c-13 0 -24 -10 -33 -31v0c-3 -18 -5 -34 -5 -49v0v-822c27 52 57 95 90 128s68 65 105 94s78 50 124 63v0c23 4 44 7 65 9
c21 1 40 2 58 2v0c46 0 90 -20 133 -60v0c50 -41 75 -94 75 -157v0v-6c1 -11 2 -23 2 -34v0c0 -31 -9 -65 -27 -102z" />
    <glyph glyph-name="uniFEC5" unicode="&#x638;" horiz-adv-x="1300" arabic-form="isolated" 
d="M916 434v0c-4 1 -8 1 -12 1v0c-74 0 -170 -58 -287 -173v0h330c69 0 104 27 107 80v0v5c0 53 -46 82 -138 87zM578 1158v-832c27 52 57 95 90 128s68 65 105 94s78 50 124 63v0c23 4 44 7 65 9c21 1 40 2 58 2v0c46 0 90 -20 133 -60v0c50 -41 75 -94 75 -157v0v-6
c1 -11 2 -23 2 -34v0c0 -48 -12 -93 -35 -136v0c-23 -45 -63 -88 -120 -129v0c-53 -39 -109 -59 -166 -59v0h-387c-19 -17 -32 -46 -39 -85v0h-36c-1 12 -2 24 -2 36v0c0 17 1 34 4 49v0h-103c-229 1 -344 100 -344 297v0c0 23 2 46 6 71v0l26 15c39 -109 149 -163 330 -163
v0c47 0 77 0 91 1v0l-71 896c0 26 -3 52 -10 79v0c0 40 20 80 61 119v0l102 110h17c17 -69 38 -145 62 -228v0c-13 0 -24 -10 -33 -31v0c-3 -18 -5 -34 -5 -49v0zM901 742l-130 129l127 127l129 -129z" />
    <glyph glyph-name="uniFEC6" unicode="&#x638;" horiz-adv-x="1400" arabic-form="final" 
d="M936 434v0c-4 1 -8 1 -12 1v0c-74 0 -169 -58 -286 -174v0h328c69 0 105 27 108 81v0v5c0 53 -46 82 -138 87zM1225 263v0h199v-221h-71c-86 11 -148 51 -187 118v0c-25 -23 -48 -43 -71 -60v0c-53 -39 -107 -58 -164 -58v0h-390c-19 -18 -31 -47 -38 -86v0h-36
c-1 12 -2 24 -2 36v0c0 17 2 34 5 50v0h-133c-223 1 -335 99 -335 296v0c0 23 2 46 6 71v0l26 15c39 -109 146 -163 320 -163v0c67 0 107 0 121 1v0l-71 886c0 26 -3 52 -10 79v0c0 40 20 80 61 119v0l102 110h17c17 -69 38 -145 62 -228v0c-13 0 -24 -10 -33 -31v0
c-3 -18 -5 -34 -5 -49v0v-822c27 52 57 95 90 128s68 65 105 94s78 50 124 63v0c23 4 44 7 65 9c21 1 40 2 58 2v0c46 0 90 -20 133 -60v0c50 -41 75 -94 75 -157v0v-6c1 -11 2 -23 2 -34v0c0 -31 -8 -65 -25 -102zM900 742l-130 129l127 127l129 -129z" />
    <glyph glyph-name="uniFEC7" unicode="&#x638;" horiz-adv-x="1100" arabic-form="initial" 
d="M694 434v0c-4 1 -8 1 -12 1v0c-74 0 -170 -58 -287 -174v0h328c70 0 106 27 109 81v0v5c0 53 -46 82 -138 87zM-18 42v219h251l-71 887c0 26 -3 52 -10 79v0c0 40 20 80 61 119v0l102 110h17c17 -69 38 -145 62 -228v0c-13 0 -24 -10 -33 -31v0c-3 -18 -5 -34 -5 -49v0
v-822c27 52 57 95 90 128s68 65 105 94s78 50 124 63v0c23 4 44 7 65 9c21 1 40 2 58 2v0c46 0 90 -20 133 -60v0c50 -41 75 -94 75 -157v0v-6c1 -11 2 -23 2 -34v0c0 -48 -12 -93 -35 -136v0c-23 -45 -63 -88 -120 -129v0c-53 -39 -108 -58 -165 -58v0h-390
c-18 -18 -30 -47 -37 -86v0h-36c-1 12 -2 24 -2 36v0c0 17 1 34 4 50v0h-245zM609 742l-130 129l127 127l129 -129z" />
    <glyph glyph-name="uniFEC8" unicode="&#x638;" horiz-adv-x="1100" arabic-form="medial" 
d="M694 434v0c-4 1 -8 1 -12 1v0c-74 0 -170 -58 -287 -174v0h328c70 0 106 27 109 81v0v5c0 53 -46 82 -138 87zM981 263v0h142v-221h-58c-63 11 -107 53 -134 126v0c-21 -23 -47 -46 -78 -68v0c-53 -39 -107 -58 -164 -58v0h-390c-19 -18 -31 -47 -38 -86v0h-36
c-1 12 -2 24 -2 36v0c0 17 1 34 4 50v0h-245v219h251l-71 887c0 26 -3 52 -10 79v0c0 40 20 80 61 119v0l102 110h17c17 -69 38 -145 62 -228v0c-13 0 -24 -10 -33 -31v0c-3 -18 -5 -34 -5 -49v0v-822c27 52 57 95 90 128s68 65 105 94s78 50 124 63v0c23 4 44 7 65 9
c21 1 40 2 58 2v0c46 0 90 -20 133 -60v0c50 -41 75 -94 75 -157v0v-6c1 -11 2 -23 2 -34v0c0 -31 -9 -65 -27 -102zM657 742l-130 129l127 127l129 -129z" />
    <glyph glyph-name="uniFEC9" unicode="&#x639;" horiz-adv-x="1100" arabic-form="isolated" 
d="M1112 -353v0l-49 -70c-39 -38 -72 -65 -98 -80v0c-126 -81 -263 -122 -411 -122v0h-14c-181 1 -315 51 -402 151v0c-49 53 -82 109 -99 166v0c-11 37 -17 73 -17 108v0c0 18 2 36 5 53v0c9 49 23 96 41 139s50 89 96 136c45 47 102 90 170 129v0c-17 25 -33 53 -46 83
c-14 29 -21 62 -21 97v0c0 129 45 233 135 312v0c27 25 59 45 98 60v0c36 15 77 25 122 30v0h8c37 0 76 -8 116 -23c40 -16 75 -36 104 -61s49 -44 59 -56v0c7 -10 10 -23 10 -40v0c0 -5 -1 -11 -2 -18v0h-287c-57 0 -103 -7 -138 -22v0c-46 -15 -74 -41 -85 -77v0
c10 -54 62 -98 157 -131v0c41 -13 81 -19 120 -19v0h15c9 0 101 17 278 52v0c4 1 7 1 10 1v0c17 0 26 -6 26 -19v0c0 -4 -1 -8 -2 -13v0c-8 -25 -39 -77 -92 -158v0c-5 -5 -31 -12 -78 -20v0c-344 -51 -550 -145 -617 -283v0c-13 -26 -19 -56 -19 -91v0v-15
c2 -77 31 -140 86 -187c55 -48 135 -81 238 -98v0c23 -5 53 -7 90 -7v0c28 0 60 1 96 4v0c64 0 131 12 201 36c69 23 123 52 160 87v0c4 1 7 2 10 2v0c16 0 25 -12 26 -36z" />
    <glyph glyph-name="uniFECA" unicode="&#x639;" horiz-adv-x="1100" arabic-form="final" 
d="M1126 261v-219h-217c-149 0 -275 75 -378 225v0c-31 -17 -77 -49 -138 -94c-61 -46 -110 -95 -145 -147c-36 -52 -55 -108 -58 -169v0c-1 -4 -1 -8 -1 -12v0c0 -56 19 -107 57 -154v0c41 -50 97 -81 168 -92v0c90 -12 176 -18 257 -18v0h25c91 0 161 5 210 14
s112 34 191 73v0c23 -2 35 -9 35 -22v0c0 -7 -3 -14 -8 -23v0c-148 -166 -320 -249 -516 -249v0c-26 -2 -52 -3 -77 -3v0c-179 0 -323 61 -430 184v0c-47 61 -75 123 -84 186v0c-4 25 -6 50 -6 75v0c0 39 4 77 13 115v0c14 63 52 134 115 211v0c97 95 187 171 271 226v0
c-36 63 -113 109 -231 138v0v15c6 19 33 87 80 206v0c54 11 110 34 169 69v0c83 22 135 34 158 36v0c13 1 31 1 53 1v0h43c41 -1 102 -14 183 -39v0c92 -34 139 -67 140 -98v0c0 -27 -5 -62 -14 -104v0c-12 -49 -28 -78 -48 -86v0l-132 -56c-46 -23 -88 -50 -127 -82v0
c56 -71 123 -107 202 -107v0h240zM789 596v0c-15 10 -47 20 -97 30v0c-52 9 -92 13 -120 13v0c-73 0 -121 -11 -144 -33v0c47 -41 96 -85 149 -132v0l208 102c3 3 4 10 4 20z" />
    <glyph glyph-name="uniFECB" unicode="&#x639;" horiz-adv-x="1000" arabic-form="initial" 
d="M667 336h238l-83 -209h-88c-79 -8 -146 -24 -201 -48s-127 -36 -216 -37v0h-321v219h244c-19 16 -35 52 -46 107v0c-4 30 -6 66 -6 108v0c7 123 61 224 160 301v0c58 40 126 60 204 60v0c86 0 155 -29 208 -88v0c25 -45 38 -82 38 -111v0c0 -15 -3 -29 -9 -44v0
c-7 12 -38 24 -91 35v0c-42 7 -77 12 -105 17v0h-12c-41 0 -78 -3 -111 -10v0c-64 -19 -109 -43 -134 -74v0c-14 -17 -21 -34 -21 -52v0c0 -23 6 -42 17 -59v0c23 -37 66 -63 130 -80s132 -28 205 -35v0z" />
    <glyph glyph-name="uniFECC" unicode="&#x639;" horiz-adv-x="1000" arabic-form="medial" 
d="M1015 261v-219h-338c-77 0 -144 45 -201 135v0c-25 -35 -57 -68 -95 -97v0c-34 -26 -76 -39 -125 -39v0c-7 0 -13 0 -20 1v0h-250v219h441c-22 43 -82 98 -179 163v0c-25 15 -77 40 -154 74v0c11 97 34 160 69 189v0c71 94 190 144 359 149v0h29c139 0 246 -41 319 -122
v0c15 -15 23 -34 26 -56v0c1 -10 2 -21 2 -34v0c0 -16 -1 -34 -3 -55v0c-3 -45 -18 -76 -45 -95v0c-22 -18 -41 -31 -58 -38v0c-90 -49 -146 -89 -169 -120v0c6 -17 16 -31 29 -40c13 -10 37 -15 71 -15v0h292zM707 558v0c-15 47 -60 72 -136 75v0c-8 1 -16 1 -24 1v0
c-67 0 -133 -13 -198 -38v0c79 -37 149 -103 210 -198v0c37 39 86 93 148 160z" />
    <glyph glyph-name="uniFECD" unicode="&#x63a;" horiz-adv-x="1100" arabic-form="isolated" 
d="M1112 -353v0l-49 -70c-39 -38 -72 -65 -98 -80v0c-126 -81 -263 -122 -411 -122v0h-14c-181 1 -315 51 -402 151v0c-49 53 -82 109 -99 166v0c-11 37 -17 73 -17 108v0c0 18 2 36 5 53v0c9 49 23 96 41 139s50 89 96 136c45 47 102 90 170 129v0c-17 25 -33 53 -46 83
c-14 29 -21 62 -21 97v0c0 129 45 233 135 312v0c27 25 59 45 98 60v0c36 15 77 25 122 30v0h8c37 0 76 -8 116 -23c40 -16 75 -36 104 -61s49 -44 59 -56v0c7 -10 10 -23 10 -40v0c0 -5 -1 -11 -2 -18v0h-287c-57 0 -103 -7 -138 -22v0c-46 -15 -74 -41 -85 -77v0
c10 -54 62 -98 157 -131v0c41 -13 81 -19 120 -19v0h15c9 0 101 17 278 52v0c4 1 7 1 10 1v0c17 0 26 -6 26 -19v0c0 -4 -1 -8 -2 -13v0c-8 -25 -39 -77 -92 -158v0c-5 -5 -31 -12 -78 -20v0c-344 -51 -550 -145 -617 -283v0c-13 -26 -19 -56 -19 -91v0v-15
c2 -77 31 -140 86 -187c55 -48 135 -81 238 -98v0c23 -5 53 -7 90 -7v0c28 0 60 1 96 4v0c64 0 131 12 201 36c69 23 123 52 160 87v0c4 1 7 2 10 2v0c16 0 25 -12 26 -36zM632 994l-130 129l127 127l129 -129z" />
    <glyph glyph-name="uniFECE" unicode="&#x63a;" horiz-adv-x="1100" arabic-form="final" 
d="M1125 261v-219h-217c-149 0 -275 75 -378 225v0c-31 -17 -77 -49 -138 -94c-61 -46 -110 -95 -145 -147c-36 -52 -55 -108 -58 -169v0c-1 -4 -1 -8 -1 -12v0c0 -56 19 -107 57 -154v0c41 -50 97 -81 168 -92v0c90 -12 176 -18 257 -18v0h25c91 0 161 5 210 14
s112 34 191 73v0c23 -2 35 -9 35 -22v0c0 -7 -3 -14 -8 -23v0c-148 -166 -320 -249 -516 -249v0c-26 -2 -52 -3 -77 -3v0c-179 0 -323 61 -430 184v0c-47 61 -75 123 -84 186v0c-4 25 -6 50 -6 75v0c0 39 4 77 13 115v0c14 63 52 134 115 211v0c97 95 187 171 271 226v0
c-36 63 -113 109 -231 138v0v15c6 19 33 87 80 206v0c54 11 110 34 169 69v0c83 22 135 34 158 36v0c13 1 31 1 53 1v0h43c41 -1 102 -14 183 -39v0c92 -34 139 -67 140 -98v0c0 -27 -5 -62 -14 -104v0c-12 -49 -28 -78 -48 -86v0l-132 -56c-46 -23 -88 -50 -127 -82v0
c56 -71 123 -107 202 -107v0h240zM788 596v0c-15 10 -47 20 -97 30v0c-52 9 -92 13 -120 13v0c-73 0 -121 -11 -144 -33v0c47 -41 96 -85 149 -132v0l208 102c3 3 4 10 4 20zM639 994l-130 129l127 127l129 -129z" />
    <glyph glyph-name="uniFECF" unicode="&#x63a;" horiz-adv-x="1000" arabic-form="initial" 
d="M667 336h238l-83 -209h-88c-79 -8 -146 -24 -201 -48s-127 -36 -216 -37v0h-321v219h244c-19 16 -35 52 -46 107v0c-4 30 -6 66 -6 108v0c7 123 61 224 160 301v0c58 40 126 60 204 60v0c86 0 155 -29 208 -88v0c25 -45 38 -82 38 -111v0c0 -15 -3 -29 -9 -44v0
c-7 12 -38 24 -91 35v0c-42 7 -77 12 -105 17v0h-12c-41 0 -78 -3 -111 -10v0c-64 -19 -109 -43 -134 -74v0c-14 -17 -21 -34 -21 -52v0c0 -23 6 -42 17 -59v0c23 -37 66 -63 130 -80s132 -28 205 -35v0zM544 993l-130 129l127 127l129 -129z" />
    <glyph glyph-name="uniFED0" unicode="&#x63a;" horiz-adv-x="1000" arabic-form="medial" 
d="M1015 261v-219h-338c-77 0 -144 45 -201 135v0c-25 -35 -57 -68 -95 -97v0c-34 -26 -76 -39 -125 -39v0c-7 0 -13 0 -20 1v0h-250v219h441c-22 43 -82 98 -179 163v0c-25 15 -77 40 -154 74v0c11 97 34 160 69 189v0c71 94 190 144 359 149v0h29c139 0 246 -41 319 -122
v0c15 -15 23 -34 26 -56v0c1 -10 2 -21 2 -34v0c0 -16 -1 -34 -3 -55v0c-3 -45 -18 -76 -45 -95v0c-22 -18 -41 -31 -58 -38v0c-90 -49 -146 -89 -169 -120v0c6 -17 16 -31 29 -40c13 -10 37 -15 71 -15v0h292zM707 558v0c-15 47 -60 72 -136 75v0c-8 1 -16 1 -24 1v0
c-67 0 -133 -13 -198 -38v0c79 -37 149 -103 210 -198v0c37 39 86 93 148 160zM545 993l-130 129l127 127l129 -129z" />
    <glyph glyph-name="uniFED1" unicode="&#x641;" horiz-adv-x="1300" arabic-form="isolated" 
d="M1203 136l-4 -95c-11 -123 -58 -230 -141 -320v0c-122 -134 -287 -203 -496 -207v0l-120 3c-91 8 -169 34 -234 78s-112 92 -141 145c-29 52 -45 111 -48 176v0c-1 29 -2 57 -2 82v0c0 29 1 54 2 77v0c3 41 16 90 38 149s52 114 90 166v0l36 -27l-17 -41
c-25 -61 -38 -134 -38 -219v0c0 -13 0 -27 1 -41v0c5 -103 51 -187 138 -251v0c59 -35 148 -56 268 -63v0c13 -1 25 -2 38 -2v0c29 0 60 3 92 10v0c75 8 142 24 200 48v0c132 57 198 128 198 214v0v23h-230c-94 9 -141 86 -141 232v0v12c4 119 24 211 61 278v0
c33 61 83 92 150 93v0h6c54 0 101 -18 142 -55v0c72 -67 119 -165 142 -293v0c7 -45 11 -89 11 -131v0c0 -12 0 -26 -1 -41v0zM876 261h154c-4 40 -16 78 -37 113v0c-27 45 -57 69 -90 71v0c-7 1 -13 1 -20 1v0c-49 0 -77 -31 -83 -92v0c3 -55 29 -86 76 -93v0zM908 806
l-129 129l126 127l132 -129z" />
    <glyph glyph-name="uniFED2" unicode="&#x641;" horiz-adv-x="1300" arabic-form="final" 
d="M1317 261v-219h-127c-3 -54 -19 -115 -46 -183v0c-28 -70 -60 -122 -97 -156v0c-92 -84 -176 -136 -252 -156v0c-71 -19 -138 -29 -199 -29v0h-54c-62 0 -113 1 -153 4v0c-73 8 -155 44 -246 108v0c-38 37 -69 78 -94 125v0c-12 34 -23 70 -34 108v0
c-9 31 -13 74 -13 127v0c0 9 0 19 1 30v0c1 67 8 120 20 160v0c27 91 52 141 76 149v0c9 -5 14 -15 14 -30v0c0 -10 -2 -23 -6 -38v0c-12 -45 -18 -91 -18 -137v0c0 -129 41 -222 122 -280v0c79 -55 170 -85 273 -92v0c17 -2 37 -3 58 -3v0c34 0 73 2 117 7v0
c76 8 142 24 199 48v0c132 57 198 128 198 215v0v23h-228c-95 9 -142 86 -142 232v0v12c4 119 24 211 61 278v0c33 61 82 92 149 93v0h6c55 0 103 -18 142 -55v0c70 -65 117 -169 141 -310v0c2 -8 4 -18 5 -31v0h127zM871 261h152c-4 41 -16 79 -37 114v0
c-27 45 -57 69 -90 71v0c-7 1 -13 1 -20 1v0c-49 0 -77 -31 -82 -92v0c3 -55 28 -86 77 -94v0zM900 809l-128 129l127 127l130 -129z" />
    <glyph glyph-name="uniFED3" unicode="&#x641;" horiz-adv-x="700" arabic-form="initial" 
d="M307 1085l-129 130l127 128l131 -130zM606 459c-2 -111 -7 -184 -14 -218v0c-11 -41 -31 -79 -60 -114v0c-49 -57 -134 -85 -255 -85v0h-281v219h328c81 0 121 25 121 75v0c0 29 0 49 -1 58v0h-172c-72 0 -122 12 -151 36v0c-34 29 -51 73 -51 134v0c3 110 33 206 90 288
v0c40 58 90 87 149 87v0c8 0 16 -1 25 -2v0c79 0 152 -67 220 -201v0c28 -46 45 -121 52 -224v0v-53zM292 549h140c-3 21 -14 54 -35 97v0c-34 57 -69 85 -105 85v0c-52 0 -79 -32 -81 -95v0c-1 -4 -1 -8 -1 -12v0c0 -50 27 -75 82 -75v0z" />
    <glyph glyph-name="uniFED4" unicode="&#x641;" horiz-adv-x="700" arabic-form="medial" 
d="M371 986l-128 130l127 127l131 -129zM722 261v-219h-175c-73 0 -138 34 -195 101v0c-70 -67 -151 -101 -242 -101v0h-114v219h236c-19 19 -39 47 -61 82v0c-17 25 -32 54 -43 89c-12 35 -18 74 -18 119v0c1 37 8 70 21 100v0c13 25 24 43 31 55v0c49 69 115 105 200 108
v0h3c60 0 111 -18 152 -54v0c31 -23 49 -46 55 -70v0c21 -39 32 -86 33 -141v0v-19c0 -73 -18 -137 -53 -191v0c-17 -21 -37 -43 -60 -66v0c3 -8 17 -12 41 -12v0h189zM480 454v0c-8 80 -55 120 -140 120v0c-47 0 -74 -10 -81 -30v0c-1 -7 -1 -13 -1 -20v0
c0 -37 13 -75 38 -114v0c24 -35 54 -64 91 -88v0c62 36 93 80 93 132z" />
    <glyph glyph-name="uniFED5" unicode="&#x642;" horiz-adv-x="1300" arabic-form="isolated" 
d="M1203 136l-5 -90c-10 -127 -57 -235 -140 -325v0c-122 -134 -287 -203 -496 -207v0l-120 3c-91 8 -169 34 -234 78s-112 92 -141 145c-29 52 -45 111 -48 176v0c-1 29 -2 57 -2 82v0c0 29 1 54 2 77v0c3 41 16 90 38 149s52 114 90 166v0l36 -27l-17 -41
c-25 -61 -38 -134 -38 -219v0c0 -13 0 -27 1 -41v0c5 -103 51 -187 138 -251v0c59 -35 148 -56 268 -63v0c13 -1 25 -2 38 -2v0c29 0 60 3 92 10v0c75 8 142 24 200 48v0c132 57 198 128 198 214v0v23h-230c-94 9 -141 86 -141 232v0v12c4 119 24 211 61 278v0
c33 61 83 92 150 93v0h6c54 0 101 -18 142 -55v0c72 -67 119 -165 142 -293v0c7 -45 11 -89 11 -131v0c0 -12 0 -26 -1 -41v0zM875 261h154c-3 40 -15 78 -36 113v0c-27 45 -57 69 -90 71v0c-7 1 -13 1 -20 1v0c-49 0 -77 -31 -83 -92v0c3 -55 28 -86 75 -93v0zM1053 809
l-129 129l126 127l132 -129zM748 809l-129 129l126 127l132 -129z" />
    <glyph glyph-name="uniFED6" unicode="&#x642;" horiz-adv-x="1300" arabic-form="final" 
d="M755 799l-128 129l127 127l130 -129zM1056 799l-129 129l127 127l131 -129zM1323 261v-219h-130c-3 -54 -19 -115 -46 -183v0c-28 -70 -60 -122 -97 -156v0c-92 -84 -176 -136 -252 -156v0c-71 -19 -138 -29 -199 -29v0h-54c-62 0 -113 1 -153 4v0
c-73 8 -155 44 -246 108v0c-38 37 -69 78 -94 125v0c-12 34 -23 70 -34 108v0c-9 31 -13 74 -13 127v0c0 9 0 19 1 30v0c1 67 8 120 20 160v0c27 91 52 141 76 149v0c9 -5 14 -15 14 -30v0c0 -10 -2 -23 -6 -38v0c-12 -45 -18 -91 -18 -137v0c0 -129 41 -222 122 -280v0
c79 -55 170 -85 273 -92v0c17 -2 37 -3 58 -3v0c34 0 73 2 117 7v0c76 8 142 24 199 48v0c132 57 198 128 198 215v0v23h-228c-95 9 -142 86 -142 232v0v12c4 119 24 211 61 278v0c33 61 82 92 149 93v0h6c55 0 103 -18 142 -55v0c70 -65 117 -169 141 -310v0
c2 -8 4 -18 5 -31v0h130zM874 261h152c-4 41 -16 79 -37 114v0c-27 45 -57 69 -90 71v0c-7 1 -13 1 -20 1v0c-49 0 -77 -31 -82 -92v0c3 -55 28 -86 77 -94v0z" />
    <glyph glyph-name="uniFED7" unicode="&#x642;" horiz-adv-x="700" arabic-form="initial" 
d="M606 459c-2 -111 -7 -184 -14 -218v0c-11 -41 -31 -79 -60 -114v0c-49 -57 -134 -85 -255 -85v0h-281v219h328c81 0 121 25 121 75v0c0 29 0 49 -1 58v0h-172c-72 0 -122 12 -151 36v0c-34 29 -51 73 -51 134v0c3 110 33 206 90 288v0c40 58 90 87 149 87v0
c8 0 16 -1 25 -2v0c79 0 152 -67 220 -201v0c28 -46 45 -121 52 -224v0v-53zM292 549h140c-3 21 -14 54 -35 97v0c-34 57 -69 85 -105 85v0c-52 0 -79 -32 -81 -95v0c-1 -4 -1 -8 -1 -12v0c0 -50 27 -75 82 -75v0zM145 1080l-130 130l128 128l131 -130zM455 1080l-128 130
l127 128l131 -130z" />
    <glyph glyph-name="uniFED8" unicode="&#x642;" horiz-adv-x="700" arabic-form="medial" 
d="M722 261v-219h-175c-73 0 -138 34 -195 101v0c-70 -67 -151 -101 -242 -101v0h-114v219h236c-19 19 -39 47 -61 82v0c-17 25 -32 54 -43 89c-12 35 -18 74 -18 119v0c1 37 8 70 21 100v0c13 25 24 43 31 55v0c49 69 115 105 200 108v0h3c60 0 111 -18 152 -54v0
c31 -23 49 -46 55 -70v0c21 -39 32 -86 33 -141v0v-19c0 -73 -18 -137 -53 -191v0c-17 -21 -37 -43 -60 -66v0c3 -8 17 -12 41 -12v0h189zM480 454v0c-8 80 -55 120 -140 120v0c-47 0 -74 -10 -81 -30v0c-1 -7 -1 -13 -1 -20v0c0 -37 13 -75 38 -114v0c24 -35 54 -64 91 -88
v0c62 36 93 80 93 132zM203 949l-129 130l127 127l131 -129zM503 949l-128 130l127 127l131 -129z" />
    <glyph glyph-name="uniFED9" unicode="&#x643;" horiz-adv-x="1300" arabic-form="isolated" 
d="M719 718c37 -11 60 -23 71 -36v0c7 -12 10 -30 10 -53v0c-23 -84 -53 -136 -90 -155v0c-28 -15 -56 -22 -85 -22v0h-297v3c0 49 28 81 83 98v0h139c65 0 107 11 126 33v0c4 7 6 14 6 19v0c0 24 -31 38 -92 42v0c-28 5 -67 10 -118 17v0c-98 15 -147 50 -147 106v0
c0 65 57 118 172 158v0c60 18 107 27 141 28v0h18c47 0 73 -9 80 -28v0c5 -7 7 -12 7 -16v0c0 -15 -5 -28 -15 -40v0c-15 -15 -39 -23 -72 -23v0c-6 0 -12 0 -19 1v0h-22c-43 0 -77 -5 -104 -15v0c-31 -12 -48 -24 -50 -35v0c-1 -1 -1 -3 -1 -5v0c0 -9 6 -15 18 -20v0
c13 -5 48 -13 103 -24s101 -22 138 -33zM1133 238c-29 -59 -70 -107 -123 -142c-54 -36 -120 -54 -197 -55v0h-485c-99 1 -181 31 -246 91v0c-47 45 -73 113 -78 204v0v10c0 93 33 179 100 256v0l24 -11c-9 -45 -14 -84 -14 -115v0c-1 -8 -1 -16 -1 -24v0
c0 -59 23 -105 69 -138v0c49 -35 119 -52 212 -52v0h423c119 3 178 57 178 162v0l-1 730c0 55 -8 93 -23 112v0c-5 7 -8 14 -8 22v0c0 16 11 36 32 60v0l110 102c7 6 14 9 19 9v0c9 0 15 -7 18 -22v0l61 -197l-30 -47l1 -775c-1 -65 -15 -125 -41 -180v0z" />
    <glyph glyph-name="uniFEDA" unicode="&#x643;" horiz-adv-x="1400" arabic-form="final" 
d="M1414 262v-219h-92c-106 0 -183 61 -232 182v0c-31 -55 -74 -98 -129 -130c-55 -33 -125 -51 -211 -54v0l-466 1c-94 6 -164 37 -211 93v0c-39 41 -61 108 -66 201v0v9c0 93 33 177 100 254v0l35 -18c-17 -39 -25 -78 -25 -117v0c0 -40 11 -78 33 -114v0
c38 -53 102 -83 191 -89v0h494c128 15 194 77 197 187v0l2 882l137 124c5 5 10 7 13 7v0c5 0 7 -6 7 -17v0l-1 -1036c5 -63 19 -103 41 -120s50 -26 84 -26v0h99zM740 707v0c36 -10 60 -22 71 -35v0c7 -12 10 -30 10 -53v0c-24 -71 -57 -119 -100 -144v0
c-39 -22 -70 -33 -94 -33v0h-278v3c0 49 27 81 82 98v0h140c65 0 107 11 125 33v0c4 7 6 14 6 20v0c0 23 -30 37 -91 41v0c-28 5 -67 10 -118 17v0c-99 15 -148 50 -148 106v0c0 65 53 117 160 155v0c68 20 119 30 154 31v0h18c47 0 73 -9 80 -28v0c4 -7 6 -12 6 -16v0
c0 -15 -5 -28 -15 -40v0c-14 -15 -38 -23 -71 -23v0c-6 0 -12 0 -19 1v0h-22c-43 0 -77 -5 -104 -15v0c-32 -12 -49 -24 -51 -35v0c-1 -1 -1 -3 -1 -5v0c0 -9 6 -15 18 -20v0c13 -5 53 -14 120 -26v0c25 -8 66 -19 122 -32z" />
    <glyph glyph-name="uniFEDB" unicode="&#x643;" horiz-adv-x="900" arabic-form="initial" 
d="M229 1026l693 297l-49 -231l-515 -225l211 -157c171 -118 257 -236 259 -355v0c0 -118 -40 -206 -120 -263v0c-51 -25 -94 -40 -129 -45v0c-17 -3 -67 -5 -149 -5v0h-434v219h590c31 0 52 13 62 38v0c1 9 2 18 2 26v0c0 42 -60 108 -181 199v0c-85 65 -191 143 -317 234
v0c-13 11 -19 23 -19 37v0c0 3 0 5 1 8v0c3 17 13 50 32 98c19 47 40 89 63 125v0z" />
    <glyph glyph-name="uniFEDC" unicode="&#x643;" horiz-adv-x="1100" arabic-form="medial" 
d="M1115 262v-220h-84c-53 0 -106 16 -158 48v0c-29 17 -90 70 -185 158v0c-15 -59 -62 -112 -141 -161v0c-47 -30 -140 -45 -281 -45v0h-270v219h429c35 0 67 6 97 19v0c45 15 68 36 68 65v0c0 11 -6 20 -17 28v0c-27 29 -103 82 -229 158v0l-138 83c-60 37 -90 76 -90 117
v0c0 21 21 106 62 253v0l705 351l-27 -218l-576 -291c188 -99 339 -209 454 -329v0c80 -73 143 -130 189 -169c46 -40 87 -62 122 -66v0h70z" />
    <glyph glyph-name="uniFEDD" unicode="&#x644;" horiz-adv-x="1000" arabic-form="isolated" 
d="M900 1385l56 -168c-25 -27 -40 -57 -43 -90v0v-960c0 -237 -66 -416 -199 -535v0c-78 -49 -157 -74 -237 -74v0h-27c-12 -1 -26 -1 -41 -1v0c-30 0 -65 5 -104 15v0c-86 21 -158 69 -216 142v0c-54 75 -83 162 -86 261v0c-1 13 -2 25 -2 37v0c7 79 14 139 23 178
c8 39 17 71 28 96c10 25 21 49 33 72c11 23 23 35 35 35v0c15 0 22 -8 22 -25v0c0 -8 -4 -30 -13 -67s-14 -71 -15 -103c-1 -33 -2 -60 -2 -82v0c4 -120 37 -209 99 -266v0c59 -55 143 -82 251 -82v0h15c49 4 106 24 170 61v0c63 40 102 104 117 193v0c3 33 4 66 4 100v0
c0 33 -1 67 -4 102v0l-57 957c-1 9 -1 18 -1 27v0c0 54 9 90 27 107v0c6 5 54 52 145 141v0z" />
    <glyph glyph-name="uniFEDE" unicode="&#x644;" horiz-adv-x="1200" arabic-form="final" 
d="M914 1447v-1052c9 -29 24 -54 43 -73v0c39 -39 83 -59 133 -61v0h130v-219h-104c-87 0 -155 38 -202 113v0c-2 -231 -68 -406 -199 -523v0c-78 -49 -157 -74 -237 -74v0h-27c-12 -1 -26 -1 -41 -1v0c-30 0 -65 5 -104 15v0c-86 21 -158 69 -216 142v0
c-54 75 -83 162 -86 261v0c-1 13 -2 25 -2 37v0c7 79 14 139 23 178c8 39 17 71 28 96c10 25 21 49 33 72c11 23 23 35 35 35v0c15 0 22 -8 22 -25v0c0 -8 -4 -30 -13 -67s-14 -71 -15 -103c-1 -33 -2 -60 -2 -82v0c4 -120 37 -209 99 -266v0c59 -55 143 -82 251 -82v0h15
c49 4 106 24 170 61v0c63 40 102 104 117 193v0c3 33 4 66 4 100v0c0 33 -1 67 -4 102v0l-29 1086l143 146c7 6 13 9 18 9v0c7 0 13 -6 17 -18v0z" />
    <glyph glyph-name="uniFEDF" unicode="&#x644;" horiz-adv-x="500" arabic-form="initial" 
d="M422 1228v0c-7 -25 -14 -44 -22 -55v0c-5 -28 -8 -54 -8 -77v0v-760c0 -45 -12 -90 -35 -135v0c-47 -106 -135 -159 -263 -159v0h-98v219h145c21 0 40 6 57 19v0c15 11 22 25 22 43v0v759l-22 161v5c0 37 26 78 78 122v0c43 41 79 70 108 89v0l14 -140
c3 -29 11 -59 24 -91z" />
    <glyph glyph-name="uniFEE0" unicode="&#x644;" horiz-adv-x="600" arabic-form="medial" 
d="M626 261v-219h-85c-44 0 -89 13 -134 39v0c-57 41 -92 89 -107 143v0c-36 -88 -94 -144 -173 -169v0c-26 -9 -46 -13 -59 -13v0h-72v219h39c58 0 104 10 138 29c33 19 52 57 57 114v0l-1 795v13c0 36 -8 72 -23 109v0l149 126c10 9 18 13 24 13v0c10 0 16 -10 17 -29v0
l1 -1034c2 -60 18 -98 48 -114v0c27 -15 54 -22 82 -22v0h99z" />
    <glyph glyph-name="uniFEE1" unicode="&#x645;" horiz-adv-x="1000" arabic-form="isolated" 
d="M921 247v0c-10 -56 -27 -102 -50 -137v0c-19 -27 -48 -50 -87 -69v0c-33 -17 -65 -25 -95 -25v0c-5 0 -11 0 -16 1v0c-72 5 -129 24 -171 55v0c-28 22 -55 59 -80 111v0c-33 -44 -70 -71 -110 -80v0c-25 -7 -54 -11 -86 -11v0c-48 0 -72 -29 -72 -87v0v-12l21 -423
c-16 -120 -68 -189 -155 -208v0v801c7 64 37 109 90 134v0c32 9 60 14 85 14v0h48c76 5 143 45 202 122v0c60 79 115 125 165 140v0c30 10 60 15 90 15v0c20 0 40 -2 61 -5v0c49 -10 92 -43 127 -100v0c25 -40 38 -91 38 -153v0c0 -26 -2 -54 -5 -83zM800 264v0
c1 5 1 11 1 16v0c0 54 -51 90 -152 109v0c-67 -2 -107 -14 -119 -37v0c8 -36 37 -70 86 -101v0c44 -29 84 -43 120 -43v0h11c33 6 51 25 53 56z" />
    <glyph glyph-name="uniFEE2" unicode="&#x645;" horiz-adv-x="1100" arabic-form="final" 
d="M1123 261v-219h-107c-74 0 -128 17 -161 50v0c-5 -45 -13 -78 -26 -99s-39 -46 -77 -75v0c-25 -19 -61 -30 -107 -31v0h-8c-71 0 -136 34 -195 103v0c-34 35 -52 82 -55 143v0c-19 -31 -41 -53 -65 -68c-25 -15 -47 -22 -66 -23v0c-48 0 -72 -29 -72 -87v0v-12l21 -383
c-16 -123 -68 -188 -155 -195v0v748c0 56 21 95 63 118v0c35 20 84 30 146 30v0c42 0 79 16 110 48v0c5 6 30 45 75 117v0c53 79 110 120 170 123v0c7 1 14 2 21 2v0c50 0 93 -15 128 -45v0c31 -27 63 -70 98 -131v0c25 -42 43 -68 54 -79v0c23 -23 51 -35 83 -35v0h125z
M765 134v3c0 34 -9 71 -26 111v0c-37 63 -89 95 -155 97v0c-56 -6 -84 -37 -84 -92v0c0 -42 27 -77 81 -106v0c41 -23 84 -34 129 -34v0h4c34 0 51 7 51 21v0z" />
    <glyph glyph-name="uniFEE3" unicode="&#x645;" horiz-adv-x="900" arabic-form="initial" 
d="M802 302v0v-12c0 -22 -2 -49 -6 -82v0c-11 -55 -39 -104 -82 -149v0c-44 -43 -92 -68 -144 -73v0c-11 -3 -21 -4 -30 -4v0c-52 0 -99 12 -141 37v0c-49 16 -93 57 -131 124v0c-42 -67 -103 -101 -184 -101v0h-88v219h63c89 0 150 21 183 62v0c25 38 51 75 76 112v0
c31 44 61 77 90 98v0c36 21 69 31 98 31v0c59 0 109 -12 152 -36c42 -24 75 -54 100 -91v0c10 -17 20 -35 29 -54v0c8 -25 13 -52 15 -81zM659 241v0c-3 26 -21 52 -55 77v0c-31 22 -67 35 -108 40v0c-16 3 -30 4 -42 4v0c-37 0 -60 -12 -69 -37v0c24 -71 90 -120 199 -145
v0c50 0 75 20 75 61z" />
    <glyph glyph-name="uniFEE4" unicode="&#x645;" horiz-adv-x="1000" arabic-form="medial" 
d="M1019 261v-219h-101c-79 0 -134 17 -165 50v0c-11 -65 -22 -106 -33 -121v0c-15 -34 -40 -64 -74 -91c-35 -27 -75 -41 -122 -41v0h-4c-99 0 -172 47 -219 140v0c-23 42 -36 93 -40 154v0c-35 -44 -74 -71 -115 -80v0c-27 -7 -67 -11 -120 -11v0h-30v219h128
c47 0 86 16 119 48v0c3 5 29 44 79 117v0c53 79 113 120 178 123v0c8 1 15 2 20 2v0c52 0 97 -14 134 -43v0c31 -25 65 -69 101 -133v0c27 -42 46 -69 57 -80v0c23 -23 53 -34 88 -34v0h119zM655 123v4c0 33 -10 69 -29 108v0c-39 63 -92 96 -159 101v0
c-57 -7 -86 -39 -86 -95v0c0 -44 25 -84 76 -121v0c49 -33 97 -50 142 -50v0h3c35 1 53 19 53 53v0z" />
    <glyph glyph-name="uniFEE5" unicode="&#x646;" horiz-adv-x="1100" arabic-form="isolated" 
d="M1028 113v0v-31c0 -103 -15 -184 -45 -243v0c-63 -116 -155 -194 -278 -234v0c-69 -22 -141 -35 -216 -38v0h-34c-169 0 -292 55 -367 166v0c-45 64 -72 147 -82 249v0c-2 25 -3 47 -3 67v0c0 79 14 157 41 234v0c33 85 70 149 112 190v0c5 1 9 1 12 1v0
c15 0 22 -7 22 -22v0c0 -3 0 -6 -1 -9v0c-44 -117 -67 -205 -68 -265v0v-8c0 -119 29 -212 86 -279v0c49 -58 126 -91 229 -98v0c19 -3 39 -4 61 -4v0c81 0 155 12 221 37v0c55 20 97 45 124 75c27 29 41 66 41 111v0c-3 94 -23 176 -60 246v0l-60 102c0 21 21 60 62 118v0
c25 54 46 81 62 81v0c16 0 34 -22 55 -67v0c53 -117 81 -244 86 -379zM499 543l-127 129l126 128l131 -130z" />
    <glyph glyph-name="uniFEE6" unicode="&#x646;" horiz-adv-x="1200" arabic-form="final" 
d="M1230 42h-69c-59 0 -111 17 -154 50v0c9 -25 13 -52 13 -82v0c0 -45 -5 -102 -14 -171v0c-41 -154 -137 -263 -290 -327v0c-65 -20 -139 -31 -222 -32v0h-16c-11 -1 -21 -1 -32 -1v0c-172 0 -299 62 -380 187v0c-43 79 -64 172 -64 279v0c0 50 6 104 17 162v0
c11 89 55 178 132 266v0l36 -17c-45 -103 -68 -178 -71 -225v0c-1 -13 -1 -26 -1 -39v0c0 -36 3 -74 8 -113v0c7 -54 24 -100 49 -139s62 -72 111 -98s116 -40 200 -42v0h89c66 2 132 22 197 61s109 93 131 163v0c-4 137 -43 259 -117 366v0c9 43 42 111 98 202v0h21
c30 -85 70 -148 121 -190v0c37 -27 81 -41 134 -41v0h73v-219zM498 543l-127 129l126 128l131 -130z" />
    <glyph glyph-name="uniFEE7" unicode="&#x646;" horiz-adv-x="600" arabic-form="initial" 
d="M516 376v0v-20c0 -39 -5 -81 -14 -124v0c-12 -52 -38 -98 -79 -139v0c-37 -33 -101 -50 -192 -50v0l-235 2v216h277c45 9 69 26 70 53v0v3c0 35 -20 90 -61 164v0l-51 68l154 154c81 -107 124 -216 131 -327zM257 888l-130 129l127 127l129 -129z" />
    <glyph glyph-name="uniFEE8" unicode="&#x646;" horiz-adv-x="600" arabic-form="medial" 
d="M626 261v-219h-90c-30 0 -65 11 -106 33c-41 21 -82 76 -123 164v0c-29 -72 -61 -124 -98 -156v0c-31 -27 -68 -41 -112 -41v0h-101v219h98c27 0 49 4 68 13v0c21 10 41 33 60 69s41 96 64 180v0c3 13 8 20 16 20v0c7 0 12 -7 17 -21v0c21 -81 41 -138 62 -169
c21 -32 44 -56 71 -71v0c24 -14 59 -21 104 -21v0h70zM295 738l-130 129l127 127l129 -129z" />
    <glyph glyph-name="uniFEE9" unicode="&#x647;" horiz-adv-x="700" arabic-form="isolated" 
d="M596 390v0v-15c0 -107 -22 -193 -65 -258v0c-49 -67 -122 -101 -221 -101v0c-123 1 -187 60 -192 178v0c-1 7 -2 16 -2 25v0c0 112 26 212 79 300v0c59 105 112 171 158 199v0c63 -38 119 -83 168 -135c48 -52 73 -116 75 -193zM475 279v0c3 9 4 19 4 29v0
c0 17 -4 34 -12 53v0c-13 30 -31 57 -52 80c-22 23 -50 45 -83 64v0c-29 -15 -53 -41 -72 -78v0c-17 -33 -26 -67 -26 -104v0c0 -6 0 -12 1 -18v0c3 -42 39 -63 106 -63v0h9c75 1 116 13 125 37z" />
    <glyph glyph-name="uniFEEA" unicode="&#x647;" horiz-adv-x="800" arabic-form="final" 
d="M824 261v-219h-193c-101 5 -166 54 -194 145v0c-59 -50 -125 -75 -197 -75v0c-44 0 -81 10 -111 31v0c-37 23 -55 57 -55 100v0c0 62 18 122 55 181c37 58 78 109 123 154v0c33 33 80 63 139 90v0v99l182 125v-530c2 -67 44 -101 125 -101v0h126zM391 362v0v180
c-31 -11 -67 -38 -108 -79c-41 -42 -63 -80 -65 -115v0v-6c0 -31 16 -48 48 -51v0c2 -1 4 -1 7 -1v0c33 0 72 24 118 72z" />
    <glyph glyph-name="uniFEEB" unicode="&#x647;" horiz-adv-x="1100" arabic-form="initial" 
d="M-12 42v219h265c-21 13 -37 32 -48 56v0c-6 21 -9 41 -9 61v0c0 39 11 80 33 123v0c37 70 96 131 175 183v0c-18 13 -44 29 -78 48v0l108 161c7 15 16 23 27 23v0c8 0 18 -5 29 -14v0c45 -23 117 -68 218 -135s168 -116 203 -145v0c65 -57 98 -119 98 -188v0v-9
c0 -56 -8 -108 -24 -157v0c-27 -58 -55 -102 -84 -132v0c-34 -41 -75 -71 -124 -88v0c-28 -11 -63 -16 -104 -16v0c-8 0 -17 0 -27 1v0c-42 3 -84 10 -125 23v0c-39 9 -69 23 -92 40v0c-21 -15 -52 -28 -93 -39v0c-29 -10 -67 -15 -115 -15v0h-233zM863 353v0
c0 27 -12 54 -35 81v0c-22 21 -48 39 -78 54v0c-1 -45 -10 -87 -26 -126v0c-21 -45 -50 -78 -87 -100v0c34 -7 62 -11 85 -11v0c94 0 141 34 141 102zM590 411v0v10c0 37 -12 67 -37 90v0c-28 25 -61 38 -100 39v0h-5c-37 0 -68 -11 -91 -33v0c-25 -23 -37 -48 -37 -77v0
c0 -29 19 -57 58 -86v0c43 -29 82 -47 117 -53v0c63 31 95 68 95 110z" />
    <glyph glyph-name="uniFEEC" unicode="&#x647;" horiz-adv-x="900" arabic-form="medial" 
d="M605 -144v0c0 84 -35 139 -105 166v0c-39 13 -84 20 -136 20v0h-23v-20c0 -44 11 -87 34 -130v0c40 -71 91 -107 154 -107v0c51 0 76 24 76 71zM-15 42v219h229l3 51c11 77 36 153 77 229v0c53 95 103 157 148 185v0c37 21 75 31 116 31v0c13 0 24 -1 35 -4v0
c100 -21 154 -84 162 -189v0c-15 -125 -61 -226 -138 -303v0h306v-219h-195c18 -66 27 -114 27 -143v0c0 -124 -50 -221 -150 -290v0c-31 -22 -65 -33 -100 -33v0h-5c-88 4 -160 56 -216 155v0c-45 82 -76 186 -95 311v0h-204zM590 463v0v4c0 27 -6 48 -19 63v0
c-14 15 -33 23 -58 23v0c-4 1 -8 2 -12 2v0c-13 0 -28 -5 -45 -14v0c-47 -22 -84 -80 -111 -173v0c-11 -41 -17 -77 -17 -107v0h122c43 13 80 45 110 97v0c15 27 25 62 30 105z" />
    <glyph glyph-name="uniFEED" unicode="&#x648;" horiz-adv-x="800" arabic-form="isolated" 
d="M334 261h182c-32 106 -83 159 -152 159v0c-21 0 -39 -9 -53 -26s-21 -37 -21 -58v0c0 -46 15 -71 44 -75v0zM555 42v0h-140c-91 0 -152 17 -184 52c-32 34 -48 81 -48 140v0c0 78 15 154 46 227v0c39 100 98 150 178 150v0h15c51 0 97 -26 140 -78v0
c56 -67 95 -157 118 -270v0c8 -48 13 -101 14 -159v0h1v-51c0 -143 -35 -265 -106 -367v0c-63 -100 -154 -153 -274 -158v0c-119 11 -208 45 -268 100v0c-9 9 -13 16 -13 21v0c0 7 7 11 20 13v0c173 33 310 92 412 179v0c61 52 92 107 92 166v0v13c0 6 -1 13 -3 22z" />
    <glyph glyph-name="uniFEEE" unicode="&#x648;" horiz-adv-x="900" arabic-form="final" 
d="M328 261h182c-32 106 -83 159 -152 159v0c-21 0 -39 -9 -53 -26s-21 -37 -21 -58v0c0 -46 15 -71 44 -75v0zM674 263v-2h248v-219h-233c-2 -138 -37 -257 -106 -357v0c-63 -100 -154 -153 -274 -158v0c-119 11 -208 45 -268 100v0c-9 9 -13 16 -13 21v0c0 7 7 11 20 13v0
c173 33 310 92 412 179v0c61 52 92 108 92 167v0v13c0 6 -1 13 -3 22v0h-140c-91 0 -152 17 -184 52c-32 34 -48 81 -48 140v0c0 78 15 154 46 227v0c39 100 98 150 178 150v0h15c51 0 97 -26 140 -78v0c56 -67 95 -157 118 -270v0z" />
    <glyph glyph-name="uniFEEF" unicode="&#x649;" horiz-adv-x="1200" arabic-form="isolated" 
d="M1122 809v0c-10 -63 -20 -116 -31 -157v0c-11 -22 -30 -34 -57 -36v0c-73 -15 -137 -37 -194 -68v0c-26 -23 -39 -44 -39 -65v0c0 -2 0 -4 1 -6v0c3 -23 27 -37 70 -42v0c39 -6 82 -18 131 -35v0c59 -24 89 -67 89 -129v0c0 -5 0 -11 -1 -16v0
c-7 -167 -72 -296 -197 -386c-125 -91 -282 -137 -473 -138v0c-279 13 -418 143 -418 389v0v15c1 123 41 254 120 393v0c6 4 11 6 14 6v0c7 0 10 -6 10 -18v0c0 -3 0 -7 -1 -10v0c-30 -81 -48 -155 -55 -221v0c11 -213 132 -327 363 -340v0h55c109 1 211 21 304 60
s143 88 150 148v0c-11 41 -58 64 -140 67v0c-97 13 -146 65 -146 156v0c9 215 150 362 422 441v0c5 3 9 5 12 5v0c7 0 10 -4 11 -13z" />
    <glyph glyph-name="uniFEF0" unicode="&#x649;" horiz-adv-x="1100" arabic-form="final" 
d="M782 0v0c-1 -3 -1 -5 -1 -7v0c0 -18 10 -31 29 -38v0l84 -1c57 -2 85 -35 85 -100v0c-5 -95 -32 -178 -81 -251s-109 -118 -180 -135v0c-56 -13 -106 -20 -149 -20v0l-114 1c-46 0 -104 10 -173 29v0c-72 25 -135 67 -189 126v0c-61 70 -91 169 -91 297v0v27
c0 117 35 235 106 355v0c3 1 6 2 10 2v0c5 0 8 -8 8 -24v0c-22 -55 -34 -110 -36 -163v0c-3 -27 -4 -52 -4 -75v0c0 -85 18 -152 53 -203v0c45 -66 97 -106 156 -121s112 -24 159 -25v0h80c71 0 125 4 162 12v0c41 9 73 21 95 37c22 15 41 38 58 67v0c3 8 4 15 4 21v0
c0 17 -9 27 -28 30v0h-63c-57 8 -89 43 -97 104v0v8c0 79 20 149 61 208v0c42 61 110 95 204 100v0h193v-219h-292c-31 -7 -47 -21 -49 -42z" />
    <glyph glyph-name="uniFEF1" unicode="&#x64a;" horiz-adv-x="1200" arabic-form="isolated" 
d="M1122 809v0c-10 -63 -20 -116 -31 -157v0c-11 -22 -30 -34 -57 -36v0c-73 -15 -137 -37 -194 -68v0c-26 -23 -39 -44 -39 -65v0c0 -2 0 -4 1 -6v0c3 -23 27 -37 70 -42v0c39 -6 82 -18 131 -35v0c59 -24 89 -67 89 -129v0c0 -5 0 -11 -1 -16v0
c-7 -167 -72 -296 -197 -386c-125 -91 -282 -137 -473 -138v0c-279 13 -418 143 -418 389v0v15c1 123 41 254 120 393v0c6 4 11 6 14 6v0c7 0 10 -6 10 -18v0c0 -3 0 -7 -1 -10v0c-30 -81 -48 -155 -55 -221v0c11 -213 132 -327 363 -340v0h55c109 1 211 21 304 60
s143 88 150 148v0c-11 41 -58 64 -140 67v0c-97 13 -146 65 -146 156v0c9 215 150 362 422 441v0c5 3 9 5 12 5v0c7 0 10 -4 11 -13zM402 -621l-130 129l127 127l129 -129zM727 -621l-130 129l127 127l129 -129z" />
    <glyph glyph-name="uniFEF2" unicode="&#x64a;" horiz-adv-x="1100" arabic-form="final" 
d="M812 0v0c-1 -3 -1 -5 -1 -7v0c0 -18 12 -31 37 -39v0h86c57 -2 85 -35 85 -100v0c-6 -104 -35 -182 -87 -233c-52 -52 -113 -86 -184 -103v0c-56 -13 -106 -20 -149 -20v0c-8 0 -25 0 -51 1v0h-93c-46 0 -104 10 -173 29v0c-72 25 -135 64 -189 116v0
c-61 63 -91 149 -91 257v0v27c0 117 35 235 106 355v0c3 1 6 2 10 2v0c5 0 8 -8 8 -24v0c-22 -55 -34 -110 -36 -163v0c-3 -27 -4 -52 -4 -75v0c0 -78 18 -139 53 -183v0c45 -53 97 -85 156 -96c59 -12 136 -19 233 -20v0h36c78 0 137 3 176 8s69 10 91 16c22 5 41 19 58 42
v0c3 8 4 15 4 21v0c0 17 -9 27 -28 30v0h-73c-57 8 -89 43 -97 104v0v8c0 79 20 149 61 208v0c42 61 110 95 204 100v0h163v-219h-262c-31 -7 -47 -21 -49 -42zM415 -768l-128 113l127 112l130 -113zM701 -768l-128 113l126 112l131 -113z" />
    <glyph glyph-name="uniFEF3" unicode="&#x64a;" horiz-adv-x="700" arabic-form="initial" 
d="M600 375v0v-20c0 -39 -4 -81 -13 -124v0c-12 -52 -38 -98 -79 -139v0c-37 -33 -101 -50 -192 -50v0h-320v219h367c42 8 64 25 65 52v0v3c0 35 -20 90 -61 163v0l-51 69l154 154c81 -107 124 -216 130 -327zM181 -364l-128 129l127 128l130 -130zM467 -364l-128 129
l126 128l131 -130z" />
    <glyph glyph-name="uniFEF4" unicode="&#x64a;" horiz-adv-x="600" arabic-form="medial" 
d="M450 -357l-130 129l127 127l129 -129zM154 -357l-130 129l127 127l129 -129zM616 261v-219h-90c-30 0 -65 11 -106 33c-41 21 -82 76 -123 164v0c-29 -72 -61 -124 -98 -156v0c-31 -27 -68 -41 -112 -41v0h-101v219h98c27 0 49 4 68 13v0c21 10 41 33 60 69s41 96 64 180
v0c3 13 8 20 16 20v0c7 0 12 -7 17 -21v0c21 -81 41 -138 62 -169c21 -32 44 -56 71 -71v0c24 -14 59 -21 104 -21v0h70z" />
    <glyph glyph-name="uniFEF5" unicode="&#xfef5;" horiz-adv-x="1000" arabic-form="isolated" 
d="M865 1456l87 -183c-3 -8 -13 -21 -32 -38v0c-9 -12 -14 -29 -14 -52v0c-1 -199 -4 -309 -11 -328v0c-3 -32 -12 -83 -28 -153v0c-31 -91 -73 -168 -127 -231v0l57 -152c10 -23 15 -52 15 -88v0c0 -39 -22 -86 -65 -141v0c-63 -82 -170 -123 -321 -123v0
c-39 0 -75 9 -108 27v0c-37 19 -55 46 -55 81v0c0 34 10 77 31 128c20 51 41 88 62 110v0c37 27 102 81 196 163v0c-13 55 -60 134 -139 236v0c-73 91 -138 158 -195 202v0l-40 -19c-9 18 -36 51 -81 98v0c-38 37 -57 71 -57 100v0c11 37 25 74 41 111v0l49 108
c4 2 9 3 16 3v0c68 -53 164 -168 288 -345v0c73 -104 151 -229 233 -374v0c31 21 54 62 70 121v0c11 37 17 94 17 171v0c0 35 -6 98 -18 188c-13 89 -19 152 -19 188v0c0 65 49 129 148 192v0zM680 241v0c-2 34 -21 76 -56 127v0c-35 -27 -71 -54 -108 -82v0
c-51 -39 -79 -68 -84 -89v0c11 -18 35 -27 72 -27v0c23 0 50 3 83 8v0c43 13 74 34 93 63zM447 1507l16 -15c-47 -54 -101 -81 -161 -81v0c-44 0 -88 9 -131 27c-43 17 -73 26 -89 26v0c-14 0 -33 -5 -56 -15v0l-12 14c34 48 70 72 107 72v0c12 0 43 -9 92 -26
c49 -18 88 -27 119 -27v0c39 0 77 8 115 25v0z" />
    <glyph glyph-name="uniFEF6" unicode="&#xfef6;" horiz-adv-x="1100" arabic-form="final" 
d="M1115 261v-219h-72c-101 0 -174 17 -217 50v0c-41 34 -70 86 -85 156v0c-7 21 -14 81 -23 178v0c-12 -95 -48 -184 -108 -266v0c-61 -85 -137 -141 -228 -170v0c-23 -3 -44 -4 -63 -4v0c-63 0 -112 11 -148 34v0c-50 31 -80 54 -90 69v0c67 9 139 36 218 81v0
c91 52 137 121 137 206v0c0 63 -17 139 -51 226v0c-64 155 -132 261 -204 320v0l-55 -20c-20 61 -57 147 -110 258v0c43 91 88 147 134 169v0c86 -77 163 -181 232 -312v0c69 -125 121 -251 157 -378v0c19 -65 35 -135 46 -209v0c73 119 113 240 121 364v0c5 69 7 221 7 456
v0c0 43 21 88 64 133v0c41 42 82 68 125 78v0l-2 -920c0 -73 3 -119 8 -137v0c5 -61 23 -100 53 -119v0c23 -16 52 -24 86 -24v0h68zM448 1510l16 -15c-47 -54 -101 -81 -161 -81v0c-44 0 -88 9 -131 27c-43 17 -73 26 -89 26v0c-14 0 -33 -5 -56 -15v0l-12 14
c34 48 70 72 107 72v0c12 0 43 -9 92 -26c49 -18 88 -27 119 -27v0c39 0 77 8 115 25v0z" />
    <glyph glyph-name="uniFEF7" unicode="&#xfef7;" horiz-adv-x="1000" arabic-form="isolated" 
d="M865 1456l87 -183c-3 -8 -13 -21 -32 -38v0c-9 -12 -14 -29 -14 -52v0c-1 -199 -4 -309 -11 -328v0c-3 -32 -12 -83 -28 -153v0c-31 -91 -73 -168 -127 -231v0l57 -152c10 -23 15 -52 15 -88v0c0 -39 -22 -86 -65 -141v0c-63 -82 -170 -123 -321 -123v0
c-39 0 -75 9 -108 27v0c-37 19 -55 46 -55 81v0c0 34 10 77 31 128c20 51 41 88 62 110v0c37 27 102 81 196 163v0c-13 55 -60 134 -139 236v0c-73 91 -138 158 -195 202v0l-40 -19c-9 18 -36 51 -81 98v0c-38 37 -57 71 -57 100v0c11 37 25 74 41 111v0l49 108
c4 2 9 3 16 3v0c68 -53 164 -168 288 -345v0c73 -104 151 -229 233 -374v0c31 21 54 62 70 121v0c11 37 17 94 17 171v0c0 35 -6 98 -18 188c-13 89 -19 152 -19 188v0c0 65 49 129 148 192v0zM680 241v0c-2 34 -21 76 -56 127v0c-35 -27 -71 -54 -108 -82v0
c-51 -39 -79 -68 -84 -89v0c11 -18 35 -27 72 -27v0c23 0 50 3 83 8v0c43 13 74 34 93 63zM323 1547v0v-73l-288 -146v85l90 44c-39 18 -62 40 -70 67v0c-5 14 -7 28 -7 42v0c0 12 2 24 5 36v0c7 25 24 48 50 68s52 30 78 30v0c27 0 51 -5 74 -15s43 -24 60 -43v0l1 -36
c-43 12 -78 18 -105 18v0c-23 0 -40 -5 -51 -14v0c-17 -15 -25 -31 -25 -47v0c0 -5 1 -10 3 -15v0c7 -21 22 -35 44 -41v0c3 -1 7 -2 12 -2v0c25 0 68 14 129 42z" />
    <glyph glyph-name="uniFEF8" unicode="&#xfef8;" horiz-adv-x="1100" arabic-form="final" 
d="M1114 261v-219h-72c-101 0 -174 17 -217 50v0c-41 34 -70 86 -85 156v0c-7 21 -14 81 -23 178v0c-12 -95 -48 -184 -108 -266v0c-61 -85 -137 -141 -228 -170v0c-23 -3 -44 -4 -63 -4v0c-63 0 -112 11 -148 34v0c-50 31 -80 54 -90 69v0c67 9 139 36 218 81v0
c91 52 137 121 137 206v0c0 63 -17 139 -51 226v0c-64 155 -132 261 -204 320v0l-55 -20c-20 61 -57 147 -110 258v0c43 91 88 147 134 169v0c86 -77 163 -181 232 -312v0c69 -125 121 -251 157 -378v0c19 -65 35 -135 46 -209v0c73 119 113 240 121 364v0c5 69 7 221 7 456
v0c0 43 21 88 64 133v0c41 42 82 68 125 78v0l-2 -920c0 -73 3 -119 8 -137v0c5 -61 23 -100 53 -119v0c23 -16 52 -24 86 -24v0h68zM323 1547v0v-73l-288 -146v85l90 44c-39 18 -62 40 -70 67v0c-5 14 -7 28 -7 42v0c0 12 2 24 5 36v0c7 25 24 48 50 68s52 30 78 30v0
c27 0 51 -5 74 -15s43 -24 60 -43v0l1 -36c-43 12 -78 18 -105 18v0c-23 0 -40 -5 -51 -14v0c-17 -15 -25 -31 -25 -47v0c0 -5 1 -10 3 -15v0c7 -21 22 -35 44 -41v0c3 -1 7 -2 12 -2v0c25 0 68 14 129 42z" />
    <glyph glyph-name="uniFEF9" unicode="&#xfef9;" horiz-adv-x="1000" arabic-form="isolated" 
d="M865 1456l87 -183c-3 -8 -13 -21 -32 -38v0c-9 -12 -14 -29 -14 -52v0c-1 -199 -4 -309 -11 -328v0c-3 -32 -12 -83 -28 -153v0c-31 -91 -73 -168 -127 -231v0l57 -152c10 -23 15 -52 15 -88v0c0 -39 -22 -86 -65 -141v0c-63 -82 -170 -123 -321 -123v0
c-39 0 -75 9 -108 27v0c-37 19 -55 46 -55 81v0c0 34 10 77 31 128c20 51 41 88 62 110v0c37 27 102 81 196 163v0c-13 55 -60 134 -139 236v0c-73 91 -138 158 -195 202v0l-40 -19c-9 18 -36 51 -81 98v0c-38 37 -57 71 -57 100v0c11 37 25 74 41 111v0l49 108
c4 2 9 3 16 3v0c68 -53 164 -168 288 -345v0c73 -104 151 -229 233 -374v0c31 21 54 62 70 121v0c11 37 17 94 17 171v0c0 35 -6 98 -18 188c-13 89 -19 152 -19 188v0c0 65 49 129 148 192v0zM680 241v0c-2 34 -21 76 -56 127v0c-35 -27 -71 -54 -108 -82v0
c-51 -39 -79 -68 -84 -89v0c11 -18 35 -27 72 -27v0c23 0 50 3 83 8v0c43 13 74 34 93 63zM322 -216v0v-73l-288 -146v85l90 44c-39 18 -62 40 -70 67v0c-5 14 -7 28 -7 42v0c0 12 2 24 5 36v0c7 25 24 48 50 68s52 30 78 30v0c27 0 51 -5 74 -15s43 -24 60 -43v0l1 -36
c-43 11 -77 17 -104 17v0c-24 0 -41 -5 -52 -14v0c-17 -15 -25 -30 -25 -46v0c0 -5 1 -10 3 -15v0c7 -21 22 -35 44 -41v0c3 -1 7 -2 12 -2v0c25 0 68 14 129 42z" />
    <glyph glyph-name="uniFEFA" unicode="&#xfefa;" horiz-adv-x="1100" arabic-form="final" 
d="M1114 261v-219h-72c-101 0 -174 17 -217 50v0c-41 34 -70 86 -85 156v0c-7 21 -14 81 -23 178v0c-12 -95 -48 -184 -108 -266v0c-61 -85 -137 -141 -228 -170v0c-23 -3 -44 -4 -63 -4v0c-63 0 -112 11 -148 34v0c-50 31 -80 54 -90 69v0c67 9 139 36 218 81v0
c91 52 137 121 137 206v0c0 63 -17 139 -51 226v0c-64 155 -132 261 -204 320v0l-55 -20c-20 61 -57 147 -110 258v0c43 91 88 147 134 169v0c86 -77 163 -181 232 -312v0c69 -125 121 -251 157 -378v0c19 -65 35 -135 46 -209v0c73 119 113 240 121 364v0c5 69 7 221 7 456
v0c0 43 21 88 64 133v0c41 42 82 68 125 78v0l-2 -920c0 -73 3 -119 8 -137v0c5 -61 23 -100 53 -119v0c23 -16 52 -24 86 -24v0h68zM322 -216v0v-73l-288 -146v85l90 44c-39 18 -62 40 -70 67v0c-5 14 -7 28 -7 42v0c0 12 2 24 5 36v0c7 25 24 48 50 68s52 30 78 30v0
c27 0 51 -5 74 -15s43 -24 60 -43v0l1 -36c-43 11 -77 17 -104 17v0c-24 0 -41 -5 -52 -14v0c-17 -15 -25 -30 -25 -46v0c0 -5 1 -10 3 -15v0c7 -21 22 -35 44 -41v0c3 -1 7 -2 12 -2v0c25 0 68 14 129 42z" />
    <glyph glyph-name="uniFEFB" unicode="&#xfefb;" horiz-adv-x="1000" arabic-form="isolated" 
d="M865 1456l87 -183c-3 -8 -13 -21 -32 -38v0c-9 -12 -14 -29 -14 -52v0c-1 -199 -4 -309 -11 -328v0c-3 -32 -12 -83 -28 -153v0c-31 -91 -73 -168 -127 -231v0l57 -152c10 -23 15 -52 15 -88v0c0 -39 -22 -86 -65 -141v0c-63 -82 -170 -123 -321 -123v0
c-39 0 -75 9 -108 27v0c-37 19 -55 46 -55 81v0c0 34 10 77 31 128c20 51 41 88 62 110v0c37 27 102 81 196 163v0c-13 55 -60 134 -139 236v0c-73 91 -138 158 -195 202v0l-40 -19c-9 18 -36 51 -81 98v0c-38 37 -57 71 -57 100v0c11 37 25 74 41 111v0l49 108
c4 2 9 3 16 3v0c68 -53 164 -168 288 -345v0c73 -104 151 -229 233 -374v0c31 21 54 62 70 121v0c11 37 17 94 17 171v0c0 35 -6 98 -18 188c-13 89 -19 152 -19 188v0c0 65 49 129 148 192v0zM680 241v0c-2 34 -21 76 -56 127v0c-35 -27 -71 -54 -108 -82v0
c-51 -39 -79 -68 -84 -89v0c11 -18 35 -27 72 -27v0c23 0 50 3 83 8v0c43 13 74 34 93 63z" />
    <glyph glyph-name="uniFEFC" unicode="&#xfefc;" horiz-adv-x="1100" arabic-form="final" 
d="M1114 261v-219h-72c-101 0 -174 17 -217 50v0c-41 34 -70 86 -85 156v0c-7 21 -14 81 -23 178v0c-12 -95 -48 -184 -108 -266v0c-61 -85 -137 -141 -228 -170v0c-23 -3 -44 -4 -63 -4v0c-63 0 -112 11 -148 34v0c-50 31 -80 54 -90 69v0c67 9 139 36 218 81v0
c91 52 137 121 137 206v0c0 63 -17 139 -51 226v0c-64 155 -132 261 -204 320v0l-55 -20c-20 61 -57 147 -110 258v0c43 91 88 147 134 169v0c86 -77 163 -181 232 -312v0c69 -125 121 -251 157 -378v0c19 -65 35 -135 46 -209v0c73 119 113 240 121 364v0c5 69 7 221 7 456
v0c0 43 21 88 64 133v0c41 42 82 68 125 78v0l-2 -920c0 -73 3 -119 8 -137v0c5 -61 23 -100 53 -119v0c23 -16 52 -24 86 -24v0h68z" />
    <glyph glyph-name=".notdef" horiz-adv-x="457" 
d="M20 675h417v-675h-417v675zM68 48h320v579h-320v-579z" />
    <glyph glyph-name=".notdef" horiz-adv-x="457" 
d="M20 675h417v-675h-417v675zM68 48h320v579h-320v-579z" />
    <glyph glyph-name="space" unicode=" " horiz-adv-x="569" 
 />
    <glyph glyph-name="exclam" unicode="!" horiz-adv-x="599" 
d="M403 1409l-24 -1012h-148l-24 1012h196zM399 0h-194v201h194v-201z" />
    <glyph glyph-name="quotedbl" unicode="&#x22;" horiz-adv-x="799" 
d="M680 1409l-22 -443h-142l-20 443h184zM311 1409l-22 -443h-141l-21 443h184z" />
    <glyph glyph-name="numbersign" unicode="#" horiz-adv-x="1200" 
d="M1159 885h-233l-78 -369h260v-108h-283l-88 -408h-110l86 408h-363l-84 -408h-110l84 408h-201v108h225l78 369h-252v108h274l89 408h110l-88 -408h363l88 408h110l-88 -408h211v-108zM815 885h-360l-80 -369h362z" />
    <glyph glyph-name="dollar" unicode="$" 
d="M498 -142v162c-145 6 -258 40 -339 102c-82 61 -134 147 -157 257v0l170 37c7 -35 19 -67 34 -96s36 -55 62 -76s58 -38 96 -51c37 -13 82 -22 134 -25v0v496l-20 5c-51 12 -102 26 -151 43s-93 39 -132 67c-39 27 -70 62 -93 105c-24 43 -36 97 -36 162v0
c0 56 11 105 32 146s51 76 90 104c38 27 83 48 136 63s111 23 174 26v0v131h124v-131c67 -3 124 -12 173 -27c48 -15 89 -36 123 -63s62 -59 84 -97c22 -39 40 -83 53 -133v0l-174 -33c-13 63 -40 112 -81 147s-100 56 -178 63v0v-445c39 -9 78 -19 116 -29s74 -22 109 -35
c34 -14 66 -30 95 -49s55 -41 76 -67c21 -27 38 -58 50 -94c12 -37 18 -79 18 -127v0c0 -51 -9 -99 -28 -142c-19 -44 -47 -83 -85 -116s-86 -60 -144 -81c-59 -21 -128 -33 -207 -37v0v-162h-124zM914 394v0c0 42 -8 76 -23 103c-16 27 -37 49 -64 66s-59 30 -94 41
s-72 21 -111 31v0v-468c43 3 83 9 119 20c36 10 67 24 93 43c25 19 45 42 59 69s21 58 21 95zM238 1048v0c0 -36 7 -66 20 -91s32 -45 55 -62s51 -30 83 -41c31 -11 65 -22 102 -31v0v421c-48 -3 -89 -9 -122 -20s-60 -26 -80 -43c-21 -17 -35 -37 -44 -60s-14 -47 -14 -73z
" />
    <glyph glyph-name="percent" unicode="%" horiz-adv-x="1799" 
d="M1728 434v0c0 -83 -8 -153 -25 -210s-40 -103 -69 -138s-63 -60 -102 -75s-80 -23 -124 -23v0c-44 0 -85 8 -123 23c-39 15 -72 39 -100 74c-29 35 -51 81 -67 138c-17 57 -25 127 -25 211v0c0 89 8 162 24 220s38 104 67 139c29 34 63 58 102 72c39 13 81 20 126 20v0
c44 0 85 -7 124 -20c38 -14 71 -38 100 -72c28 -35 50 -81 67 -139s25 -131 25 -220zM1431 1409l-924 -1409h-155l922 1409h157zM374 1421v0c43 0 83 -7 121 -20c38 -14 71 -38 100 -72s51 -80 68 -137c16 -57 24 -130 24 -217v0c0 -84 -8 -155 -25 -212s-39 -104 -67 -139
c-29 -36 -62 -62 -101 -77s-80 -23 -124 -23v0c-45 0 -86 8 -125 23s-72 41 -100 76c-29 35 -51 82 -67 139c-17 57 -25 128 -25 213v0c0 87 8 160 25 217c16 57 38 103 67 137s63 58 102 72c39 13 82 20 127 20zM1580 434v0c0 66 -4 121 -11 165c-7 43 -18 78 -32 104
c-15 26 -32 44 -53 55s-45 16 -72 16v0c-28 0 -53 -5 -74 -16s-39 -30 -54 -56s-26 -61 -33 -104c-7 -44 -11 -99 -11 -164v0c0 -63 4 -116 12 -159c7 -43 18 -77 33 -103c14 -27 32 -46 53 -57s45 -17 72 -17v0c26 0 50 6 71 17s38 30 53 57c15 26 26 60 34 103
s12 96 12 159zM540 975v0c0 65 -4 120 -11 163s-18 78 -32 104s-31 44 -52 55s-44 16 -71 16v0c-29 0 -54 -5 -75 -16c-22 -11 -40 -30 -55 -56s-26 -61 -33 -104s-11 -97 -11 -162v0c0 -63 4 -117 12 -160c7 -43 18 -78 33 -104c14 -27 32 -46 53 -57s46 -17 74 -17v0
c25 0 48 6 69 17s38 30 53 57c15 26 26 61 34 104s12 97 12 160z" />
    <glyph glyph-name="ampersand" unicode="&#x26;" horiz-adv-x="1299" 
d="M1153 -12v0c-64 0 -120 11 -168 33s-91 53 -130 94v0c-20 -17 -43 -34 -68 -50s-53 -30 -84 -43s-65 -23 -101 -30c-37 -8 -76 -12 -119 -12v0c-78 0 -145 10 -202 30s-104 48 -141 83s-64 76 -81 124c-18 47 -27 99 -27 154v0c0 53 9 101 26 144s40 82 71 117
c30 35 66 66 108 94c42 27 88 52 138 74v0c-12 23 -23 47 -32 73c-10 25 -19 51 -26 77s-13 52 -17 78s-6 51 -6 74v0c0 44 7 85 20 124c13 38 34 71 63 100c28 28 64 50 109 67c44 16 97 24 159 24v0c49 0 94 -6 135 -19s76 -31 106 -55s53 -54 70 -89s25 -76 25 -121v0
c0 -50 -11 -94 -33 -133s-52 -74 -89 -105s-81 -58 -130 -83s-102 -49 -157 -71v0c41 -76 86 -147 135 -214s101 -133 158 -198v0c41 60 75 123 102 190c27 66 50 139 69 220v0l145 -43c-23 -93 -53 -177 -88 -252c-36 -76 -77 -148 -124 -217v0c35 -36 71 -61 106 -76
s69 -22 102 -22v0c21 0 42 1 62 4c19 2 38 6 55 12v0v-135c-19 -7 -40 -13 -65 -16c-25 -4 -51 -6 -76 -6zM829 1133v0c0 25 -4 47 -13 67s-22 37 -38 52c-16 14 -35 25 -58 33c-23 7 -49 11 -77 11v0c-64 0 -113 -17 -146 -51c-33 -35 -50 -82 -50 -143v0
c0 -39 6 -80 19 -123c12 -43 27 -84 46 -121v0c43 17 84 35 123 54c39 18 72 38 101 60c29 21 51 45 68 72c17 26 25 56 25 89zM755 217v0c-59 70 -116 143 -171 220s-104 156 -148 237v0c-75 -32 -133 -73 -174 -122s-62 -109 -62 -179v0c0 -37 6 -71 18 -102
c11 -32 29 -60 53 -83c24 -24 54 -43 91 -56c36 -14 78 -21 127 -21v0c29 0 57 3 84 10c26 6 50 14 73 24s43 21 62 34c18 13 34 25 47 38z" />
    <glyph glyph-name="quotesingle" unicode="'" horiz-adv-x="501" 
d="M348 1409l-22 -443h-141l-21 443h184z" />
    <glyph glyph-name="parenleft" unicode="(" horiz-adv-x="701" 
d="M107 528v4c0 93 7 181 21 266s36 166 66 244s68 154 115 227s102 145 167 215v0h174c-63 -70 -117 -142 -162 -215c-46 -74 -84 -150 -113 -228c-29 -79 -51 -160 -65 -245c-15 -85 -22 -173 -22 -266v0c0 -93 7 -181 22 -266c14 -85 36 -166 65 -245s67 -155 113 -228
c45 -73 99 -145 162 -215v0h-174c-65 70 -120 142 -167 215s-85 149 -115 227s-52 159 -66 244c-14 84 -21 173 -21 266v0z" />
    <glyph glyph-name="parenright" unicode=")" horiz-adv-x="701" 
d="M605 532v-4c0 -93 -7 -182 -21 -266c-14 -85 -36 -166 -66 -244s-68 -154 -115 -227s-102 -145 -167 -215v0h-174c63 70 117 142 163 215c45 73 83 149 112 228s51 160 66 245c14 85 21 173 21 266v0c0 93 -7 181 -21 266c-15 85 -37 166 -66 245
c-29 78 -67 154 -112 228c-46 73 -100 145 -163 215v0h174c65 -70 120 -142 167 -215s85 -149 115 -227s52 -159 66 -244s21 -173 21 -266v0z" />
    <glyph glyph-name="asterisk" unicode="*" horiz-adv-x="799" 
d="M469 1409l-13 -295l264 103l45 -132l-282 -73l185 -250l-119 -72l-150 258l-156 -256l-119 72l189 248l-280 73l45 134l267 -107l-12 297h136z" />
    <glyph glyph-name="plus" unicode="+" horiz-adv-x="1200" 
d="M1095 608h-424v-428h-147v428h-424v146h424v428h147v-428h424v-146z" />
    <glyph glyph-name="comma" unicode="," horiz-adv-x="569" 
d="M190 219h195v-168c0 -35 -1 -67 -4 -96s-8 -56 -15 -81s-15 -49 -24 -71c-10 -22 -22 -44 -35 -65v0h-123c30 43 53 87 70 131c16 44 24 88 24 131v0h-88v219z" />
    <glyph glyph-name="hyphen" unicode="-" horiz-adv-x="1025" 
d="M209 740h654v-130h-654v130z" />
    <glyph glyph-name="period" unicode="." horiz-adv-x="599" 
d="M382 0h-195v219h195v-219z" />
    <glyph glyph-name="slash" unicode="/" horiz-adv-x="599" 
d="M172 -20h-162l411 1504h158z" />
    <glyph glyph-name="zero" unicode="0" 
d="M1039 705v0c0 -135 -13 -249 -38 -341c-26 -93 -61 -167 -105 -224c-45 -57 -97 -98 -157 -123s-124 -37 -192 -37v0c-69 0 -133 12 -192 37s-111 65 -154 122c-44 57 -78 131 -103 224c-25 92 -38 206 -38 342v0c0 142 13 260 38 353s59 167 103 222s96 94 156 117
c60 22 125 33 196 33v0c67 0 131 -11 190 -33c59 -23 110 -62 154 -117s79 -129 104 -222s38 -211 38 -353zM856 705v0c0 112 -7 205 -20 280c-13 74 -33 133 -59 178c-26 44 -58 75 -95 94c-38 18 -81 27 -129 27v0c-51 0 -95 -9 -134 -28s-71 -50 -97 -94
c-27 -45 -47 -104 -60 -178c-13 -75 -20 -168 -20 -279v0c0 -108 7 -199 21 -273c13 -74 33 -133 60 -178c26 -45 58 -78 96 -97c38 -20 81 -30 130 -30v0c47 0 90 10 128 30c38 19 70 52 97 97c26 45 46 104 61 178c14 74 21 165 21 273z" />
    <glyph glyph-name="one" unicode="1" horiz-adv-x="1000" 
d="M929 0h-833v153h339v1084l-318 -227v170l333 229h166v-1256h313v-153z" />
    <glyph glyph-name="two" unicode="2" 
d="M1028 0h-933v127c34 78 76 147 125 207c49 59 100 113 154 162c54 48 108 93 161 134s100 83 143 124s77 85 104 130c26 45 39 97 39 154v0c0 40 -6 75 -18 106c-12 30 -29 55 -52 76s-50 36 -81 47c-32 10 -67 15 -106 15v0c-36 0 -70 -5 -101 -15
c-32 -10 -60 -25 -85 -45s-45 -45 -60 -74c-16 -30 -26 -65 -31 -104v0l-184 17c6 51 20 98 42 143s52 84 91 118c39 33 85 60 140 79c54 19 117 29 188 29v0c70 0 132 -8 187 -25s101 -41 139 -74c37 -33 66 -73 86 -121s30 -103 30 -166v0c0 -47 -8 -92 -25 -135
s-40 -83 -68 -122c-29 -39 -62 -76 -99 -112s-76 -71 -117 -105c-41 -35 -82 -69 -123 -102c-41 -34 -80 -68 -116 -102c-37 -34 -69 -68 -98 -103s-51 -72 -67 -110v0h735v-153z" />
    <glyph glyph-name="three" unicode="3" 
d="M1035 389v0c0 -65 -10 -122 -31 -173s-52 -93 -92 -128c-41 -35 -91 -62 -150 -80c-60 -19 -128 -28 -205 -28v0c-87 0 -161 11 -220 33c-60 21 -109 50 -148 86c-39 35 -68 76 -87 122c-19 45 -32 92 -38 141v0l186 17c5 -37 15 -71 30 -102c14 -31 33 -57 58 -79
s55 -39 91 -51s79 -18 128 -18v0c91 0 162 22 214 67c51 45 77 111 77 199v0c0 52 -11 94 -34 126c-23 31 -52 56 -86 74c-35 17 -72 29 -112 35c-41 6 -78 9 -112 9v0h-102v156h98c34 0 69 4 106 11s70 19 101 38c30 18 55 43 75 74c19 31 29 71 29 120v0
c0 75 -22 135 -66 179c-45 43 -111 65 -198 65v0c-79 0 -143 -20 -192 -61s-78 -98 -86 -172v0l-181 14c7 62 24 116 51 162s61 84 102 115c41 30 87 53 140 68s109 22 168 22v0c79 0 146 -10 203 -29c57 -20 103 -47 139 -80c36 -34 63 -74 80 -119s25 -94 25 -145v0
c0 -41 -6 -80 -17 -116s-29 -68 -53 -97s-54 -53 -91 -74s-82 -36 -134 -47v0v-4c57 -6 106 -19 148 -38c42 -20 77 -45 104 -74s48 -63 62 -100c13 -37 20 -77 20 -118z" />
    <glyph glyph-name="four" unicode="4" 
d="M1063 319h-178v-319h-170v319h-664v140l645 950h189v-948h178v-142zM715 461v745c-1 -3 -5 -10 -10 -19c-5 -10 -11 -21 -18 -33s-13 -24 -20 -36c-7 -13 -14 -23 -19 -31v0l-361 -532c-3 -5 -8 -12 -14 -21c-7 -9 -13 -17 -20 -26s-13 -18 -20 -27s-12 -15 -16 -20v0
h498z" />
    <glyph glyph-name="five" unicode="5" horiz-adv-x="1098" 
d="M1040 459v0c0 -71 -11 -135 -32 -194s-53 -109 -95 -151c-42 -43 -94 -76 -156 -99c-63 -23 -135 -35 -217 -35v0c-74 0 -138 9 -193 26s-102 41 -140 72c-38 30 -68 65 -90 106c-23 41 -39 84 -48 131v0l182 21c7 -27 18 -52 31 -77s32 -48 55 -67c23 -20 51 -36 85 -47
c33 -12 74 -18 122 -18v0c47 0 89 7 127 22c38 14 71 35 98 63s47 62 62 103s22 87 22 140v0c0 43 -7 83 -21 120c-14 36 -34 67 -60 94c-26 26 -58 46 -95 61c-38 15 -81 22 -129 22v0c-30 0 -58 -3 -83 -8s-49 -13 -70 -22c-22 -9 -42 -20 -59 -32
c-18 -13 -35 -26 -50 -39v0h-176l47 758h801v-153h-637l-27 -447c32 25 72 46 120 64c48 17 105 26 171 26v0c70 0 133 -11 189 -32s104 -51 143 -90s70 -86 91 -140s32 -113 32 -178z" />
    <glyph glyph-name="six" unicode="6" 
d="M1029 461v0c0 -71 -10 -135 -29 -194c-20 -59 -49 -110 -87 -152c-39 -43 -86 -76 -143 -99c-57 -24 -122 -36 -196 -36v0c-82 0 -154 16 -215 47s-112 77 -153 136s-71 131 -91 217c-21 85 -31 183 -31 292v0c0 125 12 235 35 330s56 174 99 237s96 111 159 143
c62 32 132 48 211 48v0c48 0 93 -5 135 -15s80 -26 115 -48c34 -23 64 -52 90 -89s47 -82 62 -135v0l-172 -31c-19 61 -48 105 -89 132s-89 40 -143 40v0c-49 0 -94 -12 -134 -35s-74 -58 -102 -104c-28 -47 -49 -105 -64 -175s-23 -152 -23 -245v0c33 61 79 107 138 139
c59 31 127 47 204 47v0c64 0 122 -10 174 -31s97 -50 134 -89s65 -87 86 -142c20 -56 30 -119 30 -188zM846 453v0c0 49 -6 93 -18 132s-30 73 -54 101c-24 27 -54 49 -89 64s-76 22 -123 22v0c-33 0 -66 -5 -99 -14c-33 -10 -63 -26 -90 -47c-27 -22 -49 -51 -66 -86
s-26 -78 -26 -129v0c0 -52 7 -100 20 -145s33 -85 58 -118s55 -60 90 -79s75 -29 119 -29v0c43 0 82 8 117 23c34 15 63 36 87 65c24 28 42 62 55 103s19 86 19 137z" />
    <glyph glyph-name="seven" unicode="7" 
d="M1026 1409v-146c-71 -108 -136 -212 -195 -311c-59 -100 -110 -200 -153 -301s-76 -205 -99 -311c-24 -107 -36 -220 -36 -340v0h-188c0 113 13 223 40 332c27 108 63 214 108 319c45 104 98 206 158 307s124 200 191 298v0h-757v153h931z" />
    <glyph glyph-name="eight" unicode="8" 
d="M1030 393v0c0 -60 -9 -115 -28 -165c-19 -51 -48 -94 -87 -131s-89 -65 -150 -86s-132 -31 -215 -31v0c-83 0 -154 10 -214 31c-61 21 -111 49 -150 86c-40 36 -69 79 -88 130c-19 50 -29 105 -29 164v0c0 51 8 97 24 137c15 40 36 75 63 104c26 29 56 52 90 70
c33 17 68 29 104 35v0v4c-39 9 -74 24 -105 45s-57 46 -78 75s-37 61 -48 96s-17 73 -17 112v0c0 49 10 96 29 140c19 43 47 82 84 115s84 59 139 78s119 28 192 28v0c77 0 143 -10 200 -29c56 -19 103 -45 140 -78s64 -72 82 -116s27 -91 27 -140v0c0 -39 -5 -76 -16 -111
s-27 -67 -48 -96s-47 -54 -78 -74c-31 -21 -67 -35 -108 -43v0v-4c41 -7 78 -19 113 -36c35 -18 65 -41 90 -70s45 -64 60 -104s22 -85 22 -136zM808 1057v0c0 35 -4 68 -13 97s-24 55 -45 76s-48 37 -81 49c-33 11 -74 17 -123 17v0c-47 0 -87 -6 -120 -17
c-33 -12 -59 -28 -80 -49s-37 -47 -46 -76s-14 -62 -14 -97v0c0 -28 4 -57 11 -86s21 -56 40 -80s46 -44 80 -59s78 -23 131 -23v0c57 0 102 8 137 23c34 15 60 35 79 59c18 24 30 51 36 80c5 29 8 58 8 86zM843 410v0c0 34 -5 67 -14 99c-9 31 -25 59 -48 84
c-23 24 -53 44 -91 59c-39 15 -87 22 -144 22v0c-53 0 -97 -7 -134 -22s-67 -35 -90 -60s-40 -53 -51 -85c-11 -33 -16 -66 -16 -101v0c0 -43 5 -83 16 -118c11 -36 28 -67 51 -92c23 -26 54 -46 92 -60s84 -21 138 -21v0c55 0 101 7 138 21s67 34 90 60c23 25 39 56 49 93
c9 36 14 76 14 121z" />
    <glyph glyph-name="nine" unicode="9" 
d="M1022 733v0c0 -125 -12 -235 -35 -329c-24 -95 -58 -173 -102 -236s-97 -110 -160 -141s-134 -47 -213 -47v0c-54 0 -103 6 -146 17s-82 28 -116 51s-63 54 -87 91s-43 82 -58 135v0l172 27c19 -61 48 -105 88 -133c39 -29 89 -43 150 -43v0c49 0 93 12 134 35
c40 23 74 57 103 103c28 46 50 104 66 173s25 151 26 244v0c-14 -31 -33 -59 -57 -84c-25 -25 -52 -45 -83 -62s-65 -30 -101 -39s-72 -14 -109 -14v0c-64 0 -122 12 -173 35c-52 23 -96 55 -132 96s-64 91 -83 150c-20 58 -30 123 -30 194v0c0 73 11 138 32 197
s51 109 91 150s89 72 148 94c58 22 124 33 198 33v0c157 0 275 -58 356 -174s121 -290 121 -523zM826 907v0c0 52 -6 101 -18 147c-13 46 -31 86 -55 120c-25 34 -55 61 -90 81c-36 19 -77 29 -124 29v0c-43 0 -82 -8 -117 -23s-64 -37 -88 -65c-24 -29 -42 -63 -55 -104
s-20 -86 -20 -136v0c0 -47 6 -91 18 -132c11 -41 29 -76 52 -105c23 -30 52 -53 87 -70s75 -26 121 -26v0c33 0 67 6 102 17c34 11 65 29 93 52c27 23 50 53 68 89c17 35 26 77 26 126z" />
    <glyph glyph-name="colon" unicode=":" horiz-adv-x="599" 
d="M402 875h-195v207h195v-207zM402 0h-195v207h195v-207z" />
    <glyph glyph-name="semicolon" unicode=";" horiz-adv-x="599" 
d="M210 207h195v-156c0 -35 -1 -67 -4 -96s-8 -56 -15 -81s-15 -49 -24 -71c-10 -22 -22 -44 -35 -65v0h-123c30 43 53 87 70 131c16 44 24 88 24 131v0h-88v207zM405 875h-195v207h195v-207z" />
    <glyph glyph-name="less" unicode="&#x3c;" horiz-adv-x="1200" 
d="M1096 154l-995 417v205l995 418v-154l-858 -366l858 -367v-153z" />
    <glyph glyph-name="equal" unicode="=" horiz-adv-x="1200" 
d="M1095 856h-995v148h995v-148zM1095 344h-995v148h995v-148z" />
    <glyph glyph-name="greater" unicode="&#x3e;" horiz-adv-x="1200" 
d="M1096 571l-995 -417v153l858 367l-858 366v154l995 -418v-205z" />
    <glyph glyph-name="question" unicode="?" 
d="M1043 1032v0c0 -47 -6 -89 -18 -125c-13 -36 -29 -68 -50 -96c-21 -29 -44 -54 -70 -76c-27 -23 -54 -44 -81 -64s-54 -40 -80 -59c-27 -19 -50 -40 -71 -63s-38 -48 -51 -75c-13 -28 -20 -60 -21 -97v0h-175c1 46 9 86 22 121s29 65 50 92s44 51 70 72s52 41 79 60
s53 38 79 57c25 19 48 40 68 63s36 50 49 79c12 29 18 64 18 103v0c0 39 -7 74 -21 105s-34 57 -59 78c-26 21 -57 36 -93 47c-37 11 -77 16 -122 16v0c-93 0 -167 -23 -222 -70s-87 -111 -96 -192v0l-184 12c7 56 22 109 45 159c22 49 53 93 94 130c40 37 90 67 150 89
c59 21 130 32 211 32v0c76 0 144 -9 203 -28s110 -45 151 -79c41 -35 72 -77 93 -126s32 -104 32 -165zM613 0h-195v201h195v-201z" />
    <glyph glyph-name="at" unicode="@" horiz-adv-x="1999" 
d="M1872 755v0c0 -96 -11 -184 -33 -263c-23 -80 -54 -149 -93 -206s-86 -102 -141 -134s-115 -48 -180 -48v0c-37 0 -69 5 -95 14c-27 9 -48 21 -65 37c-17 15 -29 34 -36 55s-11 45 -11 70v0c0 10 0 22 1 37c1 14 1 25 2 33v0h-6c-16 -30 -35 -60 -58 -89
c-23 -30 -50 -56 -81 -79s-66 -42 -105 -56c-39 -15 -83 -22 -130 -22v0c-56 0 -105 10 -146 29c-42 19 -76 46 -103 81c-27 34 -48 75 -61 122s-20 98 -20 153v0c0 80 12 157 36 231c23 73 57 138 101 195c44 56 97 101 159 135c61 34 130 51 206 51v0c40 0 76 -4 108 -13
s60 -22 85 -38c24 -16 45 -35 63 -57c18 -23 33 -47 45 -74v0h6l39 160h156l-116 -506c-13 -56 -22 -104 -28 -144s-9 -76 -9 -109v0c0 -32 7 -56 22 -71c14 -15 34 -23 59 -23v0c41 0 80 14 116 41c35 27 66 64 93 111c26 47 47 103 62 167s22 133 22 208v0
c0 86 -14 166 -41 240c-28 74 -69 138 -122 192c-54 54 -121 96 -200 127s-171 46 -275 46v0c-89 0 -172 -11 -247 -32c-76 -21 -145 -51 -206 -90s-115 -85 -161 -138c-47 -54 -86 -113 -117 -177s-55 -132 -71 -205s-24 -148 -24 -225v0c0 -94 14 -181 43 -260
s71 -147 126 -204s123 -102 204 -134s174 -48 279 -48v0c70 0 135 6 196 17s116 24 167 40s96 34 136 53s75 36 104 52v0l55 -112c-33 -20 -72 -40 -117 -61s-96 -41 -151 -58s-116 -31 -181 -42s-135 -17 -209 -17v0c-127 0 -239 19 -337 58c-99 38 -182 91 -249 160
c-68 69 -119 150 -154 245s-53 198 -53 311v0c0 93 11 182 32 267s51 165 90 238s87 140 144 200s121 111 193 154c71 43 150 76 235 99s175 35 271 35v0c134 0 250 -20 347 -59s178 -92 242 -159c63 -67 110 -144 141 -232s46 -181 46 -279zM1266 747v0c0 33 -6 64 -17 92
s-27 52 -48 72s-47 36 -76 47c-30 11 -64 16 -101 16v0c-57 0 -108 -14 -151 -42c-43 -29 -79 -66 -108 -112s-51 -98 -66 -155c-15 -58 -23 -116 -23 -174v0c0 -80 16 -143 48 -188c31 -45 80 -68 146 -68v0c46 0 89 10 129 31s76 48 108 82s60 73 83 117s41 90 53 137v0
c6 24 11 49 16 76s7 50 7 69z" />
    <glyph glyph-name="A" unicode="A" horiz-adv-x="1299" 
d="M1293 0h-185l-153 412h-609l-154 -412h-188l546 1409h206zM901 561l-172 465c-10 27 -20 54 -29 81s-17 52 -24 75c-7 22 -12 41 -17 56l-9 27v0c-1 -3 -3 -13 -8 -28s-11 -34 -18 -57s-15 -48 -24 -75s-19 -54 -28 -81v0l-171 -463h500z" />
    <glyph glyph-name="B" unicode="B" horiz-adv-x="1299" 
d="M1198 397v0c0 -71 -14 -132 -42 -182c-28 -51 -66 -92 -113 -123c-47 -32 -102 -55 -165 -70s-129 -22 -198 -22v0h-572v1409h512c78 0 148 -6 209 -19s113 -34 156 -62s75 -63 98 -106c22 -43 33 -95 33 -155v0c0 -39 -5 -76 -16 -111s-28 -66 -50 -94
c-23 -29 -51 -53 -84 -73c-34 -21 -73 -36 -118 -46v0c57 -7 107 -20 151 -39c43 -19 80 -44 109 -74s52 -65 67 -104c15 -40 23 -83 23 -129zM924 1044v0c0 76 -26 130 -78 163s-127 49 -226 49v0h-321v-446h321c56 0 103 6 142 17s70 26 94 47c24 20 41 44 52 73
s16 61 16 97zM1005 412v0c0 45 -8 83 -24 114c-17 31 -40 57 -71 77s-67 35 -110 44s-92 14 -145 14v0h-356v-508h371c49 0 94 4 135 12s76 22 106 42c29 20 52 47 69 80s25 75 25 125z" />
    <glyph glyph-name="C" unicode="C" horiz-adv-x="1401" 
d="M742 1274v0c-80 0 -151 -13 -212 -40c-62 -27 -114 -65 -155 -114c-42 -49 -74 -109 -95 -178s-32 -146 -32 -231v0c0 -85 12 -162 35 -232c23 -71 56 -131 99 -182s95 -90 158 -118c62 -28 132 -42 210 -42v0c55 0 105 7 150 22c45 14 85 34 122 60c36 26 68 57 97 93
c29 35 54 75 76 118v0l156 -78c-25 -53 -57 -102 -94 -147s-81 -85 -131 -118c-51 -33 -108 -59 -171 -78c-64 -19 -135 -29 -214 -29v0c-114 0 -214 18 -299 55c-86 36 -158 87 -215 152c-58 65 -101 142 -130 231s-43 187 -43 293v0c0 110 15 209 46 298
c30 89 74 164 133 227c58 62 130 110 215 144c85 33 183 50 292 50v0c150 0 275 -29 376 -88s175 -146 222 -261v0l-181 -60c-13 33 -31 65 -54 96c-23 30 -51 57 -85 80s-74 42 -119 56c-46 14 -98 21 -157 21z" />
    <glyph glyph-name="D" unicode="D" horiz-adv-x="1401" 
d="M1321 719v0c0 -117 -18 -221 -53 -310c-35 -90 -84 -165 -145 -225c-61 -61 -134 -106 -217 -137c-84 -31 -174 -47 -271 -47v0h-527v1409h466c109 0 209 -13 301 -40c91 -27 170 -69 236 -125c66 -57 118 -128 155 -215s55 -190 55 -310zM1129 719v0
c0 95 -14 177 -41 245c-27 67 -66 123 -115 166s-108 75 -177 96c-69 20 -144 30 -226 30v0h-271v-1103h314c74 0 143 12 206 36s117 60 163 107s82 106 108 177s39 153 39 246z" />
    <glyph glyph-name="E" unicode="E" horiz-adv-x="1299" 
d="M1238 0h-1110v1409h1069v-156h-878v-452h818v-154h-818v-491h919v-156z" />
    <glyph glyph-name="F" unicode="F" horiz-adv-x="1200" 
d="M1119 1253h-810v-524h786v-158h-786v-571h-191v1409h1001v-156z" />
    <glyph glyph-name="G" unicode="G" horiz-adv-x="1499" 
d="M83 711v0c0 110 15 209 45 298c29 89 74 164 133 227c59 62 132 110 219 144c87 33 189 50 304 50v0c87 0 163 -8 228 -23s122 -37 170 -66s89 -63 122 -104s62 -88 85 -139v0l-182 -54c-17 35 -38 66 -62 95c-25 28 -54 52 -89 72s-75 36 -120 47c-46 11 -98 16 -157 16
v0c-85 0 -159 -13 -222 -40s-116 -65 -157 -114s-72 -109 -92 -178c-21 -69 -31 -146 -31 -231v0c0 -85 11 -162 33 -232c22 -71 55 -131 98 -182s97 -91 162 -119c64 -29 138 -43 223 -43v0c55 0 106 5 153 14s89 22 127 37c37 15 70 31 99 50c29 18 53 36 72 55v0v254
h-421v160h597v-486c-31 -32 -68 -62 -110 -91c-43 -29 -90 -55 -143 -77s-110 -39 -173 -52s-130 -19 -201 -19v0c-119 0 -222 18 -311 55c-89 36 -162 87 -221 152s-104 142 -133 231c-30 89 -45 187 -45 293z" />
    <glyph glyph-name="H" unicode="H" horiz-adv-x="1401" 
d="M1272 0h-191v653h-762v-653h-191v1409h191v-596h762v596h191v-1409z" />
    <glyph glyph-name="I" unicode="I" horiz-adv-x="569" 
d="M380 0h-191v1409h191v-1409z" />
    <glyph glyph-name="J" unicode="J" horiz-adv-x="1000" 
d="M482 -20v0c-114 0 -207 30 -280 89s-122 153 -145 281v0l187 31c7 -43 18 -80 33 -111s34 -57 55 -77s45 -35 71 -44s53 -14 80 -14v0c69 0 124 24 164 72c40 47 60 117 60 209v0v837h-271v156h461v-989c0 -67 -9 -128 -28 -182s-46 -100 -81 -138
c-36 -39 -80 -68 -131 -89s-110 -31 -175 -31z" />
    <glyph glyph-name="K" unicode="K" horiz-adv-x="1299" 
d="M1303 0h-237l-563 680l-184 -140v-540h-191v1409h191v-706l679 706h225l-600 -612z" />
    <glyph glyph-name="L" unicode="L" 
d="M1051 0h-903v1409h191v-1253h712v-156z" />
    <glyph glyph-name="M" unicode="M" horiz-adv-x="1601" 
d="M1488 0h-172v940c0 34 0 69 1 104s2 68 3 97v0c1 34 3 67 5 99v0c-9 -34 -19 -68 -29 -101v0c-9 -29 -18 -59 -28 -91c-11 -33 -21 -62 -31 -88v0l-364 -960h-134l-369 960c-4 10 -8 22 -12 35c-5 13 -9 28 -14 43s-10 30 -15 46c-5 15 -10 31 -15 46v0
c-11 35 -22 72 -33 110v0l3 -111v0c1 -31 2 -64 3 -98c1 -35 1 -65 1 -91v0v-940h-170v1409h251l375 -977c5 -13 10 -30 17 -51s13 -43 19 -65s12 -43 17 -62c5 -20 8 -35 10 -46v0c2 11 6 26 11 46s12 41 19 63s13 43 20 64s13 38 18 51v0l368 977h245v-1409z" />
    <glyph glyph-name="N" unicode="N" horiz-adv-x="1401" 
d="M1272 0h-230l-754 1200c1 -33 3 -65 5 -97v0c1 -27 3 -56 4 -86c1 -31 1 -58 1 -81v0v-936h-170v1409h222l762 -1208c-2 33 -4 65 -6 98v0c-1 28 -3 59 -4 92s-2 64 -2 94v0v924h172v-1409z" />
    <glyph glyph-name="O" unicode="O" horiz-adv-x="1499" 
d="M1077 1119c-81 103 -190 154 -328 154v0c-138 0 -248 -51 -329 -154s-122 -244 -122 -421v0c0 -177 41 -316 122 -419s191 -155 329 -155v0c138 0 247 52 328 155s121 242 121 419v0c0 177 -40 318 -121 421zM749 1427v0c197 0 354 -66 472 -198s177 -309 177 -531v0
c0 -221 -59 -398 -177 -530s-275 -198 -472 -198v0c-197 0 -355 66 -473 198c-119 131 -178 308 -178 530v0c0 222 59 399 178 531c118 132 276 198 473 198z" />
    <glyph glyph-name="P" unicode="P" horiz-adv-x="1299" 
d="M1208 985v0c0 -61 -10 -118 -30 -171c-21 -53 -51 -99 -91 -138c-41 -39 -91 -70 -152 -93s-131 -34 -212 -34v0h-414v-549h-191v1409h593c83 0 156 -10 218 -30c62 -21 114 -49 155 -86s72 -82 93 -134c21 -53 31 -111 31 -174zM1016 983v0c0 89 -27 157 -82 204
c-55 46 -137 69 -246 69v0h-379v-556h387c110 0 191 24 243 73c51 49 77 119 77 210z" />
    <glyph glyph-name="Q" unicode="Q" horiz-adv-x="1499" 
d="M1445 711v0c0 -99 -13 -190 -38 -272c-26 -83 -63 -155 -111 -217c-49 -62 -108 -112 -178 -151c-71 -39 -151 -65 -240 -77v0c14 -43 30 -79 48 -109c17 -30 37 -54 60 -73s48 -33 76 -42c27 -9 58 -14 92 -14v0c19 0 39 1 60 4s40 6 55 9v0v-134
c-25 -6 -53 -11 -83 -15c-31 -5 -62 -7 -95 -7v0c-57 0 -107 9 -150 26s-80 41 -112 73c-33 31 -61 70 -84 116s-44 98 -62 156v0c-105 5 -198 27 -277 66c-80 38 -146 89 -199 154c-53 64 -93 139 -120 226c-27 86 -40 180 -40 281v0c0 110 15 209 46 298s76 164 135 227
c59 62 133 110 220 144c87 33 186 50 299 50v0c112 0 212 -17 299 -51s160 -82 219 -145s103 -138 134 -227s46 -187 46 -296zM1250 711v0c0 85 -11 162 -32 231c-22 69 -54 129 -96 178c-43 49 -95 87 -158 114s-135 40 -217 40v0c-84 0 -158 -13 -221 -40
s-116 -65 -158 -114c-43 -49 -74 -109 -95 -178s-32 -146 -32 -231v0c0 -85 11 -162 33 -232c21 -71 53 -131 96 -182c42 -51 95 -91 158 -119c63 -29 135 -43 217 -43v0c88 0 164 14 228 43c63 29 116 69 157 120s71 111 91 182c19 71 29 148 29 231z" />
    <glyph glyph-name="R" unicode="R" horiz-adv-x="1401" 
d="M1354 0h-220l-366 585h-439v-585h-191v1409h663c80 0 151 -9 213 -27c61 -19 113 -45 155 -80s74 -77 96 -127s33 -106 33 -169v0c0 -45 -6 -89 -19 -132s-34 -83 -62 -119s-64 -67 -107 -93s-95 -44 -156 -55v0zM1106 1004v0c0 43 -7 80 -22 111s-36 58 -64 79
s-62 36 -102 47c-40 10 -85 15 -136 15v0h-453v-520h461c55 0 102 7 142 21c40 13 73 32 99 56c25 24 44 52 57 85c12 33 18 68 18 106z" />
    <glyph glyph-name="S" unicode="S" horiz-adv-x="1299" 
d="M1232 389v0c0 -59 -11 -114 -34 -164s-59 -93 -107 -129c-48 -37 -108 -65 -181 -85c-73 -21 -160 -31 -260 -31v0c-175 0 -312 31 -410 92s-160 150 -187 266v0l185 37c9 -37 24 -70 43 -100s46 -56 79 -77c33 -22 73 -39 122 -51s107 -18 175 -18v0c57 0 109 5 156 15
c47 9 88 24 122 44s61 46 80 78c19 31 28 69 28 113v0c0 46 -10 83 -31 112s-51 52 -89 71s-83 34 -136 47s-111 26 -175 41v0c-39 9 -79 18 -118 29c-40 10 -78 22 -114 37c-37 14 -71 31 -103 50s-60 43 -83 70s-42 58 -55 94c-13 35 -20 76 -20 123v0c0 67 14 124 41 172
c27 47 64 86 112 117s105 53 170 67s136 21 212 21v0c87 0 162 -7 224 -20c62 -14 114 -35 157 -62s77 -61 103 -101c25 -41 46 -88 61 -141v0l-188 -33c-9 34 -23 64 -40 91c-18 27 -41 49 -70 67s-63 32 -104 41s-90 14 -145 14v0c-65 0 -120 -6 -164 -17
c-45 -12 -80 -28 -107 -48s-47 -43 -58 -70c-12 -27 -18 -57 -18 -88v0c0 -42 11 -76 32 -103s49 -50 85 -68s78 -33 125 -45s98 -24 151 -36v0c43 -10 87 -20 130 -30c43 -11 84 -23 123 -37c39 -15 76 -32 111 -51c34 -19 64 -43 89 -71s45 -61 60 -99
c14 -38 21 -83 21 -134z" />
    <glyph glyph-name="T" unicode="T" horiz-adv-x="1251" 
d="M1204 1253h-484v-1253h-190v1253h-484v156h1158v-156z" />
    <glyph glyph-name="U" unicode="U" horiz-adv-x="1401" 
d="M691 -20v0c-77 0 -151 10 -220 31s-130 53 -182 97c-53 43 -94 99 -125 166s-46 146 -46 238v0v897h191v-881c0 -71 10 -132 29 -181c19 -50 45 -91 79 -122s74 -54 121 -68c46 -15 97 -22 152 -22v0c55 0 106 7 155 22s91 38 128 70s66 74 87 126c21 51 31 114 31 188v0
v868h190v-879c0 -94 -15 -175 -46 -244s-74 -127 -127 -172s-116 -79 -187 -101c-72 -22 -149 -33 -230 -33z" />
    <glyph glyph-name="V" unicode="V" horiz-adv-x="1299" 
d="M1299 1409l-550 -1409h-190l-550 1409h212l354 -972c9 -30 19 -60 29 -89c9 -30 18 -57 25 -80v0c9 -27 18 -54 26 -80v0c7 25 16 51 25 78v0c7 23 16 50 25 79s19 60 30 92v0l352 972h212z" />
    <glyph glyph-name="W" unicode="W" horiz-adv-x="1799" 
d="M1806 1409l-395 -1409h-228l-214 895c-7 25 -15 55 -23 90c-9 35 -16 68 -23 99v0c-8 37 -16 74 -24 112v0c-9 -39 -17 -76 -25 -113v0c-7 -32 -15 -65 -23 -99s-16 -64 -23 -89v0l-216 -895h-228l-395 1409h199l233 -895c11 -42 22 -84 33 -125c10 -41 19 -78 26 -111v0
c9 -39 17 -75 24 -110v0c10 46 20 91 31 136v0c5 19 9 38 14 59s10 41 15 61s10 39 15 58c5 18 9 35 13 50v0l215 877h183l215 -877c4 -15 9 -32 14 -50l15 -57c5 -20 9 -40 14 -61s9 -40 14 -59v0c11 -45 21 -90 31 -137v0c1 0 4 12 9 35s12 51 20 86s17 72 27 113
c9 40 19 77 29 112v0l229 895h199z" />
    <glyph glyph-name="X" unicode="X" horiz-adv-x="1299" 
d="M1283 0h-211l-423 616l-432 -616h-211l536 732l-495 677h211l392 -553l381 553h211l-482 -670z" />
    <glyph glyph-name="Y" unicode="Y" horiz-adv-x="1299" 
d="M1291 1409l-544 -825v-584h-190v584l-542 825h210l429 -671l427 671h210z" />
    <glyph glyph-name="Z" unicode="Z" horiz-adv-x="1200" 
d="M1167 156v-156h-1122v143l858 1110h-785v156h1002v-139l-858 -1114h905z" />
    <glyph glyph-name="bracketleft" unicode="[" horiz-adv-x="599" 
d="M503 -425h-407v1909h407v-129h-233v-1651h233v-129z" />
    <glyph glyph-name="backslash" unicode="\" horiz-adv-x="599" 
d="M579 -20h-162l-407 1504h158z" />
    <glyph glyph-name="bracketright" unicode="]" horiz-adv-x="599" 
d="M503 -425h-407v129h233v1651h-233v129h407v-1909z" />
    <glyph glyph-name="asciicircum" unicode="^" horiz-adv-x="901" 
d="M894 710h-156l-293 601l-291 -601h-154l350 699h192z" />
    <glyph glyph-name="underscore" unicode="_" horiz-adv-x="1200" 
d="M1104 3h-1005v130h1005v-130z" />
    <glyph glyph-name="grave" unicode="`" horiz-adv-x="682" 
d="M530 1201h-94l-330 278v29h207l217 -287v-20z" />
    <glyph glyph-name="a" unicode="a" horiz-adv-x="1139" 
d="M414 -20v0c-109 0 -190 29 -245 86s-82 136 -82 236v0c0 71 14 130 41 176c27 45 62 81 106 107c43 26 93 44 149 54s113 16 171 17v0l243 4v59c0 45 -5 83 -14 114s-24 57 -43 76s-43 34 -72 43s-64 13 -103 13v0c-35 0 -66 -2 -94 -7s-52 -14 -73 -27s-37 -31 -50 -53
c-13 -23 -21 -51 -25 -85v0l-188 17c7 43 19 82 38 118c19 35 45 66 80 92c34 26 77 46 129 61c51 14 114 21 187 21v0c136 0 238 -31 307 -93c69 -63 103 -153 103 -271v0v-466c0 -53 7 -93 21 -120s41 -41 80 -41v0c10 0 20 1 30 2s20 3 29 5v0v-112
c-23 -5 -45 -9 -67 -12c-23 -3 -47 -4 -72 -4v0c-34 0 -63 5 -87 14c-25 9 -45 22 -60 41c-15 18 -27 41 -35 68s-13 58 -15 94v0h-6c-19 -35 -40 -66 -63 -94s-50 -52 -81 -71c-31 -20 -65 -35 -104 -46s-84 -16 -135 -16zM455 115v0c57 0 108 11 151 32s78 47 107 80
c28 33 49 68 63 107s21 76 21 111v0v89l-197 -4c-44 -1 -86 -4 -125 -9c-40 -6 -75 -17 -105 -34s-54 -40 -71 -70c-18 -30 -27 -69 -27 -118v0c0 -59 16 -104 48 -136c31 -32 76 -48 135 -48z" />
    <glyph glyph-name="b" unicode="b" 
d="M1023 546v0c0 -377 -133 -566 -398 -566v0c-82 0 -150 15 -204 45c-55 29 -99 77 -133 143v0h-2c0 -17 0 -35 -1 -54s-2 -36 -3 -52s-2 -30 -3 -41s-2 -18 -3 -21v0h-174c1 6 1 16 2 31c1 14 1 31 2 51s1 42 2 66v75v0v1261h180v-423v-57c-1 -19 -1 -35 -2 -49v0
c-1 -17 -1 -32 -2 -47v0h4c33 69 78 119 133 149s123 45 204 45v0c137 0 237 -46 302 -138c64 -92 96 -231 96 -418zM834 540v0c0 75 -5 139 -14 192s-24 97 -45 132c-21 34 -47 59 -79 75s-71 24 -117 24v0c-47 0 -89 -8 -125 -23c-37 -15 -67 -40 -91 -74
c-25 -34 -43 -79 -56 -134s-19 -123 -19 -203v0c0 -77 6 -142 19 -195s31 -95 56 -128c24 -33 54 -57 90 -71c36 -15 77 -22 124 -22v0c44 0 82 8 114 23s59 40 80 74s37 78 48 133c10 54 15 120 15 197z" />
    <glyph glyph-name="c" unicode="c" horiz-adv-x="1000" 
d="M255 546v0c0 -62 5 -119 14 -171s24 -97 45 -134c21 -38 50 -67 85 -88s78 -31 129 -31v0c64 0 118 17 161 52s69 88 79 160v0l182 -12c-6 -45 -19 -88 -39 -129s-47 -78 -81 -109c-35 -31 -77 -56 -126 -75s-106 -29 -171 -29v0c-85 0 -157 14 -216 43s-107 68 -144 119
c-37 50 -64 109 -81 178c-17 68 -25 142 -25 222v0c0 73 6 137 18 193c12 55 29 104 51 146c21 41 47 76 76 105c29 28 61 51 96 68c34 17 70 29 108 37c38 7 76 11 115 11v0c61 0 115 -8 162 -25s88 -39 123 -68c34 -29 62 -64 83 -103s36 -82 45 -127v0l-185 -14
c-9 60 -33 108 -71 143s-92 53 -162 53v0c-51 0 -94 -8 -128 -25c-35 -17 -63 -43 -84 -77c-21 -35 -36 -78 -45 -130s-14 -113 -14 -183z" />
    <glyph glyph-name="d" unicode="d" 
d="M825 174h-4c-33 -69 -77 -119 -132 -149s-124 -45 -205 -45v0c-137 0 -237 46 -301 138c-65 92 -97 231 -97 418v0c0 377 133 566 398 566v0c82 0 150 -15 205 -45s99 -78 132 -143v0h2v32c-1 14 -1 29 -1 45c-1 15 -1 30 -1 44v0v449h180v-1261c0 -26 0 -51 1 -75
c0 -24 0 -46 1 -66s1 -37 2 -51c1 -15 1 -25 2 -31v0h-172c-1 7 -2 16 -3 29c-1 12 -2 26 -3 42s-2 33 -3 51c-1 17 -1 35 -1 52v0zM275 542v0c0 -75 5 -139 14 -192s24 -97 45 -131c21 -35 47 -60 79 -76s71 -24 117 -24v0c47 0 89 8 126 23c36 15 66 40 91 75
c24 34 42 79 55 134s19 123 19 203v0c0 77 -6 142 -19 195s-31 95 -56 128s-55 56 -90 71c-36 14 -77 21 -124 21v0c-44 0 -82 -8 -114 -23s-59 -40 -80 -74s-37 -78 -47 -132c-11 -55 -16 -121 -16 -198z" />
    <glyph glyph-name="e" unicode="e" 
d="M1038 503h-772c0 -57 6 -109 18 -156c11 -48 29 -89 54 -123c24 -35 55 -61 93 -80s84 -29 137 -29v0c78 0 141 16 188 47s78 71 95 119v0l158 -45c-11 -30 -27 -60 -47 -90c-21 -31 -48 -58 -82 -82c-34 -25 -76 -45 -127 -60c-51 -16 -113 -24 -185 -24v0
c-160 0 -282 48 -365 143c-84 95 -126 237 -126 425v0c0 101 13 187 38 258c25 70 60 127 104 171s95 76 154 96c59 19 121 29 188 29v0c91 0 167 -15 228 -44s110 -70 147 -121c37 -52 63 -113 79 -183c15 -70 23 -146 23 -227v0v-24zM268 641h584c-10 114 -39 197 -87 250
c-48 52 -117 78 -207 78v0c-30 0 -61 -5 -94 -14c-33 -10 -64 -27 -92 -52s-52 -58 -71 -100c-19 -43 -30 -97 -33 -162v0z" />
    <glyph glyph-name="f" unicode="f" horiz-adv-x="599" 
d="M572 951h-211v-951h-180v951h-152v131h152v122c0 39 4 76 11 110c7 33 21 63 41 88c19 25 46 44 80 59c34 14 78 21 132 21v0c21 0 44 -1 67 -3s43 -5 60 -9v0v-137c-11 2 -24 4 -39 6c-15 1 -29 2 -41 2v0c-27 0 -48 -4 -65 -11s-31 -18 -40 -31
c-10 -14 -17 -31 -20 -51c-4 -20 -6 -43 -6 -69v0v-97h211v-131z" />
    <glyph glyph-name="g" unicode="g" 
d="M548 -425v0c-62 0 -117 6 -165 19s-89 31 -123 55c-34 23 -62 51 -83 84s-37 69 -46 109v0l181 26c12 -50 39 -88 80 -115s94 -41 161 -41v0c41 0 78 6 111 17s62 30 85 55s41 57 54 97s19 89 19 146v0v174h-2c-13 -27 -30 -53 -49 -78c-20 -25 -44 -48 -72 -67
c-29 -19 -62 -35 -99 -46c-37 -12 -80 -18 -128 -18v0c-69 0 -127 12 -176 35s-89 57 -120 103s-54 103 -68 172c-15 68 -22 147 -22 237v0c0 87 7 165 22 234c14 69 37 128 70 177c32 48 74 85 126 111c51 25 114 38 188 38v0c77 0 143 -17 200 -52c56 -35 99 -85 130 -150
v0h2c0 17 1 35 2 56s2 40 3 59c1 18 2 34 3 47s3 21 4 23v0h171c-1 -6 -1 -16 -2 -30c-1 -15 -1 -32 -2 -52s-1 -42 -1 -66c-1 -25 -1 -50 -1 -76v0v-827c0 -151 -37 -265 -111 -341c-75 -77 -189 -115 -342 -115zM822 541v0c0 75 -8 140 -24 194c-17 53 -38 97 -65 131
s-57 59 -91 75c-35 16 -70 24 -106 24v0c-46 0 -85 -8 -118 -24s-61 -41 -82 -75c-22 -35 -38 -79 -48 -132c-11 -54 -16 -118 -16 -193v0c0 -78 5 -143 16 -196c10 -53 26 -96 47 -129s48 -56 81 -70s72 -21 117 -21v0c36 0 71 8 106 23c34 15 65 40 92 73s49 76 66 129
s25 116 25 191z" />
    <glyph glyph-name="h" unicode="h" 
d="M294 897h3c20 37 42 68 65 94c23 25 49 46 77 63s59 29 92 37c33 7 71 11 112 11v0c69 0 126 -9 171 -28c44 -19 79 -45 105 -78c25 -34 43 -74 53 -121c9 -47 14 -98 14 -154v0v-721h-181v686c0 46 -3 86 -8 121c-6 35 -17 64 -33 87s-39 40 -68 52
c-29 11 -67 17 -114 17v0c-43 0 -81 -8 -115 -23c-35 -15 -64 -37 -88 -65c-25 -28 -44 -62 -57 -102s-20 -85 -20 -135v0v-638h-180v1484h180v-386c0 -22 0 -44 -1 -66s-1 -42 -2 -61s-2 -34 -3 -47s-1 -22 -2 -27v0z" />
    <glyph glyph-name="i" unicode="i" horiz-adv-x="455" 
d="M317 1312h-180v172h180v-172zM317 0h-180v1082h180v-1082z" />
    <glyph glyph-name="j" unicode="j" horiz-adv-x="455" 
d="M317 1312h-180v172h180v-172zM317 1082v-1216c0 -41 -3 -80 -10 -115s-20 -66 -38 -92s-42 -46 -73 -61s-71 -23 -119 -23v0c-23 0 -45 1 -66 2c-22 1 -42 4 -61 7v0v139c9 -1 19 -3 31 -4s22 -2 31 -2v0c25 0 46 3 63 10c16 7 29 17 38 32c9 14 16 32 19 55
c3 22 5 48 5 79v0v1189h180z" />
    <glyph glyph-name="k" unicode="k" horiz-adv-x="1000" 
d="M1007 0h-211l-366 494l-132 -109v-385h-180v1484h180v-927l475 525h211l-439 -465z" />
    <glyph glyph-name="l" unicode="l" horiz-adv-x="455" 
d="M318 0h-180v1484h180v-1484z" />
    <glyph glyph-name="m" unicode="m" horiz-adv-x="1499" 
d="M836 0h-178v686c0 53 -3 97 -10 132s-16 64 -28 86c-13 21 -28 37 -47 46s-43 13 -73 13v0c-38 0 -71 -7 -98 -22s-52 -37 -73 -65c-22 -29 -39 -64 -50 -105c-12 -42 -18 -90 -18 -144v0v-627h-179v851v72c-1 25 -1 48 -2 71c-1 22 -1 41 -2 57s-1 26 -2 31v0h170
c1 -3 1 -12 2 -27s2 -31 3 -50s1 -39 2 -58c1 -20 1 -37 1 -50v0h3c16 31 33 60 52 85s39 47 61 65c21 17 48 31 81 41c32 9 66 14 102 14v0c62 0 117 -16 165 -49c47 -33 80 -85 99 -156v0h3c16 31 34 60 54 85s42 47 65 65c23 17 52 31 85 41c33 9 68 14 104 14v0
c41 0 80 -7 117 -22c36 -15 67 -37 92 -68s44 -70 56 -118c12 -49 18 -106 18 -173v0v-721h-178v686c0 53 -3 97 -10 132s-16 64 -28 86c-13 21 -28 37 -47 46s-43 13 -73 13v0c-38 0 -71 -7 -98 -21c-27 -15 -52 -36 -73 -64c-22 -28 -39 -63 -50 -105
c-12 -42 -18 -91 -18 -146v0v-627z" />
    <glyph glyph-name="n" unicode="n" 
d="M986 0h-181v686c0 53 -4 97 -11 132c-8 35 -21 64 -38 86c-17 21 -40 37 -68 46c-29 9 -64 13 -106 13v0c-43 0 -81 -7 -115 -22c-35 -15 -64 -37 -88 -65c-25 -29 -44 -64 -57 -105c-13 -42 -20 -90 -20 -144v0v-627h-180v851v72c-1 25 -1 48 -2 71c-1 22 -1 41 -2 57
s-1 26 -2 31v0h170c1 -3 1 -12 2 -27s2 -31 3 -50s1 -39 2 -58c1 -20 1 -37 1 -50v0h3c17 31 36 60 57 85s45 47 72 65c27 17 59 31 94 41c35 9 76 14 123 14v0c60 0 112 -7 155 -22s79 -37 107 -68s49 -70 62 -118c13 -49 19 -106 19 -173v0v-721z" />
    <glyph glyph-name="o" unicode="o" 
d="M1033 542v0c0 -189 -42 -330 -125 -423s-204 -139 -363 -139v0c-75 0 -143 11 -202 34s-109 57 -150 104s-73 105 -94 176c-22 70 -33 153 -33 248v0c0 373 162 560 485 560v0c84 0 157 -12 218 -35s111 -58 150 -105s67 -105 86 -175s28 -152 28 -245zM844 542v0
c0 84 -6 153 -19 208s-32 98 -57 131s-56 56 -92 69s-77 19 -122 19v0c-46 0 -87 -7 -124 -20c-37 -14 -69 -37 -95 -70s-46 -77 -59 -132c-14 -55 -21 -123 -21 -205v0c0 -84 7 -153 22 -208s35 -99 61 -132c25 -33 56 -56 91 -69s73 -20 114 -20v0c46 0 88 7 125 20
s69 35 95 68s46 77 60 132s21 125 21 209z" />
    <glyph glyph-name="p" unicode="p" 
d="M1023 546v0c0 -82 -7 -158 -20 -227s-35 -129 -66 -179s-72 -89 -123 -117c-51 -29 -114 -43 -189 -43v0c-77 0 -145 15 -203 44s-102 77 -133 144v0h-5c1 -1 1 -7 2 -18c0 -11 0 -24 1 -40c0 -16 0 -34 1 -53v-59v0v-423h-180v1286v75c-1 24 -1 46 -2 66
c-1 19 -1 36 -2 50s-1 24 -2 30v0h174c1 -2 2 -9 3 -21s2 -26 3 -43s2 -36 3 -55s1 -38 1 -55v0h4c17 35 36 64 57 89c21 24 46 44 73 60c27 15 58 27 92 34c33 7 71 10 113 10v0c75 0 138 -13 189 -40s92 -64 123 -112c31 -49 53 -107 66 -175c13 -69 20 -145 20 -228z
M834 542v0c0 67 -4 126 -12 178s-22 96 -41 132c-20 36 -46 63 -79 82s-74 28 -123 28v0c-40 0 -78 -6 -113 -17s-66 -33 -92 -65c-27 -32 -48 -76 -63 -132c-15 -57 -23 -130 -23 -220v0c0 -77 6 -141 19 -194s31 -96 56 -129c24 -33 54 -56 90 -70c36 -15 77 -22 124 -22
v0c50 0 92 10 125 29s59 47 79 84c19 37 33 82 41 135s12 113 12 181z" />
    <glyph glyph-name="q" unicode="q" 
d="M484 -20v0c-137 0 -238 46 -302 139s-96 232 -96 417v0c0 188 33 329 99 424c65 95 165 142 299 142v0c45 0 84 -4 119 -12c34 -8 65 -20 92 -35c27 -16 50 -36 71 -59c20 -23 38 -51 55 -82v0h2c0 17 1 35 2 56c1 20 2 39 3 57s2 34 3 47s3 20 4 22v0h173
c-1 -11 -3 -41 -4 -89c-2 -48 -3 -117 -3 -206v0v-1226h-180v439c0 17 0 35 1 54c0 19 0 36 1 53v0c1 19 1 38 2 57v0h-2c-17 -34 -36 -63 -57 -88s-46 -46 -73 -62c-27 -17 -58 -29 -92 -36c-35 -8 -74 -12 -117 -12zM821 554v0c0 79 -7 145 -20 198c-14 53 -33 96 -58 128
s-56 55 -91 69c-36 13 -76 20 -120 20v0c-46 0 -85 -8 -118 -25s-59 -43 -79 -78c-21 -35 -36 -80 -45 -133c-10 -54 -15 -118 -15 -191v0c0 -72 5 -135 14 -188s23 -97 44 -132c20 -35 46 -60 79 -77c32 -17 71 -26 118 -26v0c40 0 78 6 113 19c35 12 66 34 93 67
c26 32 47 76 62 133c15 56 23 128 23 216z" />
    <glyph glyph-name="r" unicode="r" horiz-adv-x="701" 
d="M292 0h-180v830v70c-1 23 -1 46 -2 68s-1 43 -2 62s-1 37 -2 52v0h170c1 -15 2 -33 3 -52c1 -20 2 -40 3 -61s1 -40 2 -59v-49v0h4c13 41 26 77 41 108c14 30 31 55 50 75c19 19 42 34 69 44c27 9 59 14 97 14v0c15 0 29 -1 42 -3c13 -3 24 -5 31 -7v0v-165
c-12 3 -26 6 -42 8c-16 1 -34 2 -54 2v0c-41 0 -76 -9 -105 -28s-53 -44 -71 -77c-19 -33 -32 -73 -41 -118c-9 -46 -13 -96 -13 -150v0v-564z" />
    <glyph glyph-name="s" unicode="s" horiz-adv-x="1000" 
d="M940 299v0c0 -51 -10 -96 -29 -135c-20 -40 -49 -73 -86 -100s-83 -48 -137 -62c-55 -15 -117 -22 -187 -22v0c-63 0 -119 5 -169 15c-51 9 -95 25 -133 46s-70 50 -95 85c-26 35 -45 77 -57 128v0l159 31c15 -58 47 -100 95 -127s115 -41 200 -41v0c39 0 74 3 107 8
c32 5 60 15 83 28s42 30 55 52c13 21 19 48 19 80v0c0 33 -8 60 -23 81s-37 38 -64 52s-60 26 -99 37c-39 10 -82 21 -129 34v0c-43 11 -86 24 -129 38s-81 33 -115 56c-35 23 -63 51 -84 85s-32 77 -32 128v0c0 99 35 174 106 226c70 51 172 77 307 77v0
c119 0 214 -21 285 -63c70 -42 114 -109 133 -202v0l-162 -20c-6 28 -17 52 -33 71s-35 34 -58 46c-23 11 -48 20 -76 25c-29 5 -58 7 -89 7v0c-81 0 -141 -12 -180 -37s-58 -62 -58 -112v0c0 -29 7 -53 22 -72c14 -19 34 -35 60 -48c25 -13 56 -25 92 -34
c36 -10 76 -20 119 -31v0c29 -7 58 -15 88 -23c30 -9 59 -19 88 -30c28 -12 55 -26 80 -41c25 -16 46 -35 65 -57s34 -48 45 -77s16 -63 16 -102z" />
    <glyph glyph-name="t" unicode="t" horiz-adv-x="599" 
d="M554 141v-133c-27 -7 -55 -13 -83 -17c-29 -5 -62 -7 -99 -7v0c-144 0 -216 82 -216 245v0v722h-125v131h132l53 242h120v-242h200v-131h-200v-683c0 -52 9 -88 26 -109s46 -32 88 -32v0c17 0 34 1 51 4c16 3 34 6 53 10v0z" />
    <glyph glyph-name="u" unicode="u" 
d="M113 1082h181v-686c0 -53 4 -97 12 -132c7 -35 20 -64 37 -85c17 -22 40 -37 69 -46c28 -9 63 -14 105 -14v0c43 0 81 8 116 23c34 15 63 36 88 65c24 28 43 63 56 105c13 41 20 89 20 143v0v627h180v-851c0 -23 0 -46 1 -71c0 -25 0 -49 1 -71c1 -23 1 -42 2 -58
s1 -26 2 -31v0h-170c-1 3 -1 12 -2 27s-1 32 -2 51s-2 38 -3 58c-1 19 -1 36 -1 49v0h-3c-17 -31 -36 -60 -57 -85s-45 -47 -72 -64c-27 -18 -59 -32 -94 -41c-35 -10 -76 -15 -123 -15v0c-60 0 -112 7 -155 22s-79 37 -107 68s-48 70 -61 118s-20 106 -20 173v0v721z" />
    <glyph glyph-name="v" unicode="v" horiz-adv-x="1000" 
d="M1007 1082l-404 -1082h-213l-393 1082h192l238 -704c5 -15 10 -32 17 -53c6 -21 12 -43 19 -66s13 -44 19 -65c5 -21 10 -39 14 -53v0c4 14 9 32 16 53c6 21 12 42 19 64s14 44 21 65s13 38 18 53v0l246 706h191z" />
    <glyph glyph-name="w" unicode="w" horiz-adv-x="1499" 
d="M1494 1082l-310 -1082h-209l-173 698c-5 18 -11 40 -16 67c-6 27 -12 53 -17 78v0c-7 29 -13 60 -19 91v0c-6 -30 -12 -60 -19 -89v0c-5 -25 -11 -52 -17 -79c-7 -27 -13 -51 -18 -72v0l-178 -694h-208l-303 1082h178l183 -735c5 -15 9 -34 14 -56c5 -23 9 -45 14 -66v0
c5 -25 10 -50 15 -76v0c5 25 11 50 17 74v0c5 21 11 42 16 63s10 39 14 53v0l196 743h193l189 -743c5 -17 10 -37 15 -59s10 -43 15 -62v0c5 -23 11 -46 16 -69v0c5 25 11 50 16 74v0c5 21 10 42 15 65c5 22 9 42 14 59v0l191 735h176z" />
    <glyph glyph-name="x" unicode="x" horiz-adv-x="1000" 
d="M992 0h-201l-291 444l-293 -444h-194l385 556l-367 526h199l270 -421l268 421h201l-367 -524z" />
    <glyph glyph-name="y" unicode="y" horiz-adv-x="1000" 
d="M1010 1082l-416 -1082c-25 -65 -51 -124 -77 -176c-27 -53 -56 -97 -89 -134s-69 -66 -109 -85c-40 -20 -86 -30 -138 -30v0c-23 0 -44 1 -63 2s-40 4 -61 9v0v135c13 -2 27 -3 43 -4s30 -2 41 -2v0c53 0 102 20 147 59s85 102 119 188v0l17 43l-429 1077h192l228 -598
c7 -18 15 -42 26 -72c10 -30 20 -60 31 -90l27 -81s13 -39 14 -45v0c2 7 7 22 15 44c7 21 16 45 26 72c9 27 19 54 29 81s18 51 25 71v0l212 618h190z" />
    <glyph glyph-name="z" unicode="z" horiz-adv-x="1000" 
d="M950 0h-901v137l661 806h-621v139h824v-137l-662 -806h699v-139z" />
    <glyph glyph-name="braceleft" unicode="{" horiz-adv-x="700" 
d="M648 -425h-135c-43 0 -81 7 -114 21c-33 13 -61 33 -83 58s-39 56 -50 92s-17 77 -17 122v0v361c0 42 -5 78 -14 107c-10 29 -24 53 -42 72c-19 19 -41 33 -68 42s-57 15 -91 16v0v127c34 1 64 7 91 16s49 23 68 42c18 19 32 43 42 72c9 29 14 65 14 106v0v362
c0 94 22 166 67 217c44 51 110 76 197 76v0h135v-129h-63c-61 0 -104 -18 -129 -53c-26 -36 -39 -90 -39 -162v0v-356c0 -33 -5 -64 -15 -92s-24 -53 -41 -74s-38 -39 -61 -54c-24 -15 -50 -25 -77 -32v0v-2c29 -7 55 -17 79 -32c23 -15 44 -33 61 -54c17 -22 30 -47 40 -75
c9 -28 14 -59 14 -93v0v-357c0 -71 13 -124 39 -160c25 -37 68 -55 129 -55v0h63v-129z" />
    <glyph glyph-name="bar" unicode="|" horiz-adv-x="532" 
d="M349 -434h-166v1918h166v-1918z" />
    <glyph glyph-name="braceright" unicode="}" horiz-adv-x="700" 
d="M34 -296h60c61 0 104 18 131 55c26 36 39 89 39 160v0v357c0 34 5 65 14 93s23 53 40 75c17 21 37 39 61 54c23 15 49 25 78 32v0v2c-28 7 -54 17 -77 32s-44 33 -61 54s-31 46 -40 74c-10 28 -15 59 -15 92v0v356c0 72 -13 126 -39 162c-27 35 -70 53 -131 53v0h-60v129
h132c87 0 153 -25 198 -76c44 -51 66 -123 66 -217v0v-362c0 -41 5 -77 15 -106c9 -29 23 -53 42 -72c18 -19 41 -33 68 -42s57 -15 92 -16v0v-127c-35 -1 -65 -7 -92 -16s-50 -23 -68 -42c-19 -19 -33 -43 -42 -72c-10 -29 -15 -65 -15 -107v0v-361c0 -45 -6 -86 -17 -122
s-28 -67 -50 -92s-49 -45 -82 -58c-33 -14 -72 -21 -115 -21v0h-132v129z" />
    <glyph glyph-name="asciitilde" unicode="~" horiz-adv-x="1200" 
d="M844 553v0c-46 0 -93 7 -141 22c-49 15 -97 31 -146 48v0c-86 30 -158 45 -217 45v0c-25 0 -49 -2 -70 -6c-22 -4 -43 -10 -63 -17c-20 -8 -39 -17 -58 -28s-38 -23 -57 -37v0v143c33 25 72 46 116 61s93 23 147 23v0c27 0 53 -2 80 -6c27 -5 53 -10 79 -17
c25 -7 51 -14 76 -23s49 -17 74 -26v0c14 -5 29 -10 46 -15l51 -15s34 -8 51 -11s33 -4 48 -4v0c46 0 90 8 131 25s78 39 113 67v0v-149c-21 -15 -42 -28 -61 -38c-20 -10 -40 -18 -60 -24c-21 -7 -42 -11 -65 -14s-47 -4 -74 -4z" />
    <glyph glyph-name="cent" unicode="&#xa2;" 
d="M566 277v0c64 0 118 17 161 52s69 88 79 160v0l182 -12c-5 -41 -16 -81 -33 -120s-41 -73 -70 -104s-65 -56 -107 -77s-91 -34 -146 -39v0v-168h-124v168c-74 7 -137 26 -188 57s-93 71 -124 121c-32 49 -55 107 -69 172c-15 65 -22 135 -22 210v0c0 100 11 184 33 253
s52 125 89 169c37 43 79 76 128 97s100 33 153 38v0v155h124v-155c52 -5 98 -17 138 -35c40 -19 74 -42 103 -70c29 -29 52 -61 70 -97c18 -37 31 -76 39 -118v0l-185 -14c-9 60 -33 108 -71 143s-92 53 -162 53v0c-51 0 -94 -8 -128 -25c-35 -17 -63 -43 -84 -77
c-21 -35 -36 -78 -45 -130s-14 -113 -14 -183v0c0 -62 5 -119 14 -171s24 -97 45 -134c21 -38 50 -67 85 -88s78 -31 129 -31z" />
    <glyph glyph-name="sterling" unicode="&#xa3;" 
d="M911 329l163 -18c-6 -53 -18 -99 -37 -138s-44 -72 -73 -97c-30 -26 -64 -45 -102 -57c-39 -13 -80 -19 -125 -19v0h-698v154c59 31 103 73 132 126s43 120 43 201v0v144h-186v129h186v280c0 61 8 117 24 166s41 90 74 124s74 60 125 79c51 18 110 27 179 27v0
c47 0 91 -5 132 -14c41 -10 78 -25 111 -44s61 -43 85 -72c23 -29 41 -62 53 -100v0l-174 -57c-7 21 -16 40 -29 57s-29 32 -46 44c-18 12 -38 21 -59 28c-22 7 -45 10 -69 10v0c-76 0 -133 -19 -170 -57c-37 -39 -56 -100 -56 -183v0v-288h408v-129h-408v-126
c0 -37 -4 -74 -11 -109s-18 -68 -33 -99s-32 -58 -53 -81c-21 -24 -45 -43 -72 -57v0h483c25 0 49 3 72 10c22 6 42 16 60 30c17 14 32 32 45 55c12 22 21 49 26 81v0z" />
    <glyph glyph-name="yen" unicode="&#xa5;" 
d="M1122 1409l-422 -700h321v-125h-383v-154h383v-127h-383v-303h-178v303h-381v127h381l2 154h-383v125h320l-421 700h199l371 -647l375 647h199z" />
    </font>
</defs>
</svg>
